<?xml version="1.0" encoding="us-ascii" standalone="no"?><svg xmlns="http://www.w3.org/2000/svg" xmlns:xlink="http://www.w3.org/1999/xlink" contentStyleType="text/css" height="926px" preserveAspectRatio="none" style="width:966px;height:926px;background:#FFFFFF;" version="1.1" viewBox="0 0 966 926" width="966px" zoomAndPan="magnify"><defs/><g><rect fill="#FFFFFF" height="683.4648" style="stroke:#181818;stroke-width:1.0;" width="10" x="160" y="114.9609"/><rect fill="#FFFFFF" height="653.1133" style="stroke:#181818;stroke-width:1.0;" width="10" x="337.5" y="145.3125"/><rect fill="#FFFFFF" height="252.5156" style="stroke:#181818;stroke-width:1.0;" width="10" x="546.5" y="175.6641"/><rect fill="#FFFFFF" height="97.0547" style="stroke:#181818;stroke-width:1.0;" width="10" x="546.5" y="599.6406"/><rect fill="none" height="183.1094" style="stroke:#000000;stroke-width:1.5;" width="950.5" x="10" y="528.5859"/><line style="stroke:#181818;stroke-width:0.5;stroke-dasharray:5.0,5.0;" x1="43" x2="43" y1="82.6094" y2="844.4531"/><line style="stroke:#181818;stroke-width:0.5;stroke-dasharray:5.0,5.0;" x1="164.5" x2="164.5" y1="82.6094" y2="844.4531"/><line style="stroke:#181818;stroke-width:0.5;stroke-dasharray:5.0,5.0;" x1="342.5" x2="342.5" y1="82.6094" y2="844.4531"/><line style="stroke:#181818;stroke-width:0.5;stroke-dasharray:5.0,5.0;" x1="551.5" x2="551.5" y1="82.6094" y2="844.4531"/><line style="stroke:#181818;stroke-width:0.5;stroke-dasharray:5.0,5.0;" x1="733.5" x2="733.5" y1="82.6094" y2="844.4531"/><line style="stroke:#181818;stroke-width:0.5;stroke-dasharray:5.0,5.0;" x1="891.5" x2="891.5" y1="82.6094" y2="844.4531"/><text fill="#000000" font-family="sans-serif" font-size="14" lengthAdjust="spacing" textLength="40" x="20" y="79.5332">Player</text><ellipse cx="43" cy="13.5" fill="#E2E2F0" rx="8" ry="8" style="stroke:#181818;stroke-width:0.5;"/><path d="M43,21.5 L43,48.5 M30,29.5 L56,29.5 M43,48.5 L30,63.5 M43,48.5 L56,63.5 " fill="none" style="stroke:#181818;stroke-width:0.5;"/><text fill="#000000" font-family="sans-serif" font-size="14" lengthAdjust="spacing" textLength="40" x="20" y="857.9863">Player</text><ellipse cx="43" cy="869.5625" fill="#E2E2F0" rx="8" ry="8" style="stroke:#181818;stroke-width:0.5;"/><path d="M43,877.5625 L43,904.5625 M30,885.5625 L56,885.5625 M43,904.5625 L30,919.5625 M43,904.5625 L56,919.5625 " fill="none" style="stroke:#181818;stroke-width:0.5;"/><rect fill="#E2E2F0" height="31.6094" rx="2.5" ry="2.5" style="stroke:#181818;stroke-width:0.5;" width="115" x="107.5" y="50"/><text fill="#000000" font-family="sans-serif" font-size="14" lengthAdjust="spacing" textLength="101" x="114.5" y="71.5332">StatisticsScreen</text><rect fill="#E2E2F0" height="31.6094" rx="2.5" ry="2.5" style="stroke:#181818;stroke-width:0.5;" width="115" x="107.5" y="843.4531"/><text fill="#000000" font-family="sans-serif" font-size="14" lengthAdjust="spacing" textLength="101" x="114.5" y="864.9863">StatisticsScreen</text><rect fill="#E2E2F0" height="31.6094" rx="2.5" ry="2.5" style="stroke:#181818;stroke-width:0.5;" width="140" x="272.5" y="50"/><text fill="#000000" font-family="sans-serif" font-size="14" lengthAdjust="spacing" textLength="126" x="279.5" y="71.5332">AnalyticsDashboard</text><rect fill="#E2E2F0" height="31.6094" rx="2.5" ry="2.5" style="stroke:#181818;stroke-width:0.5;" width="140" x="272.5" y="843.4531"/><text fill="#000000" font-family="sans-serif" font-size="14" lengthAdjust="spacing" textLength="126" x="279.5" y="864.9863">AnalyticsDashboard</text><rect fill="#E2E2F0" height="31.6094" rx="2.5" ry="2.5" style="stroke:#181818;stroke-width:0.5;" width="126" x="488.5" y="50"/><text fill="#000000" font-family="sans-serif" font-size="14" lengthAdjust="spacing" textLength="112" x="495.5" y="71.5332">StatisticsManager</text><rect fill="#E2E2F0" height="31.6094" rx="2.5" ry="2.5" style="stroke:#181818;stroke-width:0.5;" width="126" x="488.5" y="843.4531"/><text fill="#000000" font-family="sans-serif" font-size="14" lengthAdjust="spacing" textLength="112" x="495.5" y="864.9863">StatisticsManager</text><rect fill="#E2E2F0" height="31.6094" rx="2.5" ry="2.5" style="stroke:#181818;stroke-width:0.5;" width="138" x="664.5" y="50"/><text fill="#000000" font-family="sans-serif" font-size="14" lengthAdjust="spacing" textLength="124" x="671.5" y="71.5332">StatisticsRepository</text><rect fill="#E2E2F0" height="31.6094" rx="2.5" ry="2.5" style="stroke:#181818;stroke-width:0.5;" width="138" x="664.5" y="843.4531"/><text fill="#000000" font-family="sans-serif" font-size="14" lengthAdjust="spacing" textLength="124" x="671.5" y="864.9863">StatisticsRepository</text><rect fill="#E2E2F0" height="31.6094" rx="2.5" ry="2.5" style="stroke:#181818;stroke-width:0.5;" width="78" x="852.5" y="50"/><text fill="#000000" font-family="sans-serif" font-size="14" lengthAdjust="spacing" textLength="64" x="859.5" y="71.5332">DataStore</text><rect fill="#E2E2F0" height="31.6094" rx="2.5" ry="2.5" style="stroke:#181818;stroke-width:0.5;" width="78" x="852.5" y="843.4531"/><text fill="#000000" font-family="sans-serif" font-size="14" lengthAdjust="spacing" textLength="64" x="859.5" y="864.9863">DataStore</text><rect fill="#FFFFFF" height="683.4648" style="stroke:#181818;stroke-width:1.0;" width="10" x="160" y="114.9609"/><rect fill="#FFFFFF" height="653.1133" style="stroke:#181818;stroke-width:1.0;" width="10" x="337.5" y="145.3125"/><rect fill="#FFFFFF" height="252.5156" style="stroke:#181818;stroke-width:1.0;" width="10" x="546.5" y="175.6641"/><rect fill="#FFFFFF" height="97.0547" style="stroke:#181818;stroke-width:1.0;" width="10" x="546.5" y="599.6406"/><polygon fill="#181818" points="148,110.9609,158,114.9609,148,118.9609,152,114.9609" style="stroke:#181818;stroke-width:1.0;"/><line style="stroke:#181818;stroke-width:1.0;" x1="43" x2="154" y1="114.9609" y2="114.9609"/><text fill="#000000" font-family="sans-serif" font-size="13" lengthAdjust="spacing" textLength="87" x="58" y="110.1045">View Statistics</text><polygon fill="#181818" points="325.5,141.3125,335.5,145.3125,325.5,149.3125,329.5,145.3125" style="stroke:#181818;stroke-width:1.0;"/><line style="stroke:#181818;stroke-width:1.0;" x1="170" x2="331.5" y1="145.3125" y2="145.3125"/><text fill="#000000" font-family="sans-serif" font-size="13" lengthAdjust="spacing" textLength="113" x="197.25" y="140.4561">Initialize Dashboard</text><polygon fill="#181818" points="534.5,171.6641,544.5,175.6641,534.5,179.6641,538.5,175.6641" style="stroke:#181818;stroke-width:1.0;"/><line style="stroke:#181818;stroke-width:1.0;" x1="347.5" x2="540.5" y1="175.6641" y2="175.6641"/><text fill="#000000" font-family="sans-serif" font-size="13" lengthAdjust="spacing" textLength="180" x="357" y="170.8076">collectAsState(gameStatistics)</text><polygon fill="#181818" points="879.5,202.0156,889.5,206.0156,879.5,210.0156,883.5,206.0156" style="stroke:#181818;stroke-width:1.0;"/><line style="stroke:#181818;stroke-width:1.0;" x1="556.5" x2="885.5" y1="206.0156" y2="206.0156"/><text fill="#000000" font-family="sans-serif" font-size="13" lengthAdjust="spacing" textLength="125" x="661.5" y="201.1592">Load stored statistics</text><polygon fill="#181818" points="567.5,232.3672,557.5,236.3672,567.5,240.3672,563.5,236.3672" style="stroke:#181818;stroke-width:1.0;"/><line style="stroke:#181818;stroke-width:1.0;stroke-dasharray:2.0,2.0;" x1="561.5" x2="890.5" y1="236.3672" y2="236.3672"/><text fill="#000000" font-family="sans-serif" font-size="13" lengthAdjust="spacing" textLength="67" x="690.5" y="231.5107">Stored data</text><line style="stroke:#181818;stroke-width:1.0;" x1="556.5" x2="598.5" y1="266.7188" y2="266.7188"/><line style="stroke:#181818;stroke-width:1.0;" x1="598.5" x2="598.5" y1="266.7188" y2="279.7188"/><line style="stroke:#181818;stroke-width:1.0;" x1="557.5" x2="598.5" y1="279.7188" y2="279.7188"/><polygon fill="#181818" points="567.5,275.7188,557.5,279.7188,567.5,283.7188,563.5,279.7188" style="stroke:#181818;stroke-width:1.0;"/><text fill="#000000" font-family="sans-serif" font-size="13" lengthAdjust="spacing" textLength="122" x="563.5" y="261.8623">loadGameStatistics()</text><line style="stroke:#181818;stroke-width:1.0;" x1="556.5" x2="598.5" y1="347.4492" y2="347.4492"/><line style="stroke:#181818;stroke-width:1.0;" x1="598.5" x2="598.5" y1="347.4492" y2="360.4492"/><line style="stroke:#181818;stroke-width:1.0;" x1="557.5" x2="598.5" y1="360.4492" y2="360.4492"/><polygon fill="#181818" points="567.5,356.4492,557.5,360.4492,567.5,364.4492,563.5,360.4492" style="stroke:#181818;stroke-width:1.0;"/><text fill="#000000" font-family="sans-serif" font-size="13" lengthAdjust="spacing" textLength="134" x="563.5" y="342.5928">updatePlayerAnalysis()</text><path d="M709,292.7188 L709,400.7188 L908,400.7188 L908,302.7188 L898,292.7188 L709,292.7188 " fill="#FEFFDD" style="stroke:#181818;stroke-width:0.5;"/><path d="M898,292.7188 L898,302.7188 L908,302.7188 L898,292.7188 " fill="#FEFFDD" style="stroke:#181818;stroke-width:0.5;"/><text fill="#000000" font-family="sans-serif" font-size="13" lengthAdjust="spacing" textLength="118" x="715" y="311.2139">- Calculate win rates</text><text fill="#000000" font-family="sans-serif" font-size="13" lengthAdjust="spacing" textLength="127" x="715" y="327.5654">- Determine play style</text><text fill="#000000" font-family="sans-serif" font-size="13" lengthAdjust="spacing" textLength="178" x="715" y="343.917">- Process performance metrics</text><text fill="#000000" font-family="sans-serif" font-size="13" lengthAdjust="spacing" textLength="123" x="715" y="360.2686">- Track achievements</text><text fill="#000000" font-family="sans-serif" font-size="13" lengthAdjust="spacing" textLength="158" x="715" y="376.6201">- Analyze decision patterns</text><text fill="#000000" font-family="sans-serif" font-size="13" lengthAdjust="spacing" textLength="125" x="715" y="392.9717">- Update time metrics</text><polygon fill="#181818" points="358.5,424.1797,348.5,428.1797,358.5,432.1797,354.5,428.1797" style="stroke:#181818;stroke-width:1.0;"/><line style="stroke:#181818;stroke-width:1.0;stroke-dasharray:2.0,2.0;" x1="352.5" x2="550.5" y1="428.1797" y2="428.1797"/><text fill="#000000" font-family="sans-serif" font-size="13" lengthAdjust="spacing" textLength="134" x="382.5" y="423.3232">Emit statistics updates</text><line style="stroke:#181818;stroke-width:1.0;" x1="347.5" x2="389.5" y1="479.5586" y2="479.5586"/><line style="stroke:#181818;stroke-width:1.0;" x1="389.5" x2="389.5" y1="479.5586" y2="492.5586"/><line style="stroke:#181818;stroke-width:1.0;" x1="348.5" x2="389.5" y1="492.5586" y2="492.5586"/><polygon fill="#181818" points="358.5,488.5586,348.5,492.5586,358.5,496.5586,354.5,492.5586" style="stroke:#181818;stroke-width:1.0;"/><text fill="#000000" font-family="sans-serif" font-size="13" lengthAdjust="spacing" textLength="132" x="354.5" y="474.7021">Update UI components</text><path d="M498,441.1797 L498,516.1797 L661,516.1797 L661,451.1797 L651,441.1797 L498,441.1797 " fill="#FEFFDD" style="stroke:#181818;stroke-width:0.5;"/><path d="M651,441.1797 L651,451.1797 L661,451.1797 L651,441.1797 " fill="#FEFFDD" style="stroke:#181818;stroke-width:0.5;"/><text fill="#000000" font-family="sans-serif" font-size="13" lengthAdjust="spacing" textLength="112" x="504" y="459.6748">- Performance Card</text><text fill="#000000" font-family="sans-serif" font-size="13" lengthAdjust="spacing" textLength="125" x="504" y="476.0264">- Time Analytics Card</text><text fill="#000000" font-family="sans-serif" font-size="13" lengthAdjust="spacing" textLength="142" x="504" y="492.3779">- Decision Patterns Card</text><text fill="#000000" font-family="sans-serif" font-size="13" lengthAdjust="spacing" textLength="120" x="504" y="508.7295">- Achievements Card</text><path d="M10,528.5859 L71,528.5859 L71,536.9375 L61,546.9375 L10,546.9375 L10,528.5859 " fill="#EEEEEE" style="stroke:#000000;stroke-width:1.5;"/><rect fill="none" height="183.1094" style="stroke:#000000;stroke-width:1.5;" width="950.5" x="10" y="528.5859"/><text fill="#000000" font-family="sans-serif" font-size="13" font-weight="bold" lengthAdjust="spacing" textLength="16" x="25" y="543.0811">alt</text><text fill="#000000" font-family="sans-serif" font-size="11" font-weight="bold" lengthAdjust="spacing" textLength="91" x="86" y="542.0049">[Clear Statistics]</text><polygon fill="#181818" points="148,565.2891,158,569.2891,148,573.2891,152,569.2891" style="stroke:#181818;stroke-width:1.0;"/><line style="stroke:#181818;stroke-width:1.0;" x1="43" x2="154" y1="569.2891" y2="569.2891"/><text fill="#000000" font-family="sans-serif" font-size="13" lengthAdjust="spacing" textLength="93" x="55" y="564.4326">Reset Statistics</text><polygon fill="#181818" points="534.5,595.6406,544.5,599.6406,534.5,603.6406,538.5,599.6406" style="stroke:#181818;stroke-width:1.0;"/><line style="stroke:#181818;stroke-width:1.0;" x1="170" x2="540.5" y1="599.6406" y2="599.6406"/><text fill="#000000" font-family="sans-serif" font-size="13" lengthAdjust="spacing" textLength="78" x="319.25" y="594.7842">clearAllData()</text><polygon fill="#181818" points="879.5,625.9922,889.5,629.9922,879.5,633.9922,883.5,629.9922" style="stroke:#181818;stroke-width:1.0;"/><line style="stroke:#181818;stroke-width:1.0;" x1="556.5" x2="885.5" y1="629.9922" y2="629.9922"/><text fill="#000000" font-family="sans-serif" font-size="13" lengthAdjust="spacing" textLength="99" x="674.5" y="625.1357">Clear stored data</text><polygon fill="#181818" points="721.5,656.3438,731.5,660.3438,721.5,664.3438,725.5,660.3438" style="stroke:#181818;stroke-width:1.0;"/><line style="stroke:#181818;stroke-width:1.0;" x1="556.5" x2="727.5" y1="660.3438" y2="660.3438"/><text fill="#000000" font-family="sans-serif" font-size="13" lengthAdjust="spacing" textLength="118" x="586" y="655.4873">clearUserStatistics()</text><line style="stroke:#181818;stroke-width:1.0;" x1="556.5" x2="598.5" y1="695.6953" y2="695.6953"/><line style="stroke:#181818;stroke-width:1.0;" x1="598.5" x2="598.5" y1="695.6953" y2="708.6953"/><line style="stroke:#181818;stroke-width:1.0;" x1="551.5" x2="598.5" y1="708.6953" y2="708.6953"/><polygon fill="#181818" points="561.5,704.6953,551.5,708.6953,561.5,712.6953,557.5,708.6953" style="stroke:#181818;stroke-width:1.0;"/><text fill="#000000" font-family="sans-serif" font-size="13" lengthAdjust="spacing" textLength="98" x="563.5" y="690.8389">Reset local state</text><polygon fill="#181818" points="325.5,737.0469,335.5,741.0469,325.5,745.0469,329.5,741.0469" style="stroke:#181818;stroke-width:1.0;"/><line style="stroke:#181818;stroke-width:1.0;" x1="43" x2="331.5" y1="741.0469" y2="741.0469"/><text fill="#000000" font-family="sans-serif" font-size="13" lengthAdjust="spacing" textLength="124" x="128.25" y="736.1904">View detailed metrics</text><line style="stroke:#181818;stroke-width:1.0;" x1="347.5" x2="389.5" y1="797.4258" y2="797.4258"/><line style="stroke:#181818;stroke-width:1.0;" x1="389.5" x2="389.5" y1="797.4258" y2="810.4258"/><line style="stroke:#181818;stroke-width:1.0;" x1="342.5" x2="389.5" y1="810.4258" y2="810.4258"/><polygon fill="#181818" points="352.5,806.4258,342.5,810.4258,352.5,814.4258,348.5,810.4258" style="stroke:#181818;stroke-width:1.0;"/><text fill="#000000" font-family="sans-serif" font-size="13" lengthAdjust="spacing" textLength="136" x="354.5" y="792.5693">Show specific analytics</text><path d="M502,754.0469 L502,829.0469 L659,829.0469 L659,764.0469 L649,754.0469 L502,754.0469 " fill="#FEFFDD" style="stroke:#181818;stroke-width:0.5;"/><path d="M649,754.0469 L649,764.0469 L659,764.0469 L649,754.0469 " fill="#FEFFDD" style="stroke:#181818;stroke-width:0.5;"/><text fill="#000000" font-family="sans-serif" font-size="13" lengthAdjust="spacing" textLength="109" x="508" y="772.542">- Risk taking levels</text><text fill="#000000" font-family="sans-serif" font-size="13" lengthAdjust="spacing" textLength="130" x="508" y="788.8936">- Average rolls per turn</text><text fill="#000000" font-family="sans-serif" font-size="13" lengthAdjust="spacing" textLength="119" x="508" y="805.2451">- Banking thresholds</text><text fill="#000000" font-family="sans-serif" font-size="13" lengthAdjust="spacing" textLength="136" x="508" y="821.5967">- Achievement progress</text><!--SRC=[TLJ1ZjiW4BtxAqPxsZr4gdhCeLAQLDLANSbAcjwdUDP6mU0o957wzHsmOsDluuk1UGplpJpWaxOTUco1wS-PhA8tOiQQDaRN5XJPGBxW4LMY3rhf3cqeiQgqhU7pfw905Po7qk1DqDs4WQT3mA1PvdnGdiW-0JB4HJw-pf4RY-OMWJlavhT3NoNiE7kKzmsjyFLJuaV0FNMEjH2z9MoSpg4x37YGE0svP5GKlIXOVRcpNiClJLUOyaRr-eA1Hbt5C8YxHlvhUBKwQ3JwBsMgnitJKZ4EnsFNe9mnfCA6uvoUQsnfel2ou30mwBUBZ3NyS5W1nt7yZTHJ55RJCOSUKaafPabIq4YIxxE3dry-WCwTRAQ-RAcdh2FCEY7dTTs40c05MpJgR2BXgxRWPS1fVKTYk5PRWauo2DMReHGelLDYJUZ8lplVebWLMWe-geZndnxL2L0rcYxKYc_xvSH02bwHqgoTXGw3d63xw35nXQ3RAHdP2YBPKVwyYTzQ7R8A3dAvg6ZPWbaNimp3eM8FvThEsSHrKPuoKxcDdaWI8ytncaphkxksSj0sXJPPFVhLIHwQ05j3w7ClWtp_iVoUcC8IbxdyRjAORcDCl4dIymXQL6NSbtcp9y6PysQeU567r4ScFpFV8bqYqNCrJg59ZQA4-j0VAKH-kxC6fVjTKK1jXD3T5u_QUMZS5RYJ7hnh1NXlpxAZUyqd27YAJwQHbfZ1dnVoydo1b-kTp0tXx6qAVKMRqA7nn8qp5IzR2frtjGHpqsOwfnTbALxUg7y0]--></g></svg>