<?xml version="1.0" encoding="us-ascii" standalone="no"?><svg xmlns="http://www.w3.org/2000/svg" xmlns:xlink="http://www.w3.org/1999/xlink" contentStyleType="text/css" height="896px" preserveAspectRatio="none" style="width:915px;height:896px;background:#FFFFFF;" version="1.1" viewBox="0 0 915 896" width="915px" zoomAndPan="magnify"><defs/><g><rect fill="#FFFFFF" height="653.1133" style="stroke:#181818;stroke-width:1.0;" width="10" x="160" y="114.9609"/><rect fill="#FFFFFF" height="622.7617" style="stroke:#181818;stroke-width:1.0;" width="10" x="337.5" y="145.3125"/><rect fill="#FFFFFF" height="252.5156" style="stroke:#181818;stroke-width:1.0;" width="10" x="546.5" y="175.6641"/><rect fill="#FFFFFF" height="66.7031" style="stroke:#181818;stroke-width:1.0;" width="10" x="546.5" y="599.6406"/><rect fill="none" height="152.7578" style="stroke:#000000;stroke-width:1.5;" width="768.5" x="10" y="528.5859"/><line style="stroke:#181818;stroke-width:0.5;stroke-dasharray:5.0,5.0;" x1="43" x2="43" y1="82.6094" y2="814.1016"/><line style="stroke:#181818;stroke-width:0.5;stroke-dasharray:5.0,5.0;" x1="164.5" x2="164.5" y1="82.6094" y2="814.1016"/><line style="stroke:#181818;stroke-width:0.5;stroke-dasharray:5.0,5.0;" x1="342.5" x2="342.5" y1="82.6094" y2="814.1016"/><line style="stroke:#181818;stroke-width:0.5;stroke-dasharray:5.0,5.0;" x1="551.5" x2="551.5" y1="82.6094" y2="814.1016"/><line style="stroke:#181818;stroke-width:0.5;stroke-dasharray:5.0,5.0;" x1="709.5" x2="709.5" y1="82.6094" y2="814.1016"/><text fill="#000000" font-family="sans-serif" font-size="14" lengthAdjust="spacing" textLength="40" x="20" y="79.5332">Player</text><ellipse cx="43" cy="13.5" fill="#E2E2F0" rx="8" ry="8" style="stroke:#181818;stroke-width:0.5;"/><path d="M43,21.5 L43,48.5 M30,29.5 L56,29.5 M43,48.5 L30,63.5 M43,48.5 L56,63.5 " fill="none" style="stroke:#181818;stroke-width:0.5;"/><text fill="#000000" font-family="sans-serif" font-size="14" lengthAdjust="spacing" textLength="40" x="20" y="827.6348">Player</text><ellipse cx="43" cy="839.2109" fill="#E2E2F0" rx="8" ry="8" style="stroke:#181818;stroke-width:0.5;"/><path d="M43,847.2109 L43,874.2109 M30,855.2109 L56,855.2109 M43,874.2109 L30,889.2109 M43,874.2109 L56,889.2109 " fill="none" style="stroke:#181818;stroke-width:0.5;"/><rect fill="#E2E2F0" height="31.6094" rx="2.5" ry="2.5" style="stroke:#181818;stroke-width:0.5;" width="115" x="107.5" y="50"/><text fill="#000000" font-family="sans-serif" font-size="14" lengthAdjust="spacing" textLength="101" x="114.5" y="71.5332">StatisticsScreen</text><rect fill="#E2E2F0" height="31.6094" rx="2.5" ry="2.5" style="stroke:#181818;stroke-width:0.5;" width="115" x="107.5" y="813.1016"/><text fill="#000000" font-family="sans-serif" font-size="14" lengthAdjust="spacing" textLength="101" x="114.5" y="834.6348">StatisticsScreen</text><rect fill="#E2E2F0" height="31.6094" rx="2.5" ry="2.5" style="stroke:#181818;stroke-width:0.5;" width="140" x="272.5" y="50"/><text fill="#000000" font-family="sans-serif" font-size="14" lengthAdjust="spacing" textLength="126" x="279.5" y="71.5332">AnalyticsDashboard</text><rect fill="#E2E2F0" height="31.6094" rx="2.5" ry="2.5" style="stroke:#181818;stroke-width:0.5;" width="140" x="272.5" y="813.1016"/><text fill="#000000" font-family="sans-serif" font-size="14" lengthAdjust="spacing" textLength="126" x="279.5" y="834.6348">AnalyticsDashboard</text><rect fill="#E2E2F0" height="31.6094" rx="2.5" ry="2.5" style="stroke:#181818;stroke-width:0.5;" width="126" x="488.5" y="50"/><text fill="#000000" font-family="sans-serif" font-size="14" lengthAdjust="spacing" textLength="112" x="495.5" y="71.5332">StatisticsManager</text><rect fill="#E2E2F0" height="31.6094" rx="2.5" ry="2.5" style="stroke:#181818;stroke-width:0.5;" width="126" x="488.5" y="813.1016"/><text fill="#000000" font-family="sans-serif" font-size="14" lengthAdjust="spacing" textLength="112" x="495.5" y="834.6348">StatisticsManager</text><rect fill="#E2E2F0" height="31.6094" rx="2.5" ry="2.5" style="stroke:#181818;stroke-width:0.5;" width="78" x="670.5" y="50"/><text fill="#000000" font-family="sans-serif" font-size="14" lengthAdjust="spacing" textLength="64" x="677.5" y="71.5332">DataStore</text><rect fill="#E2E2F0" height="31.6094" rx="2.5" ry="2.5" style="stroke:#181818;stroke-width:0.5;" width="78" x="670.5" y="813.1016"/><text fill="#000000" font-family="sans-serif" font-size="14" lengthAdjust="spacing" textLength="64" x="677.5" y="834.6348">DataStore</text><rect fill="#FFFFFF" height="653.1133" style="stroke:#181818;stroke-width:1.0;" width="10" x="160" y="114.9609"/><rect fill="#FFFFFF" height="622.7617" style="stroke:#181818;stroke-width:1.0;" width="10" x="337.5" y="145.3125"/><rect fill="#FFFFFF" height="252.5156" style="stroke:#181818;stroke-width:1.0;" width="10" x="546.5" y="175.6641"/><rect fill="#FFFFFF" height="66.7031" style="stroke:#181818;stroke-width:1.0;" width="10" x="546.5" y="599.6406"/><polygon fill="#181818" points="148,110.9609,158,114.9609,148,118.9609,152,114.9609" style="stroke:#181818;stroke-width:1.0;"/><line style="stroke:#181818;stroke-width:1.0;" x1="43" x2="154" y1="114.9609" y2="114.9609"/><text fill="#000000" font-family="sans-serif" font-size="13" lengthAdjust="spacing" textLength="87" x="58" y="110.1045">View Statistics</text><polygon fill="#181818" points="325.5,141.3125,335.5,145.3125,325.5,149.3125,329.5,145.3125" style="stroke:#181818;stroke-width:1.0;"/><line style="stroke:#181818;stroke-width:1.0;" x1="170" x2="331.5" y1="145.3125" y2="145.3125"/><text fill="#000000" font-family="sans-serif" font-size="13" lengthAdjust="spacing" textLength="113" x="197.25" y="140.4561">Initialize Dashboard</text><polygon fill="#181818" points="534.5,171.6641,544.5,175.6641,534.5,179.6641,538.5,175.6641" style="stroke:#181818;stroke-width:1.0;"/><line style="stroke:#181818;stroke-width:1.0;" x1="347.5" x2="540.5" y1="175.6641" y2="175.6641"/><text fill="#000000" font-family="sans-serif" font-size="13" lengthAdjust="spacing" textLength="180" x="357" y="170.8076">collectAsState(gameStatistics)</text><polygon fill="#181818" points="697.5,202.0156,707.5,206.0156,697.5,210.0156,701.5,206.0156" style="stroke:#181818;stroke-width:1.0;"/><line style="stroke:#181818;stroke-width:1.0;" x1="556.5" x2="703.5" y1="206.0156" y2="206.0156"/><text fill="#000000" font-family="sans-serif" font-size="13" lengthAdjust="spacing" textLength="125" x="570.5" y="201.1592">Load stored statistics</text><polygon fill="#181818" points="567.5,232.3672,557.5,236.3672,567.5,240.3672,563.5,236.3672" style="stroke:#181818;stroke-width:1.0;"/><line style="stroke:#181818;stroke-width:1.0;stroke-dasharray:2.0,2.0;" x1="561.5" x2="708.5" y1="236.3672" y2="236.3672"/><text fill="#000000" font-family="sans-serif" font-size="13" lengthAdjust="spacing" textLength="67" x="599.5" y="231.5107">Stored data</text><line style="stroke:#181818;stroke-width:1.0;" x1="556.5" x2="598.5" y1="266.7188" y2="266.7188"/><line style="stroke:#181818;stroke-width:1.0;" x1="598.5" x2="598.5" y1="266.7188" y2="279.7188"/><line style="stroke:#181818;stroke-width:1.0;" x1="557.5" x2="598.5" y1="279.7188" y2="279.7188"/><polygon fill="#181818" points="567.5,275.7188,557.5,279.7188,567.5,283.7188,563.5,279.7188" style="stroke:#181818;stroke-width:1.0;"/><text fill="#000000" font-family="sans-serif" font-size="13" lengthAdjust="spacing" textLength="122" x="563.5" y="261.8623">loadGameStatistics()</text><line style="stroke:#181818;stroke-width:1.0;" x1="556.5" x2="598.5" y1="347.4492" y2="347.4492"/><line style="stroke:#181818;stroke-width:1.0;" x1="598.5" x2="598.5" y1="347.4492" y2="360.4492"/><line style="stroke:#181818;stroke-width:1.0;" x1="557.5" x2="598.5" y1="360.4492" y2="360.4492"/><polygon fill="#181818" points="567.5,356.4492,557.5,360.4492,567.5,364.4492,563.5,360.4492" style="stroke:#181818;stroke-width:1.0;"/><text fill="#000000" font-family="sans-serif" font-size="13" lengthAdjust="spacing" textLength="134" x="563.5" y="342.5928">updatePlayerAnalysis()</text><path d="M709,292.7188 L709,400.7188 L908,400.7188 L908,302.7188 L898,292.7188 L709,292.7188 " fill="#FEFFDD" style="stroke:#181818;stroke-width:0.5;"/><path d="M898,292.7188 L898,302.7188 L908,302.7188 L898,292.7188 " fill="#FEFFDD" style="stroke:#181818;stroke-width:0.5;"/><text fill="#000000" font-family="sans-serif" font-size="13" lengthAdjust="spacing" textLength="118" x="715" y="311.2139">- Calculate win rates</text><text fill="#000000" font-family="sans-serif" font-size="13" lengthAdjust="spacing" textLength="127" x="715" y="327.5654">- Determine play style</text><text fill="#000000" font-family="sans-serif" font-size="13" lengthAdjust="spacing" textLength="178" x="715" y="343.917">- Process performance metrics</text><text fill="#000000" font-family="sans-serif" font-size="13" lengthAdjust="spacing" textLength="123" x="715" y="360.2686">- Track achievements</text><text fill="#000000" font-family="sans-serif" font-size="13" lengthAdjust="spacing" textLength="158" x="715" y="376.6201">- Analyze decision patterns</text><text fill="#000000" font-family="sans-serif" font-size="13" lengthAdjust="spacing" textLength="125" x="715" y="392.9717">- Update time metrics</text><polygon fill="#181818" points="358.5,424.1797,348.5,428.1797,358.5,432.1797,354.5,428.1797" style="stroke:#181818;stroke-width:1.0;"/><line style="stroke:#181818;stroke-width:1.0;stroke-dasharray:2.0,2.0;" x1="352.5" x2="550.5" y1="428.1797" y2="428.1797"/><text fill="#000000" font-family="sans-serif" font-size="13" lengthAdjust="spacing" textLength="134" x="382.5" y="423.3232">Emit statistics updates</text><line style="stroke:#181818;stroke-width:1.0;" x1="347.5" x2="389.5" y1="479.5586" y2="479.5586"/><line style="stroke:#181818;stroke-width:1.0;" x1="389.5" x2="389.5" y1="479.5586" y2="492.5586"/><line style="stroke:#181818;stroke-width:1.0;" x1="348.5" x2="389.5" y1="492.5586" y2="492.5586"/><polygon fill="#181818" points="358.5,488.5586,348.5,492.5586,358.5,496.5586,354.5,492.5586" style="stroke:#181818;stroke-width:1.0;"/><text fill="#000000" font-family="sans-serif" font-size="13" lengthAdjust="spacing" textLength="132" x="354.5" y="474.7021">Update UI components</text><path d="M498,441.1797 L498,516.1797 L661,516.1797 L661,451.1797 L651,441.1797 L498,441.1797 " fill="#FEFFDD" style="stroke:#181818;stroke-width:0.5;"/><path d="M651,441.1797 L651,451.1797 L661,451.1797 L651,441.1797 " fill="#FEFFDD" style="stroke:#181818;stroke-width:0.5;"/><text fill="#000000" font-family="sans-serif" font-size="13" lengthAdjust="spacing" textLength="112" x="504" y="459.6748">- Performance Card</text><text fill="#000000" font-family="sans-serif" font-size="13" lengthAdjust="spacing" textLength="125" x="504" y="476.0264">- Time Analytics Card</text><text fill="#000000" font-family="sans-serif" font-size="13" lengthAdjust="spacing" textLength="142" x="504" y="492.3779">- Decision Patterns Card</text><text fill="#000000" font-family="sans-serif" font-size="13" lengthAdjust="spacing" textLength="120" x="504" y="508.7295">- Achievements Card</text><path d="M10,528.5859 L71,528.5859 L71,536.9375 L61,546.9375 L10,546.9375 L10,528.5859 " fill="#EEEEEE" style="stroke:#000000;stroke-width:1.5;"/><rect fill="none" height="152.7578" style="stroke:#000000;stroke-width:1.5;" width="768.5" x="10" y="528.5859"/><text fill="#000000" font-family="sans-serif" font-size="13" font-weight="bold" lengthAdjust="spacing" textLength="16" x="25" y="543.0811">alt</text><text fill="#000000" font-family="sans-serif" font-size="11" font-weight="bold" lengthAdjust="spacing" textLength="91" x="86" y="542.0049">[Clear Statistics]</text><polygon fill="#181818" points="148,565.2891,158,569.2891,148,573.2891,152,569.2891" style="stroke:#181818;stroke-width:1.0;"/><line style="stroke:#181818;stroke-width:1.0;" x1="43" x2="154" y1="569.2891" y2="569.2891"/><text fill="#000000" font-family="sans-serif" font-size="13" lengthAdjust="spacing" textLength="93" x="55" y="564.4326">Reset Statistics</text><polygon fill="#181818" points="534.5,595.6406,544.5,599.6406,534.5,603.6406,538.5,599.6406" style="stroke:#181818;stroke-width:1.0;"/><line style="stroke:#181818;stroke-width:1.0;" x1="170" x2="540.5" y1="599.6406" y2="599.6406"/><text fill="#000000" font-family="sans-serif" font-size="13" lengthAdjust="spacing" textLength="78" x="319.25" y="594.7842">clearAllData()</text><polygon fill="#181818" points="697.5,625.9922,707.5,629.9922,697.5,633.9922,701.5,629.9922" style="stroke:#181818;stroke-width:1.0;"/><line style="stroke:#181818;stroke-width:1.0;" x1="556.5" x2="703.5" y1="629.9922" y2="629.9922"/><text fill="#000000" font-family="sans-serif" font-size="13" lengthAdjust="spacing" textLength="99" x="583.5" y="625.1357">Clear stored data</text><line style="stroke:#181818;stroke-width:1.0;" x1="556.5" x2="598.5" y1="665.3438" y2="665.3438"/><line style="stroke:#181818;stroke-width:1.0;" x1="598.5" x2="598.5" y1="665.3438" y2="678.3438"/><line style="stroke:#181818;stroke-width:1.0;" x1="551.5" x2="598.5" y1="678.3438" y2="678.3438"/><polygon fill="#181818" points="561.5,674.3438,551.5,678.3438,561.5,682.3438,557.5,678.3438" style="stroke:#181818;stroke-width:1.0;"/><text fill="#000000" font-family="sans-serif" font-size="13" lengthAdjust="spacing" textLength="98" x="563.5" y="660.4873">Reset local state</text><polygon fill="#181818" points="325.5,706.6953,335.5,710.6953,325.5,714.6953,329.5,710.6953" style="stroke:#181818;stroke-width:1.0;"/><line style="stroke:#181818;stroke-width:1.0;" x1="43" x2="331.5" y1="710.6953" y2="710.6953"/><text fill="#000000" font-family="sans-serif" font-size="13" lengthAdjust="spacing" textLength="124" x="128.25" y="705.8389">View detailed metrics</text><line style="stroke:#181818;stroke-width:1.0;" x1="347.5" x2="389.5" y1="767.0742" y2="767.0742"/><line style="stroke:#181818;stroke-width:1.0;" x1="389.5" x2="389.5" y1="767.0742" y2="780.0742"/><line style="stroke:#181818;stroke-width:1.0;" x1="342.5" x2="389.5" y1="780.0742" y2="780.0742"/><polygon fill="#181818" points="352.5,776.0742,342.5,780.0742,352.5,784.0742,348.5,780.0742" style="stroke:#181818;stroke-width:1.0;"/><text fill="#000000" font-family="sans-serif" font-size="13" lengthAdjust="spacing" textLength="136" x="354.5" y="762.2178">Show specific analytics</text><path d="M502,723.6953 L502,798.6953 L659,798.6953 L659,733.6953 L649,723.6953 L502,723.6953 " fill="#FEFFDD" style="stroke:#181818;stroke-width:0.5;"/><path d="M649,723.6953 L649,733.6953 L659,733.6953 L649,723.6953 " fill="#FEFFDD" style="stroke:#181818;stroke-width:0.5;"/><text fill="#000000" font-family="sans-serif" font-size="13" lengthAdjust="spacing" textLength="109" x="508" y="742.1904">- Risk taking levels</text><text fill="#000000" font-family="sans-serif" font-size="13" lengthAdjust="spacing" textLength="130" x="508" y="758.542">- Average rolls per turn</text><text fill="#000000" font-family="sans-serif" font-size="13" lengthAdjust="spacing" textLength="119" x="508" y="774.8936">- Banking thresholds</text><text fill="#000000" font-family="sans-serif" font-size="13" lengthAdjust="spacing" textLength="136" x="508" y="791.2451">- Achievement progress</text><!--SRC=[TLJ1Rjim3BtxAuYUsaE1OSSS1cJ9C1HO0QDPT-TarYOYIvwa9CY-VfJiMBAxvX9PV28V7v_aZsm6TDY3fpydCegUoNjiQQkvDQ3817ALdr4rki2A1pIXngPXqyBdJrM5AbW7jSQhe8UCWRj3mC1Ullr1EI9p1-WXRlhNfoLoQr1V8t2FlljjqJK9EtzzbFSPZV1rEV4IkCU01s574q1MLJKoXSSlDoeR-CLqWPmrjiHd33IJhQP5F3MJsi2JuS2e-IyLLEV3UQkQbtFP3IYhDQcmzV6RxbliALDuM76O68p7fOqD_B3OW8_h-3TJJr5up6KE8wGHAHP9Kb1Bak-BmlSFxq2dGGxJA5iQbES8CrR8EMwxK04ymWwrEkb8-C86d2nysj-JkAXdGp181g5wrPG2jRDA_0O3kJVhUXJ_GK_1nIvY_AT3TGHK7TEPUZ7Zk9qOYE0DAVPi3GmOf88Pew-9AmJkSp8o3KIoS_lB8NxhEHGAJktwgg7r21PJB39CHSKUolQ3DOdhIfwww78NFP5QZ3Hdx-Vz_QstUkejXxQ57kDkRWzrW9qcTAMNGNx_iVmBUGfhNE7ocqbZkgtMyIR9p2DefSfyhl3cIC8NpbkXKkwHWhOATTAV4kgTxD9VUMaBtTErRIWWQwbp6_T7KpfqzW9-46dVM07UL5yFweNz4G8Uu_EcHMazsUvCJfuQS79hasSXd9n9eQze4ZfqZdndTUFNauB1sLQ2fHUBFlD3iMvUdfv_]--></g></svg>