<?xml version="1.0" encoding="us-ascii" standalone="no"?><svg xmlns="http://www.w3.org/2000/svg" xmlns:xlink="http://www.w3.org/1999/xlink" contentStyleType="text/css" height="705px" preserveAspectRatio="none" style="width:1194px;height:705px;background:#FFFFFF;" version="1.1" viewBox="0 0 1194 705" width="1194px" zoomAndPan="magnify"><defs/><g><!--cluster Managers--><g id="cluster_Managers"><path d="M283.5,132 L356.5,132 A3.75,3.75 0 0 1 359,134.5 L366,157.6094 L494.5,157.6094 A2.5,2.5 0 0 1 497,160.1094 L497,639.5 A2.5,2.5 0 0 1 494.5,642 L283.5,642 A2.5,2.5 0 0 1 281,639.5 L281,134.5 A2.5,2.5 0 0 1 283.5,132 " fill="#FFFFE0" style="stroke:#000000;stroke-width:1.5;"/><line style="stroke:#000000;stroke-width:1.5;" x1="281" x2="366" y1="157.6094" y2="157.6094"/><text fill="#000000" font-family="sans-serif" font-size="14" font-weight="bold" lengthAdjust="spacing" textLength="70" x="286" y="149.5332">Managers</text></g><!--cluster Models--><g id="cluster_Models"><path d="M582.5,278 L637.5,278 A3.75,3.75 0 0 1 640,280.5 L647,303.6094 L1185,303.6094 A2.5,2.5 0 0 1 1187.5,306.1094 L1187.5,530.5 A2.5,2.5 0 0 1 1185,533 L582.5,533 A2.5,2.5 0 0 1 580,530.5 L580,280.5 A2.5,2.5 0 0 1 582.5,278 " fill="#D3D3D3" style="stroke:#000000;stroke-width:1.5;"/><line style="stroke:#000000;stroke-width:1.5;" x1="580" x2="647" y1="303.6094" y2="303.6094"/><text fill="#000000" font-family="sans-serif" font-size="14" font-weight="bold" lengthAdjust="spacing" textLength="52" x="585" y="295.5332">Models</text></g><!--cluster ViewModels--><g id="cluster_ViewModels"><path d="M8.5,269 L96.5,269 A3.75,3.75 0 0 1 99,271.5 L106,294.6094 L196.5,294.6094 A2.5,2.5 0 0 1 199,297.1094 L199,470.5 A2.5,2.5 0 0 1 196.5,473 L8.5,473 A2.5,2.5 0 0 1 6,470.5 L6,271.5 A2.5,2.5 0 0 1 8.5,269 " fill="#E0FFFF" style="stroke:#000000;stroke-width:1.5;"/><line style="stroke:#000000;stroke-width:1.5;" x1="6" x2="106" y1="294.6094" y2="294.6094"/><text fill="#000000" font-family="sans-serif" font-size="14" font-weight="bold" lengthAdjust="spacing" textLength="85" x="11" y="286.5332">ViewModels</text></g><!--cluster Data Components--><g id="cluster_Data Components"><path d="M295.5,6 L422.5,6 A3.75,3.75 0 0 1 425,8.5 L432,31.6094 L783,31.6094 A2.5,2.5 0 0 1 785.5,34.1094 L785.5,105.5 A2.5,2.5 0 0 1 783,108 L295.5,108 A2.5,2.5 0 0 1 293,105.5 L293,8.5 A2.5,2.5 0 0 1 295.5,6 " fill="#ADD8E6" style="stroke:#000000;stroke-width:1.5;"/><line style="stroke:#000000;stroke-width:1.5;" x1="293" x2="432" y1="31.6094" y2="31.6094"/><text fill="#000000" font-family="sans-serif" font-size="14" font-weight="bold" lengthAdjust="spacing" textLength="124" x="298" y="23.5332">Data Components</text></g><!--class MyGameManager--><g id="elem_MyGameManager"><rect codeLine="19" fill="#90EE90" height="48" id="MyGameManager" rx="2.5" ry="2.5" style="stroke:#000000;stroke-width:0.5;" width="146" x="316" y="221"/><ellipse cx="331" cy="237" fill="#ADD1B2" rx="11" ry="11" style="stroke:#181818;stroke-width:1.0;"/><path d="M333.7656,232.875 Q333.9219,232.6563 334.1094,232.5469 Q334.2969,232.4375 334.5156,232.4375 Q334.8906,232.4375 335.125,232.7031 Q335.3594,232.9531 335.3594,233.5625 L335.3594,235.0156 Q335.3594,235.625 335.125,235.8906 Q334.8906,236.1563 334.5156,236.1563 Q334.1719,236.1563 333.9688,235.9531 Q333.7656,235.7656 333.6563,235.25 Q333.6094,234.8906 333.4219,234.7031 Q333.0938,234.3281 332.4844,234.1094 Q331.875,233.8906 331.25,233.8906 Q330.4844,233.8906 329.8438,234.2188 Q329.2188,234.5469 328.7188,235.2969 Q328.2344,236.0469 328.2344,237.0781 L328.2344,238.1719 Q328.2344,239.4063 329.125,240.2344 Q330.0156,241.0469 331.6094,241.0469 Q332.5469,241.0469 333.2031,240.7969 Q333.5938,240.6406 334.0156,240.2031 Q334.2813,239.9375 334.4219,239.8594 Q334.5781,239.7813 334.7813,239.7813 Q335.1094,239.7813 335.3594,240.0469 Q335.625,240.2969 335.625,240.6406 Q335.625,240.9844 335.2813,241.3906 Q334.7813,241.9688 333.9844,242.2969 Q332.9063,242.75 331.6094,242.75 Q330.0938,242.75 328.8906,242.125 Q327.9063,241.625 327.2188,240.5625 Q326.5313,239.4844 326.5313,238.2031 L326.5313,237.0469 Q326.5313,235.7188 327.1406,234.5781 Q327.7656,233.4219 328.8594,232.8125 Q329.9531,232.1875 331.1875,232.1875 Q331.9219,232.1875 332.5625,232.3594 Q333.2188,232.5156 333.7656,232.875 Z " fill="#000000"/><text fill="#000000" font-family="sans-serif" font-size="14" lengthAdjust="spacing" textLength="112" x="346" y="242.7285">MyGameManager</text><line style="stroke:#000000;stroke-width:0.5;" x1="317" x2="461" y1="253" y2="253"/><line style="stroke:#000000;stroke-width:0.5;" x1="317" x2="461" y1="261" y2="261"/></g><!--class PigGameManager--><g id="elem_PigGameManager"><rect codeLine="20" fill="#90EE90" height="48" id="PigGameManager" rx="2.5" ry="2.5" style="stroke:#000000;stroke-width:0.5;" width="148" x="315" y="272"/><ellipse cx="330" cy="288" fill="#ADD1B2" rx="11" ry="11" style="stroke:#181818;stroke-width:1.0;"/><path d="M332.7656,283.875 Q332.9219,283.6563 333.1094,283.5469 Q333.2969,283.4375 333.5156,283.4375 Q333.8906,283.4375 334.125,283.7031 Q334.3594,283.9531 334.3594,284.5625 L334.3594,286.0156 Q334.3594,286.625 334.125,286.8906 Q333.8906,287.1563 333.5156,287.1563 Q333.1719,287.1563 332.9688,286.9531 Q332.7656,286.7656 332.6563,286.25 Q332.6094,285.8906 332.4219,285.7031 Q332.0938,285.3281 331.4844,285.1094 Q330.875,284.8906 330.25,284.8906 Q329.4844,284.8906 328.8438,285.2188 Q328.2188,285.5469 327.7188,286.2969 Q327.2344,287.0469 327.2344,288.0781 L327.2344,289.1719 Q327.2344,290.4063 328.125,291.2344 Q329.0156,292.0469 330.6094,292.0469 Q331.5469,292.0469 332.2031,291.7969 Q332.5938,291.6406 333.0156,291.2031 Q333.2813,290.9375 333.4219,290.8594 Q333.5781,290.7813 333.7813,290.7813 Q334.1094,290.7813 334.3594,291.0469 Q334.625,291.2969 334.625,291.6406 Q334.625,291.9844 334.2813,292.3906 Q333.7813,292.9688 332.9844,293.2969 Q331.9063,293.75 330.6094,293.75 Q329.0938,293.75 327.8906,293.125 Q326.9063,292.625 326.2188,291.5625 Q325.5313,290.4844 325.5313,289.2031 L325.5313,288.0469 Q325.5313,286.7188 326.1406,285.5781 Q326.7656,284.4219 327.8594,283.8125 Q328.9531,283.1875 330.1875,283.1875 Q330.9219,283.1875 331.5625,283.3594 Q332.2188,283.5156 332.7656,283.875 Z " fill="#000000"/><text fill="#000000" font-family="sans-serif" font-size="14" lengthAdjust="spacing" textLength="114" x="345" y="293.7285">PigGameManager</text><line style="stroke:#000000;stroke-width:0.5;" x1="316" x2="462" y1="304" y2="304"/><line style="stroke:#000000;stroke-width:0.5;" x1="316" x2="462" y1="312" y2="312"/></g><!--class GreedGameManager--><g id="elem_GreedGameManager"><rect codeLine="21" fill="#90EE90" height="48" id="GreedGameManager" rx="2.5" ry="2.5" style="stroke:#000000;stroke-width:0.5;" width="168" x="305" y="323"/><ellipse cx="320" cy="339" fill="#ADD1B2" rx="11" ry="11" style="stroke:#181818;stroke-width:1.0;"/><path d="M322.7656,334.875 Q322.9219,334.6563 323.1094,334.5469 Q323.2969,334.4375 323.5156,334.4375 Q323.8906,334.4375 324.125,334.7031 Q324.3594,334.9531 324.3594,335.5625 L324.3594,337.0156 Q324.3594,337.625 324.125,337.8906 Q323.8906,338.1563 323.5156,338.1563 Q323.1719,338.1563 322.9688,337.9531 Q322.7656,337.7656 322.6563,337.25 Q322.6094,336.8906 322.4219,336.7031 Q322.0938,336.3281 321.4844,336.1094 Q320.875,335.8906 320.25,335.8906 Q319.4844,335.8906 318.8438,336.2188 Q318.2188,336.5469 317.7188,337.2969 Q317.2344,338.0469 317.2344,339.0781 L317.2344,340.1719 Q317.2344,341.4063 318.125,342.2344 Q319.0156,343.0469 320.6094,343.0469 Q321.5469,343.0469 322.2031,342.7969 Q322.5938,342.6406 323.0156,342.2031 Q323.2813,341.9375 323.4219,341.8594 Q323.5781,341.7813 323.7813,341.7813 Q324.1094,341.7813 324.3594,342.0469 Q324.625,342.2969 324.625,342.6406 Q324.625,342.9844 324.2813,343.3906 Q323.7813,343.9688 322.9844,344.2969 Q321.9063,344.75 320.6094,344.75 Q319.0938,344.75 317.8906,344.125 Q316.9063,343.625 316.2188,342.5625 Q315.5313,341.4844 315.5313,340.2031 L315.5313,339.0469 Q315.5313,337.7188 316.1406,336.5781 Q316.7656,335.4219 317.8594,334.8125 Q318.9531,334.1875 320.1875,334.1875 Q320.9219,334.1875 321.5625,334.3594 Q322.2188,334.5156 322.7656,334.875 Z " fill="#000000"/><text fill="#000000" font-family="sans-serif" font-size="14" lengthAdjust="spacing" textLength="134" x="335" y="344.7285">GreedGameManager</text><line style="stroke:#000000;stroke-width:0.5;" x1="306" x2="472" y1="355" y2="355"/><line style="stroke:#000000;stroke-width:0.5;" x1="306" x2="472" y1="363" y2="363"/></g><!--class BalutGameManager--><g id="elem_BalutGameManager"><rect codeLine="22" fill="#90EE90" height="48" id="BalutGameManager" rx="2.5" ry="2.5" style="stroke:#000000;stroke-width:0.5;" width="160" x="309" y="374"/><ellipse cx="324" cy="390" fill="#ADD1B2" rx="11" ry="11" style="stroke:#181818;stroke-width:1.0;"/><path d="M326.7656,385.875 Q326.9219,385.6563 327.1094,385.5469 Q327.2969,385.4375 327.5156,385.4375 Q327.8906,385.4375 328.125,385.7031 Q328.3594,385.9531 328.3594,386.5625 L328.3594,388.0156 Q328.3594,388.625 328.125,388.8906 Q327.8906,389.1563 327.5156,389.1563 Q327.1719,389.1563 326.9688,388.9531 Q326.7656,388.7656 326.6563,388.25 Q326.6094,387.8906 326.4219,387.7031 Q326.0938,387.3281 325.4844,387.1094 Q324.875,386.8906 324.25,386.8906 Q323.4844,386.8906 322.8438,387.2188 Q322.2188,387.5469 321.7188,388.2969 Q321.2344,389.0469 321.2344,390.0781 L321.2344,391.1719 Q321.2344,392.4063 322.125,393.2344 Q323.0156,394.0469 324.6094,394.0469 Q325.5469,394.0469 326.2031,393.7969 Q326.5938,393.6406 327.0156,393.2031 Q327.2813,392.9375 327.4219,392.8594 Q327.5781,392.7813 327.7813,392.7813 Q328.1094,392.7813 328.3594,393.0469 Q328.625,393.2969 328.625,393.6406 Q328.625,393.9844 328.2813,394.3906 Q327.7813,394.9688 326.9844,395.2969 Q325.9063,395.75 324.6094,395.75 Q323.0938,395.75 321.8906,395.125 Q320.9063,394.625 320.2188,393.5625 Q319.5313,392.4844 319.5313,391.2031 L319.5313,390.0469 Q319.5313,388.7188 320.1406,387.5781 Q320.7656,386.4219 321.8594,385.8125 Q322.9531,385.1875 324.1875,385.1875 Q324.9219,385.1875 325.5625,385.3594 Q326.2188,385.5156 326.7656,385.875 Z " fill="#000000"/><text fill="#000000" font-family="sans-serif" font-size="14" lengthAdjust="spacing" textLength="126" x="339" y="395.7285">BalutGameManager</text><line style="stroke:#000000;stroke-width:0.5;" x1="310" x2="468" y1="406" y2="406"/><line style="stroke:#000000;stroke-width:0.5;" x1="310" x2="468" y1="414" y2="414"/></g><!--class DiceManager--><g id="elem_DiceManager"><rect codeLine="24" fill="#90EE90" height="48" id="DiceManager" rx="2.5" ry="2.5" style="stroke:#000000;stroke-width:0.5;" width="118" x="330" y="578"/><ellipse cx="345" cy="594" fill="#ADD1B2" rx="11" ry="11" style="stroke:#181818;stroke-width:1.0;"/><path d="M347.7656,589.875 Q347.9219,589.6563 348.1094,589.5469 Q348.2969,589.4375 348.5156,589.4375 Q348.8906,589.4375 349.125,589.7031 Q349.3594,589.9531 349.3594,590.5625 L349.3594,592.0156 Q349.3594,592.625 349.125,592.8906 Q348.8906,593.1563 348.5156,593.1563 Q348.1719,593.1563 347.9688,592.9531 Q347.7656,592.7656 347.6563,592.25 Q347.6094,591.8906 347.4219,591.7031 Q347.0938,591.3281 346.4844,591.1094 Q345.875,590.8906 345.25,590.8906 Q344.4844,590.8906 343.8438,591.2188 Q343.2188,591.5469 342.7188,592.2969 Q342.2344,593.0469 342.2344,594.0781 L342.2344,595.1719 Q342.2344,596.4063 343.125,597.2344 Q344.0156,598.0469 345.6094,598.0469 Q346.5469,598.0469 347.2031,597.7969 Q347.5938,597.6406 348.0156,597.2031 Q348.2813,596.9375 348.4219,596.8594 Q348.5781,596.7813 348.7813,596.7813 Q349.1094,596.7813 349.3594,597.0469 Q349.625,597.2969 349.625,597.6406 Q349.625,597.9844 349.2813,598.3906 Q348.7813,598.9688 347.9844,599.2969 Q346.9063,599.75 345.6094,599.75 Q344.0938,599.75 342.8906,599.125 Q341.9063,598.625 341.2188,597.5625 Q340.5313,596.4844 340.5313,595.2031 L340.5313,594.0469 Q340.5313,592.7188 341.1406,591.5781 Q341.7656,590.4219 342.8594,589.8125 Q343.9531,589.1875 345.1875,589.1875 Q345.9219,589.1875 346.5625,589.3594 Q347.2188,589.5156 347.7656,589.875 Z " fill="#000000"/><text fill="#000000" font-family="sans-serif" font-size="14" lengthAdjust="spacing" textLength="84" x="360" y="599.7285">DiceManager</text><line style="stroke:#000000;stroke-width:0.5;" x1="331" x2="447" y1="610" y2="610"/><line style="stroke:#000000;stroke-width:0.5;" x1="331" x2="447" y1="618" y2="618"/></g><!--class DataStoreManager--><g id="elem_DataStoreManager"><rect codeLine="25" fill="#90EE90" height="48" id="DataStoreManager" rx="2.5" ry="2.5" style="stroke:#000000;stroke-width:0.5;" width="154" x="312" y="170"/><ellipse cx="327" cy="186" fill="#ADD1B2" rx="11" ry="11" style="stroke:#181818;stroke-width:1.0;"/><path d="M329.7656,181.875 Q329.9219,181.6563 330.1094,181.5469 Q330.2969,181.4375 330.5156,181.4375 Q330.8906,181.4375 331.125,181.7031 Q331.3594,181.9531 331.3594,182.5625 L331.3594,184.0156 Q331.3594,184.625 331.125,184.8906 Q330.8906,185.1563 330.5156,185.1563 Q330.1719,185.1563 329.9688,184.9531 Q329.7656,184.7656 329.6563,184.25 Q329.6094,183.8906 329.4219,183.7031 Q329.0938,183.3281 328.4844,183.1094 Q327.875,182.8906 327.25,182.8906 Q326.4844,182.8906 325.8438,183.2188 Q325.2188,183.5469 324.7188,184.2969 Q324.2344,185.0469 324.2344,186.0781 L324.2344,187.1719 Q324.2344,188.4063 325.125,189.2344 Q326.0156,190.0469 327.6094,190.0469 Q328.5469,190.0469 329.2031,189.7969 Q329.5938,189.6406 330.0156,189.2031 Q330.2813,188.9375 330.4219,188.8594 Q330.5781,188.7813 330.7813,188.7813 Q331.1094,188.7813 331.3594,189.0469 Q331.625,189.2969 331.625,189.6406 Q331.625,189.9844 331.2813,190.3906 Q330.7813,190.9688 329.9844,191.2969 Q328.9063,191.75 327.6094,191.75 Q326.0938,191.75 324.8906,191.125 Q323.9063,190.625 323.2188,189.5625 Q322.5313,188.4844 322.5313,187.2031 L322.5313,186.0469 Q322.5313,184.7188 323.1406,183.5781 Q323.7656,182.4219 324.8594,181.8125 Q325.9531,181.1875 327.1875,181.1875 Q327.9219,181.1875 328.5625,181.3594 Q329.2188,181.5156 329.7656,181.875 Z " fill="#000000"/><text fill="#000000" font-family="sans-serif" font-size="14" lengthAdjust="spacing" textLength="120" x="342" y="191.7285">DataStoreManager</text><line style="stroke:#000000;stroke-width:0.5;" x1="313" x2="465" y1="202" y2="202"/><line style="stroke:#000000;stroke-width:0.5;" x1="313" x2="465" y1="210" y2="210"/></g><!--class SettingsManager--><g id="elem_SettingsManager"><rect codeLine="26" fill="#90EE90" height="48" id="SettingsManager" rx="2.5" ry="2.5" style="stroke:#000000;stroke-width:0.5;" width="141" x="318.5" y="476"/><ellipse cx="333.5" cy="492" fill="#ADD1B2" rx="11" ry="11" style="stroke:#181818;stroke-width:1.0;"/><path d="M336.2656,487.875 Q336.4219,487.6563 336.6094,487.5469 Q336.7969,487.4375 337.0156,487.4375 Q337.3906,487.4375 337.625,487.7031 Q337.8594,487.9531 337.8594,488.5625 L337.8594,490.0156 Q337.8594,490.625 337.625,490.8906 Q337.3906,491.1563 337.0156,491.1563 Q336.6719,491.1563 336.4688,490.9531 Q336.2656,490.7656 336.1563,490.25 Q336.1094,489.8906 335.9219,489.7031 Q335.5938,489.3281 334.9844,489.1094 Q334.375,488.8906 333.75,488.8906 Q332.9844,488.8906 332.3438,489.2188 Q331.7188,489.5469 331.2188,490.2969 Q330.7344,491.0469 330.7344,492.0781 L330.7344,493.1719 Q330.7344,494.4063 331.625,495.2344 Q332.5156,496.0469 334.1094,496.0469 Q335.0469,496.0469 335.7031,495.7969 Q336.0938,495.6406 336.5156,495.2031 Q336.7813,494.9375 336.9219,494.8594 Q337.0781,494.7813 337.2813,494.7813 Q337.6094,494.7813 337.8594,495.0469 Q338.125,495.2969 338.125,495.6406 Q338.125,495.9844 337.7813,496.3906 Q337.2813,496.9688 336.4844,497.2969 Q335.4063,497.75 334.1094,497.75 Q332.5938,497.75 331.3906,497.125 Q330.4063,496.625 329.7188,495.5625 Q329.0313,494.4844 329.0313,493.2031 L329.0313,492.0469 Q329.0313,490.7188 329.6406,489.5781 Q330.2656,488.4219 331.3594,487.8125 Q332.4531,487.1875 333.6875,487.1875 Q334.4219,487.1875 335.0625,487.3594 Q335.7188,487.5156 336.2656,487.875 Z " fill="#000000"/><text fill="#000000" font-family="sans-serif" font-size="14" lengthAdjust="spacing" textLength="107" x="348.5" y="497.7285">SettingsManager</text><line style="stroke:#000000;stroke-width:0.5;" x1="319.5" x2="458.5" y1="508" y2="508"/><line style="stroke:#000000;stroke-width:0.5;" x1="319.5" x2="458.5" y1="516" y2="516"/></g><!--class ShakeDetectorManager--><g id="elem_ShakeDetectorManager"><rect codeLine="27" fill="#90EE90" height="48" id="ShakeDetectorManager" rx="2.5" ry="2.5" style="stroke:#000000;stroke-width:0.5;" width="184" x="297" y="527"/><ellipse cx="312" cy="543" fill="#ADD1B2" rx="11" ry="11" style="stroke:#181818;stroke-width:1.0;"/><path d="M314.7656,538.875 Q314.9219,538.6563 315.1094,538.5469 Q315.2969,538.4375 315.5156,538.4375 Q315.8906,538.4375 316.125,538.7031 Q316.3594,538.9531 316.3594,539.5625 L316.3594,541.0156 Q316.3594,541.625 316.125,541.8906 Q315.8906,542.1563 315.5156,542.1563 Q315.1719,542.1563 314.9688,541.9531 Q314.7656,541.7656 314.6563,541.25 Q314.6094,540.8906 314.4219,540.7031 Q314.0938,540.3281 313.4844,540.1094 Q312.875,539.8906 312.25,539.8906 Q311.4844,539.8906 310.8438,540.2188 Q310.2188,540.5469 309.7188,541.2969 Q309.2344,542.0469 309.2344,543.0781 L309.2344,544.1719 Q309.2344,545.4063 310.125,546.2344 Q311.0156,547.0469 312.6094,547.0469 Q313.5469,547.0469 314.2031,546.7969 Q314.5938,546.6406 315.0156,546.2031 Q315.2813,545.9375 315.4219,545.8594 Q315.5781,545.7813 315.7813,545.7813 Q316.1094,545.7813 316.3594,546.0469 Q316.625,546.2969 316.625,546.6406 Q316.625,546.9844 316.2813,547.3906 Q315.7813,547.9688 314.9844,548.2969 Q313.9063,548.75 312.6094,548.75 Q311.0938,548.75 309.8906,548.125 Q308.9063,547.625 308.2188,546.5625 Q307.5313,545.4844 307.5313,544.2031 L307.5313,543.0469 Q307.5313,541.7188 308.1406,540.5781 Q308.7656,539.4219 309.8594,538.8125 Q310.9531,538.1875 312.1875,538.1875 Q312.9219,538.1875 313.5625,538.3594 Q314.2188,538.5156 314.7656,538.875 Z " fill="#000000"/><text fill="#000000" font-family="sans-serif" font-size="14" lengthAdjust="spacing" textLength="150" x="327" y="548.7285">ShakeDetectorManager</text><line style="stroke:#000000;stroke-width:0.5;" x1="298" x2="480" y1="559" y2="559"/><line style="stroke:#000000;stroke-width:0.5;" x1="298" x2="480" y1="567" y2="567"/></g><!--class StatisticsManager--><g id="elem_StatisticsManager"><rect codeLine="28" fill="#90EE90" height="48" id="StatisticsManager" rx="2.5" ry="2.5" style="stroke:#000000;stroke-width:0.5;" width="146" x="316" y="425"/><ellipse cx="331" cy="441" fill="#ADD1B2" rx="11" ry="11" style="stroke:#181818;stroke-width:1.0;"/><path d="M333.7656,436.875 Q333.9219,436.6563 334.1094,436.5469 Q334.2969,436.4375 334.5156,436.4375 Q334.8906,436.4375 335.125,436.7031 Q335.3594,436.9531 335.3594,437.5625 L335.3594,439.0156 Q335.3594,439.625 335.125,439.8906 Q334.8906,440.1563 334.5156,440.1563 Q334.1719,440.1563 333.9688,439.9531 Q333.7656,439.7656 333.6563,439.25 Q333.6094,438.8906 333.4219,438.7031 Q333.0938,438.3281 332.4844,438.1094 Q331.875,437.8906 331.25,437.8906 Q330.4844,437.8906 329.8438,438.2188 Q329.2188,438.5469 328.7188,439.2969 Q328.2344,440.0469 328.2344,441.0781 L328.2344,442.1719 Q328.2344,443.4063 329.125,444.2344 Q330.0156,445.0469 331.6094,445.0469 Q332.5469,445.0469 333.2031,444.7969 Q333.5938,444.6406 334.0156,444.2031 Q334.2813,443.9375 334.4219,443.8594 Q334.5781,443.7813 334.7813,443.7813 Q335.1094,443.7813 335.3594,444.0469 Q335.625,444.2969 335.625,444.6406 Q335.625,444.9844 335.2813,445.3906 Q334.7813,445.9688 333.9844,446.2969 Q332.9063,446.75 331.6094,446.75 Q330.0938,446.75 328.8906,446.125 Q327.9063,445.625 327.2188,444.5625 Q326.5313,443.4844 326.5313,442.2031 L326.5313,441.0469 Q326.5313,439.7188 327.1406,438.5781 Q327.7656,437.4219 328.8594,436.8125 Q329.9531,436.1875 331.1875,436.1875 Q331.9219,436.1875 332.5625,436.3594 Q333.2188,436.5156 333.7656,436.875 Z " fill="#000000"/><text fill="#000000" font-family="sans-serif" font-size="14" lengthAdjust="spacing" textLength="112" x="346" y="446.7285">StatisticsManager</text><line style="stroke:#000000;stroke-width:0.5;" x1="317" x2="461" y1="457" y2="457"/><line style="stroke:#000000;stroke-width:0.5;" x1="317" x2="461" y1="465" y2="465"/></g><!--class GameState--><g id="elem_GameState"><rect codeLine="33" fill="#90EE90" height="48" id="GameState" rx="2.5" ry="2.5" style="stroke:#000000;stroke-width:0.5;" width="105" x="624.5" y="316"/><ellipse cx="639.5" cy="332" fill="#ADD1B2" rx="11" ry="11" style="stroke:#181818;stroke-width:1.0;"/><path d="M642.2656,327.875 Q642.4219,327.6563 642.6094,327.5469 Q642.7969,327.4375 643.0156,327.4375 Q643.3906,327.4375 643.625,327.7031 Q643.8594,327.9531 643.8594,328.5625 L643.8594,330.0156 Q643.8594,330.625 643.625,330.8906 Q643.3906,331.1563 643.0156,331.1563 Q642.6719,331.1563 642.4688,330.9531 Q642.2656,330.7656 642.1563,330.25 Q642.1094,329.8906 641.9219,329.7031 Q641.5938,329.3281 640.9844,329.1094 Q640.375,328.8906 639.75,328.8906 Q638.9844,328.8906 638.3438,329.2188 Q637.7188,329.5469 637.2188,330.2969 Q636.7344,331.0469 636.7344,332.0781 L636.7344,333.1719 Q636.7344,334.4063 637.625,335.2344 Q638.5156,336.0469 640.1094,336.0469 Q641.0469,336.0469 641.7031,335.7969 Q642.0938,335.6406 642.5156,335.2031 Q642.7813,334.9375 642.9219,334.8594 Q643.0781,334.7813 643.2813,334.7813 Q643.6094,334.7813 643.8594,335.0469 Q644.125,335.2969 644.125,335.6406 Q644.125,335.9844 643.7813,336.3906 Q643.2813,336.9688 642.4844,337.2969 Q641.4063,337.75 640.1094,337.75 Q638.5938,337.75 637.3906,337.125 Q636.4063,336.625 635.7188,335.5625 Q635.0313,334.4844 635.0313,333.2031 L635.0313,332.0469 Q635.0313,330.7188 635.6406,329.5781 Q636.2656,328.4219 637.3594,327.8125 Q638.4531,327.1875 639.6875,327.1875 Q640.4219,327.1875 641.0625,327.3594 Q641.7188,327.5156 642.2656,327.875 Z " fill="#000000"/><text fill="#000000" font-family="sans-serif" font-size="14" lengthAdjust="spacing" textLength="71" x="654.5" y="337.7285">GameState</text><line style="stroke:#000000;stroke-width:0.5;" x1="625.5" x2="728.5" y1="348" y2="348"/><line style="stroke:#000000;stroke-width:0.5;" x1="625.5" x2="728.5" y1="356" y2="356"/></g><!--class PlayerAnalysis--><g id="elem_PlayerAnalysis"><rect codeLine="34" fill="#90EE90" height="48" id="PlayerAnalysis" rx="2.5" ry="2.5" style="stroke:#000000;stroke-width:0.5;" width="126" x="865.5" y="441"/><ellipse cx="880.5" cy="457" fill="#ADD1B2" rx="11" ry="11" style="stroke:#181818;stroke-width:1.0;"/><path d="M883.2656,452.875 Q883.4219,452.6563 883.6094,452.5469 Q883.7969,452.4375 884.0156,452.4375 Q884.3906,452.4375 884.625,452.7031 Q884.8594,452.9531 884.8594,453.5625 L884.8594,455.0156 Q884.8594,455.625 884.625,455.8906 Q884.3906,456.1563 884.0156,456.1563 Q883.6719,456.1563 883.4688,455.9531 Q883.2656,455.7656 883.1563,455.25 Q883.1094,454.8906 882.9219,454.7031 Q882.5938,454.3281 881.9844,454.1094 Q881.375,453.8906 880.75,453.8906 Q879.9844,453.8906 879.3438,454.2188 Q878.7188,454.5469 878.2188,455.2969 Q877.7344,456.0469 877.7344,457.0781 L877.7344,458.1719 Q877.7344,459.4063 878.625,460.2344 Q879.5156,461.0469 881.1094,461.0469 Q882.0469,461.0469 882.7031,460.7969 Q883.0938,460.6406 883.5156,460.2031 Q883.7813,459.9375 883.9219,459.8594 Q884.0781,459.7813 884.2813,459.7813 Q884.6094,459.7813 884.8594,460.0469 Q885.125,460.2969 885.125,460.6406 Q885.125,460.9844 884.7813,461.3906 Q884.2813,461.9688 883.4844,462.2969 Q882.4063,462.75 881.1094,462.75 Q879.5938,462.75 878.3906,462.125 Q877.4063,461.625 876.7188,460.5625 Q876.0313,459.4844 876.0313,458.2031 L876.0313,457.0469 Q876.0313,455.7188 876.6406,454.5781 Q877.2656,453.4219 878.3594,452.8125 Q879.4531,452.1875 880.6875,452.1875 Q881.4219,452.1875 882.0625,452.3594 Q882.7188,452.5156 883.2656,452.875 Z " fill="#000000"/><text fill="#000000" font-family="sans-serif" font-size="14" lengthAdjust="spacing" textLength="92" x="895.5" y="462.7285">PlayerAnalysis</text><line style="stroke:#000000;stroke-width:0.5;" x1="866.5" x2="990.5" y1="473" y2="473"/><line style="stroke:#000000;stroke-width:0.5;" x1="866.5" x2="990.5" y1="481" y2="481"/></g><!--class DecisionPatterns--><g id="elem_DecisionPatterns"><rect codeLine="35" fill="#90EE90" height="48" id="DecisionPatterns" rx="2.5" ry="2.5" style="stroke:#000000;stroke-width:0.5;" width="141" x="606.5" y="367"/><ellipse cx="621.5" cy="383" fill="#ADD1B2" rx="11" ry="11" style="stroke:#181818;stroke-width:1.0;"/><path d="M624.2656,378.875 Q624.4219,378.6563 624.6094,378.5469 Q624.7969,378.4375 625.0156,378.4375 Q625.3906,378.4375 625.625,378.7031 Q625.8594,378.9531 625.8594,379.5625 L625.8594,381.0156 Q625.8594,381.625 625.625,381.8906 Q625.3906,382.1563 625.0156,382.1563 Q624.6719,382.1563 624.4688,381.9531 Q624.2656,381.7656 624.1563,381.25 Q624.1094,380.8906 623.9219,380.7031 Q623.5938,380.3281 622.9844,380.1094 Q622.375,379.8906 621.75,379.8906 Q620.9844,379.8906 620.3438,380.2188 Q619.7188,380.5469 619.2188,381.2969 Q618.7344,382.0469 618.7344,383.0781 L618.7344,384.1719 Q618.7344,385.4063 619.625,386.2344 Q620.5156,387.0469 622.1094,387.0469 Q623.0469,387.0469 623.7031,386.7969 Q624.0938,386.6406 624.5156,386.2031 Q624.7813,385.9375 624.9219,385.8594 Q625.0781,385.7813 625.2813,385.7813 Q625.6094,385.7813 625.8594,386.0469 Q626.125,386.2969 626.125,386.6406 Q626.125,386.9844 625.7813,387.3906 Q625.2813,387.9688 624.4844,388.2969 Q623.4063,388.75 622.1094,388.75 Q620.5938,388.75 619.3906,388.125 Q618.4063,387.625 617.7188,386.5625 Q617.0313,385.4844 617.0313,384.2031 L617.0313,383.0469 Q617.0313,381.7188 617.6406,380.5781 Q618.2656,379.4219 619.3594,378.8125 Q620.4531,378.1875 621.6875,378.1875 Q622.4219,378.1875 623.0625,378.3594 Q623.7188,378.5156 624.2656,378.875 Z " fill="#000000"/><text fill="#000000" font-family="sans-serif" font-size="14" lengthAdjust="spacing" textLength="107" x="636.5" y="388.7285">DecisionPatterns</text><line style="stroke:#000000;stroke-width:0.5;" x1="607.5" x2="746.5" y1="399" y2="399"/><line style="stroke:#000000;stroke-width:0.5;" x1="607.5" x2="746.5" y1="407" y2="407"/></g><!--class WinRate--><g id="elem_WinRate"><rect codeLine="36" fill="#90EE90" height="48" id="WinRate" rx="2.5" ry="2.5" style="stroke:#000000;stroke-width:0.5;" width="88" x="884.5" y="390"/><ellipse cx="899.5" cy="406" fill="#ADD1B2" rx="11" ry="11" style="stroke:#181818;stroke-width:1.0;"/><path d="M902.2656,401.875 Q902.4219,401.6563 902.6094,401.5469 Q902.7969,401.4375 903.0156,401.4375 Q903.3906,401.4375 903.625,401.7031 Q903.8594,401.9531 903.8594,402.5625 L903.8594,404.0156 Q903.8594,404.625 903.625,404.8906 Q903.3906,405.1563 903.0156,405.1563 Q902.6719,405.1563 902.4688,404.9531 Q902.2656,404.7656 902.1563,404.25 Q902.1094,403.8906 901.9219,403.7031 Q901.5938,403.3281 900.9844,403.1094 Q900.375,402.8906 899.75,402.8906 Q898.9844,402.8906 898.3438,403.2188 Q897.7188,403.5469 897.2188,404.2969 Q896.7344,405.0469 896.7344,406.0781 L896.7344,407.1719 Q896.7344,408.4063 897.625,409.2344 Q898.5156,410.0469 900.1094,410.0469 Q901.0469,410.0469 901.7031,409.7969 Q902.0938,409.6406 902.5156,409.2031 Q902.7813,408.9375 902.9219,408.8594 Q903.0781,408.7813 903.2813,408.7813 Q903.6094,408.7813 903.8594,409.0469 Q904.125,409.2969 904.125,409.6406 Q904.125,409.9844 903.7813,410.3906 Q903.2813,410.9688 902.4844,411.2969 Q901.4063,411.75 900.1094,411.75 Q898.5938,411.75 897.3906,411.125 Q896.4063,410.625 895.7188,409.5625 Q895.0313,408.4844 895.0313,407.2031 L895.0313,406.0469 Q895.0313,404.7188 895.6406,403.5781 Q896.2656,402.4219 897.3594,401.8125 Q898.4531,401.1875 899.6875,401.1875 Q900.4219,401.1875 901.0625,401.3594 Q901.7188,401.5156 902.2656,401.875 Z " fill="#000000"/><text fill="#000000" font-family="sans-serif" font-size="14" lengthAdjust="spacing" textLength="54" x="914.5" y="411.7285">WinRate</text><line style="stroke:#000000;stroke-width:0.5;" x1="885.5" x2="971.5" y1="422" y2="422"/><line style="stroke:#000000;stroke-width:0.5;" x1="885.5" x2="971.5" y1="430" y2="430"/></g><!--class TimeMetrics--><g id="elem_TimeMetrics"><rect codeLine="37" fill="#90EE90" height="48" id="TimeMetrics" rx="2.5" ry="2.5" style="stroke:#000000;stroke-width:0.5;" width="110" x="1061.5" y="441"/><ellipse cx="1076.5" cy="457" fill="#ADD1B2" rx="11" ry="11" style="stroke:#181818;stroke-width:1.0;"/><path d="M1079.2656,452.875 Q1079.4219,452.6563 1079.6094,452.5469 Q1079.7969,452.4375 1080.0156,452.4375 Q1080.3906,452.4375 1080.625,452.7031 Q1080.8594,452.9531 1080.8594,453.5625 L1080.8594,455.0156 Q1080.8594,455.625 1080.625,455.8906 Q1080.3906,456.1563 1080.0156,456.1563 Q1079.6719,456.1563 1079.4688,455.9531 Q1079.2656,455.7656 1079.1563,455.25 Q1079.1094,454.8906 1078.9219,454.7031 Q1078.5938,454.3281 1077.9844,454.1094 Q1077.375,453.8906 1076.75,453.8906 Q1075.9844,453.8906 1075.3438,454.2188 Q1074.7188,454.5469 1074.2188,455.2969 Q1073.7344,456.0469 1073.7344,457.0781 L1073.7344,458.1719 Q1073.7344,459.4063 1074.625,460.2344 Q1075.5156,461.0469 1077.1094,461.0469 Q1078.0469,461.0469 1078.7031,460.7969 Q1079.0938,460.6406 1079.5156,460.2031 Q1079.7813,459.9375 1079.9219,459.8594 Q1080.0781,459.7813 1080.2813,459.7813 Q1080.6094,459.7813 1080.8594,460.0469 Q1081.125,460.2969 1081.125,460.6406 Q1081.125,460.9844 1080.7813,461.3906 Q1080.2813,461.9688 1079.4844,462.2969 Q1078.4063,462.75 1077.1094,462.75 Q1075.5938,462.75 1074.3906,462.125 Q1073.4063,461.625 1072.7188,460.5625 Q1072.0313,459.4844 1072.0313,458.2031 L1072.0313,457.0469 Q1072.0313,455.7188 1072.6406,454.5781 Q1073.2656,453.4219 1074.3594,452.8125 Q1075.4531,452.1875 1076.6875,452.1875 Q1077.4219,452.1875 1078.0625,452.3594 Q1078.7188,452.5156 1079.2656,452.875 Z " fill="#000000"/><text fill="#000000" font-family="sans-serif" font-size="14" lengthAdjust="spacing" textLength="76" x="1091.5" y="462.7285">TimeMetrics</text><line style="stroke:#000000;stroke-width:0.5;" x1="1062.5" x2="1170.5" y1="473" y2="473"/><line style="stroke:#000000;stroke-width:0.5;" x1="1062.5" x2="1170.5" y1="481" y2="481"/></g><!--class DiceDetectionResult--><g id="elem_DiceDetectionResult"><rect codeLine="38" fill="#90EE90" height="48" id="DiceDetectionResult" rx="2.5" ry="2.5" style="stroke:#000000;stroke-width:0.5;" width="162" x="596" y="469"/><ellipse cx="611" cy="485" fill="#ADD1B2" rx="11" ry="11" style="stroke:#181818;stroke-width:1.0;"/><path d="M613.7656,480.875 Q613.9219,480.6563 614.1094,480.5469 Q614.2969,480.4375 614.5156,480.4375 Q614.8906,480.4375 615.125,480.7031 Q615.3594,480.9531 615.3594,481.5625 L615.3594,483.0156 Q615.3594,483.625 615.125,483.8906 Q614.8906,484.1563 614.5156,484.1563 Q614.1719,484.1563 613.9688,483.9531 Q613.7656,483.7656 613.6563,483.25 Q613.6094,482.8906 613.4219,482.7031 Q613.0938,482.3281 612.4844,482.1094 Q611.875,481.8906 611.25,481.8906 Q610.4844,481.8906 609.8438,482.2188 Q609.2188,482.5469 608.7188,483.2969 Q608.2344,484.0469 608.2344,485.0781 L608.2344,486.1719 Q608.2344,487.4063 609.125,488.2344 Q610.0156,489.0469 611.6094,489.0469 Q612.5469,489.0469 613.2031,488.7969 Q613.5938,488.6406 614.0156,488.2031 Q614.2813,487.9375 614.4219,487.8594 Q614.5781,487.7813 614.7813,487.7813 Q615.1094,487.7813 615.3594,488.0469 Q615.625,488.2969 615.625,488.6406 Q615.625,488.9844 615.2813,489.3906 Q614.7813,489.9688 613.9844,490.2969 Q612.9063,490.75 611.6094,490.75 Q610.0938,490.75 608.8906,490.125 Q607.9063,489.625 607.2188,488.5625 Q606.5313,487.4844 606.5313,486.2031 L606.5313,485.0469 Q606.5313,483.7188 607.1406,482.5781 Q607.7656,481.4219 608.8594,480.8125 Q609.9531,480.1875 611.1875,480.1875 Q611.9219,480.1875 612.5625,480.3594 Q613.2188,480.5156 613.7656,480.875 Z " fill="#000000"/><text fill="#000000" font-family="sans-serif" font-size="14" lengthAdjust="spacing" textLength="128" x="626" y="490.7285">DiceDetectionResult</text><line style="stroke:#000000;stroke-width:0.5;" x1="597" x2="757" y1="501" y2="501"/><line style="stroke:#000000;stroke-width:0.5;" x1="597" x2="757" y1="509" y2="509"/></g><!--class GameStatistics--><g id="elem_GameStatistics"><rect codeLine="39" fill="#90EE90" height="48" id="GameStatistics" rx="2.5" ry="2.5" style="stroke:#000000;stroke-width:0.5;" width="128" x="613" y="418"/><ellipse cx="628" cy="434" fill="#ADD1B2" rx="11" ry="11" style="stroke:#181818;stroke-width:1.0;"/><path d="M630.7656,429.875 Q630.9219,429.6563 631.1094,429.5469 Q631.2969,429.4375 631.5156,429.4375 Q631.8906,429.4375 632.125,429.7031 Q632.3594,429.9531 632.3594,430.5625 L632.3594,432.0156 Q632.3594,432.625 632.125,432.8906 Q631.8906,433.1563 631.5156,433.1563 Q631.1719,433.1563 630.9688,432.9531 Q630.7656,432.7656 630.6563,432.25 Q630.6094,431.8906 630.4219,431.7031 Q630.0938,431.3281 629.4844,431.1094 Q628.875,430.8906 628.25,430.8906 Q627.4844,430.8906 626.8438,431.2188 Q626.2188,431.5469 625.7188,432.2969 Q625.2344,433.0469 625.2344,434.0781 L625.2344,435.1719 Q625.2344,436.4063 626.125,437.2344 Q627.0156,438.0469 628.6094,438.0469 Q629.5469,438.0469 630.2031,437.7969 Q630.5938,437.6406 631.0156,437.2031 Q631.2813,436.9375 631.4219,436.8594 Q631.5781,436.7813 631.7813,436.7813 Q632.1094,436.7813 632.3594,437.0469 Q632.625,437.2969 632.625,437.6406 Q632.625,437.9844 632.2813,438.3906 Q631.7813,438.9688 630.9844,439.2969 Q629.9063,439.75 628.6094,439.75 Q627.0938,439.75 625.8906,439.125 Q624.9063,438.625 624.2188,437.5625 Q623.5313,436.4844 623.5313,435.2031 L623.5313,434.0469 Q623.5313,432.7188 624.1406,431.5781 Q624.7656,430.4219 625.8594,429.8125 Q626.9531,429.1875 628.1875,429.1875 Q628.9219,429.1875 629.5625,429.3594 Q630.2188,429.5156 630.7656,429.875 Z " fill="#000000"/><text fill="#000000" font-family="sans-serif" font-size="14" lengthAdjust="spacing" textLength="94" x="643" y="439.7285">GameStatistics</text><line style="stroke:#000000;stroke-width:0.5;" x1="614" x2="740" y1="450" y2="450"/><line style="stroke:#000000;stroke-width:0.5;" x1="614" x2="740" y1="458" y2="458"/></g><!--class AppViewModel--><g id="elem_AppViewModel"><rect codeLine="44" fill="#90EE90" height="48" id="AppViewModel" rx="2.5" ry="2.5" style="stroke:#000000;stroke-width:0.5;" width="126" x="39.5" y="307"/><ellipse cx="54.5" cy="323" fill="#ADD1B2" rx="11" ry="11" style="stroke:#181818;stroke-width:1.0;"/><path d="M57.2656,318.875 Q57.4219,318.6563 57.6094,318.5469 Q57.7969,318.4375 58.0156,318.4375 Q58.3906,318.4375 58.625,318.7031 Q58.8594,318.9531 58.8594,319.5625 L58.8594,321.0156 Q58.8594,321.625 58.625,321.8906 Q58.3906,322.1563 58.0156,322.1563 Q57.6719,322.1563 57.4688,321.9531 Q57.2656,321.7656 57.1563,321.25 Q57.1094,320.8906 56.9219,320.7031 Q56.5938,320.3281 55.9844,320.1094 Q55.375,319.8906 54.75,319.8906 Q53.9844,319.8906 53.3438,320.2188 Q52.7188,320.5469 52.2188,321.2969 Q51.7344,322.0469 51.7344,323.0781 L51.7344,324.1719 Q51.7344,325.4063 52.625,326.2344 Q53.5156,327.0469 55.1094,327.0469 Q56.0469,327.0469 56.7031,326.7969 Q57.0938,326.6406 57.5156,326.2031 Q57.7813,325.9375 57.9219,325.8594 Q58.0781,325.7813 58.2813,325.7813 Q58.6094,325.7813 58.8594,326.0469 Q59.125,326.2969 59.125,326.6406 Q59.125,326.9844 58.7813,327.3906 Q58.2813,327.9688 57.4844,328.2969 Q56.4063,328.75 55.1094,328.75 Q53.5938,328.75 52.3906,328.125 Q51.4063,327.625 50.7188,326.5625 Q50.0313,325.4844 50.0313,324.2031 L50.0313,323.0469 Q50.0313,321.7188 50.6406,320.5781 Q51.2656,319.4219 52.3594,318.8125 Q53.4531,318.1875 54.6875,318.1875 Q55.4219,318.1875 56.0625,318.3594 Q56.7188,318.5156 57.2656,318.875 Z " fill="#000000"/><text fill="#000000" font-family="sans-serif" font-size="14" lengthAdjust="spacing" textLength="92" x="69.5" y="328.7285">AppViewModel</text><line style="stroke:#000000;stroke-width:0.5;" x1="40.5" x2="164.5" y1="339" y2="339"/><line style="stroke:#000000;stroke-width:0.5;" x1="40.5" x2="164.5" y1="347" y2="347"/></g><!--class GameViewModel--><g id="elem_GameViewModel"><rect codeLine="45" fill="#90EE90" height="48" id="GameViewModel" rx="2.5" ry="2.5" style="stroke:#000000;stroke-width:0.5;" width="139" x="33" y="358"/><ellipse cx="48" cy="374" fill="#ADD1B2" rx="11" ry="11" style="stroke:#181818;stroke-width:1.0;"/><path d="M50.7656,369.875 Q50.9219,369.6563 51.1094,369.5469 Q51.2969,369.4375 51.5156,369.4375 Q51.8906,369.4375 52.125,369.7031 Q52.3594,369.9531 52.3594,370.5625 L52.3594,372.0156 Q52.3594,372.625 52.125,372.8906 Q51.8906,373.1563 51.5156,373.1563 Q51.1719,373.1563 50.9688,372.9531 Q50.7656,372.7656 50.6563,372.25 Q50.6094,371.8906 50.4219,371.7031 Q50.0938,371.3281 49.4844,371.1094 Q48.875,370.8906 48.25,370.8906 Q47.4844,370.8906 46.8438,371.2188 Q46.2188,371.5469 45.7188,372.2969 Q45.2344,373.0469 45.2344,374.0781 L45.2344,375.1719 Q45.2344,376.4063 46.125,377.2344 Q47.0156,378.0469 48.6094,378.0469 Q49.5469,378.0469 50.2031,377.7969 Q50.5938,377.6406 51.0156,377.2031 Q51.2813,376.9375 51.4219,376.8594 Q51.5781,376.7813 51.7813,376.7813 Q52.1094,376.7813 52.3594,377.0469 Q52.625,377.2969 52.625,377.6406 Q52.625,377.9844 52.2813,378.3906 Q51.7813,378.9688 50.9844,379.2969 Q49.9063,379.75 48.6094,379.75 Q47.0938,379.75 45.8906,379.125 Q44.9063,378.625 44.2188,377.5625 Q43.5313,376.4844 43.5313,375.2031 L43.5313,374.0469 Q43.5313,372.7188 44.1406,371.5781 Q44.7656,370.4219 45.8594,369.8125 Q46.9531,369.1875 48.1875,369.1875 Q48.9219,369.1875 49.5625,369.3594 Q50.2188,369.5156 50.7656,369.875 Z " fill="#000000"/><text fill="#000000" font-family="sans-serif" font-size="14" lengthAdjust="spacing" textLength="105" x="63" y="379.7285">GameViewModel</text><line style="stroke:#000000;stroke-width:0.5;" x1="34" x2="171" y1="390" y2="390"/><line style="stroke:#000000;stroke-width:0.5;" x1="34" x2="171" y1="398" y2="398"/></g><!--class DetectionViewModel--><g id="elem_DetectionViewModel"><rect codeLine="46" fill="#90EE90" height="48" id="DetectionViewModel" rx="2.5" ry="2.5" style="stroke:#000000;stroke-width:0.5;" width="161" x="22" y="409"/><ellipse cx="37" cy="425" fill="#ADD1B2" rx="11" ry="11" style="stroke:#181818;stroke-width:1.0;"/><path d="M39.7656,420.875 Q39.9219,420.6563 40.1094,420.5469 Q40.2969,420.4375 40.5156,420.4375 Q40.8906,420.4375 41.125,420.7031 Q41.3594,420.9531 41.3594,421.5625 L41.3594,423.0156 Q41.3594,423.625 41.125,423.8906 Q40.8906,424.1563 40.5156,424.1563 Q40.1719,424.1563 39.9688,423.9531 Q39.7656,423.7656 39.6563,423.25 Q39.6094,422.8906 39.4219,422.7031 Q39.0938,422.3281 38.4844,422.1094 Q37.875,421.8906 37.25,421.8906 Q36.4844,421.8906 35.8438,422.2188 Q35.2188,422.5469 34.7188,423.2969 Q34.2344,424.0469 34.2344,425.0781 L34.2344,426.1719 Q34.2344,427.4063 35.125,428.2344 Q36.0156,429.0469 37.6094,429.0469 Q38.5469,429.0469 39.2031,428.7969 Q39.5938,428.6406 40.0156,428.2031 Q40.2813,427.9375 40.4219,427.8594 Q40.5781,427.7813 40.7813,427.7813 Q41.1094,427.7813 41.3594,428.0469 Q41.625,428.2969 41.625,428.6406 Q41.625,428.9844 41.2813,429.3906 Q40.7813,429.9688 39.9844,430.2969 Q38.9063,430.75 37.6094,430.75 Q36.0938,430.75 34.8906,430.125 Q33.9063,429.625 33.2188,428.5625 Q32.5313,427.4844 32.5313,426.2031 L32.5313,425.0469 Q32.5313,423.7188 33.1406,422.5781 Q33.7656,421.4219 34.8594,420.8125 Q35.9531,420.1875 37.1875,420.1875 Q37.9219,420.1875 38.5625,420.3594 Q39.2188,420.5156 39.7656,420.875 Z " fill="#000000"/><text fill="#000000" font-family="sans-serif" font-size="14" lengthAdjust="spacing" textLength="127" x="52" y="430.7285">DetectionViewModel</text><line style="stroke:#000000;stroke-width:0.5;" x1="23" x2="182" y1="441" y2="441"/><line style="stroke:#000000;stroke-width:0.5;" x1="23" x2="182" y1="449" y2="449"/></g><!--class RoboflowRepository--><g id="elem_RoboflowRepository"><rect codeLine="51" fill="#90EE90" height="48" id="RoboflowRepository" rx="2.5" ry="2.5" style="stroke:#000000;stroke-width:0.5;" width="160" x="309" y="44"/><ellipse cx="324" cy="60" fill="#B4A7E5" rx="11" ry="11" style="stroke:#181818;stroke-width:1.0;"/><path d="M324.9531,56.6406 L324.9531,63.2969 L326.6719,63.2969 Q327.2813,63.2969 327.5469,63.5313 Q327.8125,63.7656 327.8125,64.1563 Q327.8125,64.5313 327.5469,64.7656 Q327.2813,65 326.6719,65 L321.5313,65 Q320.9219,65 320.6563,64.7656 Q320.3906,64.5313 320.3906,64.1406 Q320.3906,63.7656 320.6563,63.5313 Q320.9219,63.2969 321.5313,63.2969 L323.25,63.2969 L323.25,56.6406 L321.5313,56.6406 Q320.9219,56.6406 320.6563,56.4063 Q320.3906,56.1719 320.3906,55.7813 Q320.3906,55.4063 320.6563,55.1719 Q320.9219,54.9375 321.5313,54.9375 L326.6719,54.9375 Q327.2813,54.9375 327.5469,55.1719 Q327.8125,55.4063 327.8125,55.7813 Q327.8125,56.1719 327.5469,56.4063 Q327.2813,56.6406 326.6719,56.6406 L324.9531,56.6406 Z " fill="#000000"/><text fill="#000000" font-family="sans-serif" font-size="14" font-style="italic" lengthAdjust="spacing" textLength="126" x="339" y="65.7285">RoboflowRepository</text><line style="stroke:#000000;stroke-width:0.5;" x1="310" x2="468" y1="76" y2="76"/><line style="stroke:#000000;stroke-width:0.5;" x1="310" x2="468" y1="84" y2="84"/></g><!--class RoboflowRepositoryImpl--><g id="elem_RoboflowRepositoryImpl"><rect codeLine="52" fill="#90EE90" height="48" id="RoboflowRepositoryImpl" rx="2.5" ry="2.5" style="stroke:#000000;stroke-width:0.5;" width="185" x="584.5" y="44"/><ellipse cx="599.5" cy="60" fill="#ADD1B2" rx="11" ry="11" style="stroke:#181818;stroke-width:1.0;"/><path d="M602.2656,55.875 Q602.4219,55.6563 602.6094,55.5469 Q602.7969,55.4375 603.0156,55.4375 Q603.3906,55.4375 603.625,55.7031 Q603.8594,55.9531 603.8594,56.5625 L603.8594,58.0156 Q603.8594,58.625 603.625,58.8906 Q603.3906,59.1563 603.0156,59.1563 Q602.6719,59.1563 602.4688,58.9531 Q602.2656,58.7656 602.1563,58.25 Q602.1094,57.8906 601.9219,57.7031 Q601.5938,57.3281 600.9844,57.1094 Q600.375,56.8906 599.75,56.8906 Q598.9844,56.8906 598.3438,57.2188 Q597.7188,57.5469 597.2188,58.2969 Q596.7344,59.0469 596.7344,60.0781 L596.7344,61.1719 Q596.7344,62.4063 597.625,63.2344 Q598.5156,64.0469 600.1094,64.0469 Q601.0469,64.0469 601.7031,63.7969 Q602.0938,63.6406 602.5156,63.2031 Q602.7813,62.9375 602.9219,62.8594 Q603.0781,62.7813 603.2813,62.7813 Q603.6094,62.7813 603.8594,63.0469 Q604.125,63.2969 604.125,63.6406 Q604.125,63.9844 603.7813,64.3906 Q603.2813,64.9688 602.4844,65.2969 Q601.4063,65.75 600.1094,65.75 Q598.5938,65.75 597.3906,65.125 Q596.4063,64.625 595.7188,63.5625 Q595.0313,62.4844 595.0313,61.2031 L595.0313,60.0469 Q595.0313,58.7188 595.6406,57.5781 Q596.2656,56.4219 597.3594,55.8125 Q598.4531,55.1875 599.6875,55.1875 Q600.4219,55.1875 601.0625,55.3594 Q601.7188,55.5156 602.2656,55.875 Z " fill="#000000"/><text fill="#000000" font-family="sans-serif" font-size="14" lengthAdjust="spacing" textLength="151" x="614.5" y="65.7285">RoboflowRepositoryImpl</text><line style="stroke:#000000;stroke-width:0.5;" x1="585.5" x2="768.5" y1="76" y2="76"/><line style="stroke:#000000;stroke-width:0.5;" x1="585.5" x2="768.5" y1="84" y2="84"/></g><!--reverse link RoboflowRepository to RoboflowRepositoryImpl--><g id="link_RoboflowRepository_RoboflowRepositoryImpl"><path d="M489.55,68 C520.37,68 554.17,68 584.42,68 " fill="none" id="RoboflowRepository-backto-RoboflowRepositoryImpl" style="stroke:#000000;stroke-width:1.0;stroke-dasharray:7.0,7.0;"/><polygon fill="none" points="489.29,75,469.29,68,489.29,61,489.29,75" style="stroke:#000000;stroke-width:1.0;"/></g><!--link AppViewModel to DataStoreManager--><g id="link_AppViewModel_DataStoreManager"><path codeLine="56" d="M117.66,306.76 C136.03,277.85 171,230.71 215,209 C242.98,195.19 276.62,190.1 306.77,188.93 " fill="none" id="AppViewModel-to-DataStoreManager" style="stroke:#000000;stroke-width:1.0;"/><polygon fill="#000000" points="311.96,188.76,302.8388,185.0447,306.9625,188.9171,303.0901,193.0407,311.96,188.76" style="stroke:#000000;stroke-width:1.0;"/><text fill="#000000" font-family="sans-serif" font-size="13" lengthAdjust="spacing" textLength="46" x="217" y="189.4951">Manage</text></g><!--link GameViewModel to MyGameManager--><g id="link_GameViewModel_MyGameManager"><path codeLine="57" d="M172.2,375.29 C185.36,370.99 197.86,364.31 207,354 C223.39,335.52 200.11,318.71 215,299 C232.03,276.46 246.28,282.16 273,273 C285.1,268.86 298.11,265.07 310.88,261.72 " fill="none" id="GameViewModel-to-MyGameManager" style="stroke:#000000;stroke-width:1.0;"/><polygon fill="#000000" points="315.95,260.4,306.2337,258.7897,311.1104,261.6563,308.2438,266.533,315.95,260.4" style="stroke:#000000;stroke-width:1.0;"/><text fill="#000000" font-family="sans-serif" font-size="13" lengthAdjust="spacing" textLength="23" x="228.5" y="271.4951">Use</text></g><!--link GameViewModel to PigGameManager--><g id="link_GameViewModel_PigGameManager"><path codeLine="58" d="M172.11,370.49 C184.39,366.52 196.58,361.18 207,354 C211.98,350.57 210.11,346.56 215,343 C242.47,323.01 277.96,311.52 309.65,304.92 " fill="none" id="GameViewModel-to-PigGameManager" style="stroke:#000000;stroke-width:1.0;"/><polygon fill="#000000" points="314.7,303.9,305.0819,301.7804,309.801,304.8998,306.6816,309.6189,314.7,303.9" style="stroke:#000000;stroke-width:1.0;"/><text fill="#000000" font-family="sans-serif" font-size="13" lengthAdjust="spacing" textLength="23" x="228.5" y="314.4951">Use</text></g><!--link GameViewModel to GreedGameManager--><g id="link_GameViewModel_GreedGameManager"><path codeLine="59" d="M172.01,373.57 C210.4,368.85 258.7,362.91 299.88,357.84 " fill="none" id="GameViewModel-to-GreedGameManager" style="stroke:#000000;stroke-width:1.0;"/><polygon fill="#000000" points="304.87,357.23,295.4474,354.3639,299.9077,357.8432,296.4285,362.3035,304.87,357.23" style="stroke:#000000;stroke-width:1.0;"/><text fill="#000000" font-family="sans-serif" font-size="13" lengthAdjust="spacing" textLength="23" x="228.5" y="358.4951">Use</text></g><!--link GameViewModel to BalutGameManager--><g id="link_GameViewModel_BalutGameManager"><path codeLine="60" d="M172.01,385.85 C211.59,388.08 261.69,390.9 303.68,393.26 " fill="none" id="GameViewModel-to-BalutGameManager" style="stroke:#000000;stroke-width:1.0;"/><polygon fill="#000000" points="308.76,393.54,299.9908,389.0567,303.7674,393.2682,299.5559,397.0448,308.76,393.54" style="stroke:#000000;stroke-width:1.0;"/><text fill="#000000" font-family="sans-serif" font-size="13" lengthAdjust="spacing" textLength="23" x="228.5" y="384.4951">Use</text></g><!--link GameViewModel to DiceManager--><g id="link_GameViewModel_DiceManager"><path codeLine="61" d="M172.06,387.89 C185.47,392.21 198.12,399.11 207,410 C225.29,432.43 199.85,515.34 215,540 C237.7,576.94 285.05,592.14 324.49,598.26 " fill="none" id="GameViewModel-to-DiceManager" style="stroke:#000000;stroke-width:1.0;"/><polygon fill="#000000" points="329.75,599.03,321.4125,593.7873,324.8011,598.3169,320.2715,601.7055,329.75,599.03" style="stroke:#000000;stroke-width:1.0;"/><text fill="#000000" font-family="sans-serif" font-size="13" lengthAdjust="spacing" textLength="22" x="229" y="535.4951">Roll</text></g><!--link GameViewModel to SettingsManager--><g id="link_GameViewModel_SettingsManager"><path codeLine="62" d="M172.18,395.48 C184.2,399.25 196.27,404.01 207,410 C242.14,429.62 237.61,452.83 273,472 C285.39,478.71 299.39,483.84 313.26,487.75 " fill="none" id="GameViewModel-to-SettingsManager" style="stroke:#000000;stroke-width:1.0;"/><polygon fill="#000000" points="318.36,489.13,310.7265,482.9067,313.5355,487.8168,308.6254,490.6259,318.36,489.13" style="stroke:#000000;stroke-width:1.0;"/><text fill="#000000" font-family="sans-serif" font-size="13" lengthAdjust="spacing" textLength="44" x="218" y="411.4951">Access</text></g><!--link GameViewModel to ShakeDetectorManager--><g id="link_GameViewModel_ShakeDetectorManager"><path codeLine="63" d="M172.25,388.34 C185.49,392.65 198.01,399.44 207,410 C218.15,423.1 205.87,472.42 215,487 C231.1,512.72 245.02,511.27 273,523 C279.04,525.54 285.36,527.87 291.79,530.02 " fill="none" id="GameViewModel-to-ShakeDetectorManager" style="stroke:#000000;stroke-width:1.0;"/><polygon fill="#000000" points="296.73,531.63,289.403,525.0486,291.9739,530.0875,286.935,532.6583,296.73,531.63" style="stroke:#000000;stroke-width:1.0;"/><text fill="#000000" font-family="sans-serif" font-size="13" lengthAdjust="spacing" textLength="38" x="221" y="482.4951">Detect</text></g><!--link DetectionViewModel to DiceDetectionResult--><g id="link_DetectionViewModel_DiceDetectionResult"><path codeLine="65" d="M113.16,457.31 C133.91,505.69 187.87,612.91 273,654 C365.86,698.82 409.15,692.02 505,654 C572.47,627.24 628.79,559.85 656.85,521.27 " fill="none" id="DetectionViewModel-to-DiceDetectionResult" style="stroke:#000000;stroke-width:1.0;"/><polygon fill="#000000" points="659.8,517.17,651.3007,522.1461,656.883,521.2309,657.7981,526.8133,659.8,517.17" style="stroke:#000000;stroke-width:1.0;"/><text fill="#000000" font-family="sans-serif" font-size="13" lengthAdjust="spacing" textLength="38" x="370" y="649.4951">Detect</text></g><!--link DetectionViewModel to RoboflowRepository--><g id="link_DetectionViewModel_RoboflowRepository"><path codeLine="66" d="M183.07,422.93 C192.27,418.69 200.62,412.89 207,405 C227.85,379.22 197.26,284.01 215,256 C228.51,234.67 250.8,249.88 265,229 C281.87,204.2 258.56,188.29 273,162 C288.31,134.13 315.55,111.29 339.69,95.11 " fill="none" id="DetectionViewModel-to-RoboflowRepository" style="stroke:#000000;stroke-width:1.0;"/><polygon fill="#000000" points="344.15,92.17,334.4362,93.7956,339.9788,94.927,338.8474,100.4696,344.15,92.17" style="stroke:#000000;stroke-width:1.0;"/><text fill="#000000" font-family="sans-serif" font-size="13" lengthAdjust="spacing" textLength="23" x="228.5" y="224.4951">Use</text></g><!--link RoboflowRepositoryImpl to DiceDetectionResult--><g id="link_RoboflowRepositoryImpl_DiceDetectionResult"><path codeLine="67" d="M659.51,92.28 C627.05,139 558.58,245.84 534,348 C521.21,401.16 531.22,428.58 572,465 C577.66,470.06 584.13,474.21 591.02,477.63 " fill="none" id="RoboflowRepositoryImpl-to-DiceDetectionResult" style="stroke:#000000;stroke-width:1.0;"/><polygon fill="#000000" points="595.86,479.88,589.3882,472.456,591.3269,477.7703,586.0126,479.7089,595.86,479.88" style="stroke:#000000;stroke-width:1.0;"/><text fill="#000000" font-family="sans-serif" font-size="13" lengthAdjust="spacing" textLength="47" x="515" y="363.4951">Analyze</text></g><!--link MyGameManager to GameState--><g id="link_MyGameManager_GameState"><path codeLine="69" d="M462.18,261.02 C476.47,264.63 491.28,268.68 505,273 C543.84,285.24 586.49,301.94 619.48,315.61 " fill="none" id="MyGameManager-to-GameState" style="stroke:#000000;stroke-width:1.0;"/><polygon fill="#000000" points="624.27,317.6,617.5086,310.4387,619.6567,315.6719,614.4236,317.82,624.27,317.6" style="stroke:#000000;stroke-width:1.0;"/><text fill="#000000" font-family="sans-serif" font-size="13" lengthAdjust="spacing" textLength="46" x="515.5" y="272.4951">Manage</text></g><!--link PigGameManager to GameState--><g id="link_PigGameManager_GameState"><path codeLine="70" d="M463.28,307.28 C511.73,314.73 574.31,324.36 619.03,331.24 " fill="none" id="PigGameManager-to-GameState" style="stroke:#000000;stroke-width:1.0;"/><polygon fill="#000000" points="624.11,332.02,615.8194,326.7034,619.1676,331.2629,614.6081,334.6112,624.11,332.02" style="stroke:#000000;stroke-width:1.0;"/><text fill="#000000" font-family="sans-serif" font-size="13" lengthAdjust="spacing" textLength="46" x="515.5" y="311.4951">Manage</text></g><!--link GreedGameManager to GameState--><g id="link_GreedGameManager_GameState"><path codeLine="71" d="M473.11,344.97 C520.02,343.82 577.43,342.41 619.19,341.39 " fill="none" id="GreedGameManager-to-GameState" style="stroke:#000000;stroke-width:1.0;"/><polygon fill="#000000" points="624.2,341.27,615.1002,337.5027,619.2017,341.3985,615.3058,345.5,624.2,341.27" style="stroke:#000000;stroke-width:1.0;"/><text fill="#000000" font-family="sans-serif" font-size="13" lengthAdjust="spacing" textLength="46" x="515.5" y="338.4951">Manage</text></g><!--link BalutGameManager to GameState--><g id="link_BalutGameManager_GameState"><path codeLine="72" d="M469.4,401.51 C507.81,401.63 548.84,398.92 564,388 C571.77,382.41 564.84,374.36 572,368 C585.05,356.41 602.4,349.54 619.2,345.5 " fill="none" id="BalutGameManager-to-GameState" style="stroke:#000000;stroke-width:1.0;"/><polygon fill="#000000" points="624.38,344.34,614.72,342.4206,619.5028,345.4413,616.4821,350.2241,624.38,344.34" style="stroke:#000000;stroke-width:1.0;"/><text fill="#000000" font-family="sans-serif" font-size="13" lengthAdjust="spacing" textLength="46" x="515.5" y="383.4951">Manage</text></g><!--link StatisticsManager to DecisionPatterns--><g id="link_StatisticsManager_DecisionPatterns"><path codeLine="75" d="M462.17,436.51 C478.85,433.67 496.54,430.7 513,428 C535.64,424.29 541.53,424.66 564,420 C576.15,417.48 588.97,414.49 601.41,411.4 " fill="none" id="StatisticsManager-to-DecisionPatterns" style="stroke:#000000;stroke-width:1.0;"/><polygon fill="#000000" points="606.35,410.16,596.6474,408.469,601.5001,411.376,598.5931,416.2288,606.35,410.16" style="stroke:#000000;stroke-width:1.0;"/><text fill="#000000" font-family="sans-serif" font-size="13" lengthAdjust="spacing" textLength="23" x="527" y="415.4951">Use</text></g><!--link StatisticsManager to GameStatistics--><g id="link_StatisticsManager_GameStatistics"><path codeLine="76" d="M462.17,447.24 C506.78,446.14 563.71,444.75 607.6,443.68 " fill="none" id="StatisticsManager-to-GameStatistics" style="stroke:#000000;stroke-width:1.0;"/><polygon fill="#000000" points="612.62,443.55,603.5199,439.7833,607.6217,443.6789,603.7261,447.7807,612.62,443.55" style="stroke:#000000;stroke-width:1.0;"/><text fill="#000000" font-family="sans-serif" font-size="13" lengthAdjust="spacing" textLength="32" x="522.5" y="440.4951">Track</text></g><!--link GameStatistics to WinRate--><g id="link_GameStatistics_WinRate"><path codeLine="77" d="M741.28,434.9 C784.11,430.09 839.83,423.84 879.12,419.43 " fill="none" id="GameStatistics-to-WinRate" style="stroke:#000000;stroke-width:1.0;"/><polygon fill="#000000" points="884.31,418.85,874.9196,415.8802,879.3413,419.4084,875.8131,423.8302,884.31,418.85" style="stroke:#000000;stroke-width:1.0;"/><text fill="#000000" font-family="sans-serif" font-size="13" lengthAdjust="spacing" textLength="52" x="803.5" y="418.4951">Compute</text></g><!--link GameStatistics to PlayerAnalysis--><g id="link_GameStatistics_PlayerAnalysis"><path codeLine="78" d="M741.28,447.84 C777.47,451.17 822.86,455.36 859.77,458.76 " fill="none" id="GameStatistics-to-PlayerAnalysis" style="stroke:#000000;stroke-width:1.0;"/><polygon fill="#000000" points="865.15,459.25,856.5528,454.4449,860.1709,458.7935,855.8224,462.4115,865.15,459.25" style="stroke:#000000;stroke-width:1.0;"/><text fill="#000000" font-family="sans-serif" font-size="13" lengthAdjust="spacing" textLength="47" x="806" y="449.4951">Analyze</text></g><!--link PlayerAnalysis to TimeMetrics--><g id="link_PlayerAnalysis_TimeMetrics"><path codeLine="79" d="M991.69,465 C1012.53,465 1035.69,465 1056.29,465 " fill="none" id="PlayerAnalysis-to-TimeMetrics" style="stroke:#000000;stroke-width:1.0;"/><polygon fill="#000000" points="1061.47,465,1052.47,461,1056.47,465,1052.47,469,1061.47,465" style="stroke:#000000;stroke-width:1.0;"/><text fill="#000000" font-family="sans-serif" font-size="13" lengthAdjust="spacing" textLength="50" x="1001.5" y="460.4951">Measure</text></g><!--SRC=[VLLDYzim4BtxLmpfOK-1bjvwAEI33OK6GdQtfKUjFKb45CcCv0QtzBztPCUEPCl9OSdEUv9ctioRFC6peHpXDvAJkL2WH6qgboayE706I1vF3Wf9c3jfT9OzmGOr4ZEjgvNKnyoUfIu5YGliH55m13v5CN-nB8Ls7VmnW5VcKXgDQL2R0YsMy3c8aT3dOInNmbhucm5_bY8_7ybKkbWPPGY- -m8sXAXRs521r49BnTmckY0orp3upnUwCeIm4HU4hT3YY6Ipaa7-1hCkCeCFpGk_K2bplUNGvhEj_TaRCOZlv34D-2oBDBGKgd8X561hcITEh8KJBuuh64Clw1nBRHF8IPnnZOwRRIW1E-6avNRsHnkTjjmc5MhJ_Dyfio5HHxhuClnD66h2OuUqq4BLLjgm3CobvS7R2UUGT0Zzb7eVt_8gMI1qn0aEz6bhudlsQ2lb4jcqTRK5_P1u7HPrZtM5hMgXey8MPTcp1Y-audrETx1vtNVkxeiWXG7GvR5K5Txoa9f5EWZsyzwycmDFv1vBOoLtimvU7eFVBgK2oN_mugzE7MzoswCIFcLxagM5gtGdu6JcLtOLRuvthrYe0ipdNqUJ25yw-yooI9k67Rd6KzziaXUxw05nwAe7rA7B7b03qtdMtYYLeWsivgcBF4Tha-I4-_o9DZJBil74zBaC1ZmyDd5gtEA-t8dvc7wgCUuVFfd5xVFoTsuFspvetXHjrBefugXnKqGUuRUou60158toWLU_xTS0E6BJ-H-tqSfhL1WifLwu93lUC9xxwczl9o00V5DkEysJlD4hXqbQl2wZ3WmWpmxMOgC52biHK_y3]--></g></svg>