<?xml version="1.0" encoding="us-ascii" standalone="no"?><svg xmlns="http://www.w3.org/2000/svg" xmlns:xlink="http://www.w3.org/1999/xlink" contentStyleType="text/css" height="747px" preserveAspectRatio="none" style="width:1056px;height:747px;background:#FFFFFF;" version="1.1" viewBox="0 0 1056 747" width="1056px" zoomAndPan="magnify"><defs/><g><!--cluster Managers--><g id="cluster_Managers"><path d="M284.5,183 L357.5,183 A3.75,3.75 0 0 1 360,185.5 L367,208.6094 L495.5,208.6094 A2.5,2.5 0 0 1 498,211.1094 L498,690.5 A2.5,2.5 0 0 1 495.5,693 L284.5,693 A2.5,2.5 0 0 1 282,690.5 L282,185.5 A2.5,2.5 0 0 1 284.5,183 " fill="#FFFFE0" style="stroke:#000000;stroke-width:1.5;"/><line style="stroke:#000000;stroke-width:1.5;" x1="282" x2="367" y1="208.6094" y2="208.6094"/><text fill="#000000" font-family="sans-serif" font-size="14" font-weight="bold" lengthAdjust="spacing" textLength="70" x="287" y="200.5332">Managers</text></g><!--cluster Models--><g id="cluster_Models"><path d="M857.5,30 L912.5,30 A3.75,3.75 0 0 1 915,32.5 L922,55.6094 L1046.5,55.6094 A2.5,2.5 0 0 1 1049,58.1094 L1049,435.5 A2.5,2.5 0 0 1 1046.5,438 L857.5,438 A2.5,2.5 0 0 1 855,435.5 L855,32.5 A2.5,2.5 0 0 1 857.5,30 " fill="#D3D3D3" style="stroke:#000000;stroke-width:1.5;"/><line style="stroke:#000000;stroke-width:1.5;" x1="855" x2="922" y1="55.6094" y2="55.6094"/><text fill="#000000" font-family="sans-serif" font-size="14" font-weight="bold" lengthAdjust="spacing" textLength="52" x="860" y="47.5332">Models</text></g><!--cluster ViewModels--><g id="cluster_ViewModels"><path d="M8.5,336 L96.5,336 A3.75,3.75 0 0 1 99,338.5 L106,361.6094 L196.5,361.6094 A2.5,2.5 0 0 1 199,364.1094 L199,537.5 A2.5,2.5 0 0 1 196.5,540 L8.5,540 A2.5,2.5 0 0 1 6,537.5 L6,338.5 A2.5,2.5 0 0 1 8.5,336 " fill="#E0FFFF" style="stroke:#000000;stroke-width:1.5;"/><line style="stroke:#000000;stroke-width:1.5;" x1="6" x2="106" y1="361.6094" y2="361.6094"/><text fill="#000000" font-family="sans-serif" font-size="14" font-weight="bold" lengthAdjust="spacing" textLength="85" x="11" y="353.5332">ViewModels</text></g><!--cluster Data Components--><g id="cluster_Data Components"><path d="M296.5,6 L423.5,6 A3.75,3.75 0 0 1 426,8.5 L433,31.6094 L762.5,31.6094 A2.5,2.5 0 0 1 765,34.1094 L765,156.5 A2.5,2.5 0 0 1 762.5,159 L296.5,159 A2.5,2.5 0 0 1 294,156.5 L294,8.5 A2.5,2.5 0 0 1 296.5,6 " fill="#ADD8E6" style="stroke:#000000;stroke-width:1.5;"/><line style="stroke:#000000;stroke-width:1.5;" x1="294" x2="433" y1="31.6094" y2="31.6094"/><text fill="#000000" font-family="sans-serif" font-size="14" font-weight="bold" lengthAdjust="spacing" textLength="124" x="299" y="23.5332">Data Components</text></g><!--class MyGameManager--><g id="elem_MyGameManager"><rect codeLine="20" fill="#90EE90" height="48" id="MyGameManager" rx="2.5" ry="2.5" style="stroke:#000000;stroke-width:0.5;" width="146" x="317" y="629"/><ellipse cx="332" cy="645" fill="#ADD1B2" rx="11" ry="11" style="stroke:#181818;stroke-width:1.0;"/><path d="M334.7656,640.875 Q334.9219,640.6563 335.1094,640.5469 Q335.2969,640.4375 335.5156,640.4375 Q335.8906,640.4375 336.125,640.7031 Q336.3594,640.9531 336.3594,641.5625 L336.3594,643.0156 Q336.3594,643.625 336.125,643.8906 Q335.8906,644.1563 335.5156,644.1563 Q335.1719,644.1563 334.9688,643.9531 Q334.7656,643.7656 334.6563,643.25 Q334.6094,642.8906 334.4219,642.7031 Q334.0938,642.3281 333.4844,642.1094 Q332.875,641.8906 332.25,641.8906 Q331.4844,641.8906 330.8438,642.2188 Q330.2188,642.5469 329.7188,643.2969 Q329.2344,644.0469 329.2344,645.0781 L329.2344,646.1719 Q329.2344,647.4063 330.125,648.2344 Q331.0156,649.0469 332.6094,649.0469 Q333.5469,649.0469 334.2031,648.7969 Q334.5938,648.6406 335.0156,648.2031 Q335.2813,647.9375 335.4219,647.8594 Q335.5781,647.7813 335.7813,647.7813 Q336.1094,647.7813 336.3594,648.0469 Q336.625,648.2969 336.625,648.6406 Q336.625,648.9844 336.2813,649.3906 Q335.7813,649.9688 334.9844,650.2969 Q333.9063,650.75 332.6094,650.75 Q331.0938,650.75 329.8906,650.125 Q328.9063,649.625 328.2188,648.5625 Q327.5313,647.4844 327.5313,646.2031 L327.5313,645.0469 Q327.5313,643.7188 328.1406,642.5781 Q328.7656,641.4219 329.8594,640.8125 Q330.9531,640.1875 332.1875,640.1875 Q332.9219,640.1875 333.5625,640.3594 Q334.2188,640.5156 334.7656,640.875 Z " fill="#000000"/><text fill="#000000" font-family="sans-serif" font-size="14" lengthAdjust="spacing" textLength="112" x="347" y="650.7285">MyGameManager</text><line style="stroke:#000000;stroke-width:0.5;" x1="318" x2="462" y1="661" y2="661"/><line style="stroke:#000000;stroke-width:0.5;" x1="318" x2="462" y1="669" y2="669"/></g><!--class PigGameManager--><g id="elem_PigGameManager"><rect codeLine="21" fill="#90EE90" height="48" id="PigGameManager" rx="2.5" ry="2.5" style="stroke:#000000;stroke-width:0.5;" width="148" x="316" y="527"/><ellipse cx="331" cy="543" fill="#ADD1B2" rx="11" ry="11" style="stroke:#181818;stroke-width:1.0;"/><path d="M333.7656,538.875 Q333.9219,538.6563 334.1094,538.5469 Q334.2969,538.4375 334.5156,538.4375 Q334.8906,538.4375 335.125,538.7031 Q335.3594,538.9531 335.3594,539.5625 L335.3594,541.0156 Q335.3594,541.625 335.125,541.8906 Q334.8906,542.1563 334.5156,542.1563 Q334.1719,542.1563 333.9688,541.9531 Q333.7656,541.7656 333.6563,541.25 Q333.6094,540.8906 333.4219,540.7031 Q333.0938,540.3281 332.4844,540.1094 Q331.875,539.8906 331.25,539.8906 Q330.4844,539.8906 329.8438,540.2188 Q329.2188,540.5469 328.7188,541.2969 Q328.2344,542.0469 328.2344,543.0781 L328.2344,544.1719 Q328.2344,545.4063 329.125,546.2344 Q330.0156,547.0469 331.6094,547.0469 Q332.5469,547.0469 333.2031,546.7969 Q333.5938,546.6406 334.0156,546.2031 Q334.2813,545.9375 334.4219,545.8594 Q334.5781,545.7813 334.7813,545.7813 Q335.1094,545.7813 335.3594,546.0469 Q335.625,546.2969 335.625,546.6406 Q335.625,546.9844 335.2813,547.3906 Q334.7813,547.9688 333.9844,548.2969 Q332.9063,548.75 331.6094,548.75 Q330.0938,548.75 328.8906,548.125 Q327.9063,547.625 327.2188,546.5625 Q326.5313,545.4844 326.5313,544.2031 L326.5313,543.0469 Q326.5313,541.7188 327.1406,540.5781 Q327.7656,539.4219 328.8594,538.8125 Q329.9531,538.1875 331.1875,538.1875 Q331.9219,538.1875 332.5625,538.3594 Q333.2188,538.5156 333.7656,538.875 Z " fill="#000000"/><text fill="#000000" font-family="sans-serif" font-size="14" lengthAdjust="spacing" textLength="114" x="346" y="548.7285">PigGameManager</text><line style="stroke:#000000;stroke-width:0.5;" x1="317" x2="463" y1="559" y2="559"/><line style="stroke:#000000;stroke-width:0.5;" x1="317" x2="463" y1="567" y2="567"/></g><!--class GreedGameManager--><g id="elem_GreedGameManager"><rect codeLine="22" fill="#90EE90" height="48" id="GreedGameManager" rx="2.5" ry="2.5" style="stroke:#000000;stroke-width:0.5;" width="168" x="306" y="578"/><ellipse cx="321" cy="594" fill="#ADD1B2" rx="11" ry="11" style="stroke:#181818;stroke-width:1.0;"/><path d="M323.7656,589.875 Q323.9219,589.6563 324.1094,589.5469 Q324.2969,589.4375 324.5156,589.4375 Q324.8906,589.4375 325.125,589.7031 Q325.3594,589.9531 325.3594,590.5625 L325.3594,592.0156 Q325.3594,592.625 325.125,592.8906 Q324.8906,593.1563 324.5156,593.1563 Q324.1719,593.1563 323.9688,592.9531 Q323.7656,592.7656 323.6563,592.25 Q323.6094,591.8906 323.4219,591.7031 Q323.0938,591.3281 322.4844,591.1094 Q321.875,590.8906 321.25,590.8906 Q320.4844,590.8906 319.8438,591.2188 Q319.2188,591.5469 318.7188,592.2969 Q318.2344,593.0469 318.2344,594.0781 L318.2344,595.1719 Q318.2344,596.4063 319.125,597.2344 Q320.0156,598.0469 321.6094,598.0469 Q322.5469,598.0469 323.2031,597.7969 Q323.5938,597.6406 324.0156,597.2031 Q324.2813,596.9375 324.4219,596.8594 Q324.5781,596.7813 324.7813,596.7813 Q325.1094,596.7813 325.3594,597.0469 Q325.625,597.2969 325.625,597.6406 Q325.625,597.9844 325.2813,598.3906 Q324.7813,598.9688 323.9844,599.2969 Q322.9063,599.75 321.6094,599.75 Q320.0938,599.75 318.8906,599.125 Q317.9063,598.625 317.2188,597.5625 Q316.5313,596.4844 316.5313,595.2031 L316.5313,594.0469 Q316.5313,592.7188 317.1406,591.5781 Q317.7656,590.4219 318.8594,589.8125 Q319.9531,589.1875 321.1875,589.1875 Q321.9219,589.1875 322.5625,589.3594 Q323.2188,589.5156 323.7656,589.875 Z " fill="#000000"/><text fill="#000000" font-family="sans-serif" font-size="14" lengthAdjust="spacing" textLength="134" x="336" y="599.7285">GreedGameManager</text><line style="stroke:#000000;stroke-width:0.5;" x1="307" x2="473" y1="610" y2="610"/><line style="stroke:#000000;stroke-width:0.5;" x1="307" x2="473" y1="618" y2="618"/></g><!--class BalutGameManager--><g id="elem_BalutGameManager"><rect codeLine="23" fill="#90EE90" height="48" id="BalutGameManager" rx="2.5" ry="2.5" style="stroke:#000000;stroke-width:0.5;" width="160" x="310" y="272"/><ellipse cx="325" cy="288" fill="#ADD1B2" rx="11" ry="11" style="stroke:#181818;stroke-width:1.0;"/><path d="M327.7656,283.875 Q327.9219,283.6562 328.1094,283.5469 Q328.2969,283.4375 328.5156,283.4375 Q328.8906,283.4375 329.125,283.7031 Q329.3594,283.9531 329.3594,284.5625 L329.3594,286.0156 Q329.3594,286.625 329.125,286.8906 Q328.8906,287.1562 328.5156,287.1562 Q328.1719,287.1562 327.9688,286.9531 Q327.7656,286.7656 327.6563,286.25 Q327.6094,285.8906 327.4219,285.7031 Q327.0938,285.3281 326.4844,285.1094 Q325.875,284.8906 325.25,284.8906 Q324.4844,284.8906 323.8438,285.2187 Q323.2188,285.5469 322.7188,286.2969 Q322.2344,287.0469 322.2344,288.0781 L322.2344,289.1719 Q322.2344,290.4062 323.125,291.2344 Q324.0156,292.0469 325.6094,292.0469 Q326.5469,292.0469 327.2031,291.7969 Q327.5938,291.6406 328.0156,291.2031 Q328.2813,290.9375 328.4219,290.8594 Q328.5781,290.7812 328.7813,290.7812 Q329.1094,290.7812 329.3594,291.0469 Q329.625,291.2969 329.625,291.6406 Q329.625,291.9844 329.2813,292.3906 Q328.7813,292.9687 327.9844,293.2969 Q326.9063,293.75 325.6094,293.75 Q324.0938,293.75 322.8906,293.125 Q321.9063,292.625 321.2188,291.5625 Q320.5313,290.4844 320.5313,289.2031 L320.5313,288.0469 Q320.5313,286.7187 321.1406,285.5781 Q321.7656,284.4219 322.8594,283.8125 Q323.9531,283.1875 325.1875,283.1875 Q325.9219,283.1875 326.5625,283.3594 Q327.2188,283.5156 327.7656,283.875 Z " fill="#000000"/><text fill="#000000" font-family="sans-serif" font-size="14" lengthAdjust="spacing" textLength="126" x="340" y="293.7285">BalutGameManager</text><line style="stroke:#000000;stroke-width:0.5;" x1="311" x2="469" y1="304" y2="304"/><line style="stroke:#000000;stroke-width:0.5;" x1="311" x2="469" y1="312" y2="312"/></g><!--class DiceManager--><g id="elem_DiceManager"><rect codeLine="25" fill="#90EE90" height="48" id="DiceManager" rx="2.5" ry="2.5" style="stroke:#000000;stroke-width:0.5;" width="118" x="331" y="323"/><ellipse cx="346" cy="339" fill="#ADD1B2" rx="11" ry="11" style="stroke:#181818;stroke-width:1.0;"/><path d="M348.7656,334.875 Q348.9219,334.6562 349.1094,334.5469 Q349.2969,334.4375 349.5156,334.4375 Q349.8906,334.4375 350.125,334.7031 Q350.3594,334.9531 350.3594,335.5625 L350.3594,337.0156 Q350.3594,337.625 350.125,337.8906 Q349.8906,338.1562 349.5156,338.1562 Q349.1719,338.1562 348.9688,337.9531 Q348.7656,337.7656 348.6563,337.25 Q348.6094,336.8906 348.4219,336.7031 Q348.0938,336.3281 347.4844,336.1094 Q346.875,335.8906 346.25,335.8906 Q345.4844,335.8906 344.8438,336.2187 Q344.2188,336.5469 343.7188,337.2969 Q343.2344,338.0469 343.2344,339.0781 L343.2344,340.1719 Q343.2344,341.4062 344.125,342.2344 Q345.0156,343.0469 346.6094,343.0469 Q347.5469,343.0469 348.2031,342.7969 Q348.5938,342.6406 349.0156,342.2031 Q349.2813,341.9375 349.4219,341.8594 Q349.5781,341.7812 349.7813,341.7812 Q350.1094,341.7812 350.3594,342.0469 Q350.625,342.2969 350.625,342.6406 Q350.625,342.9844 350.2813,343.3906 Q349.7813,343.9687 348.9844,344.2969 Q347.9063,344.75 346.6094,344.75 Q345.0938,344.75 343.8906,344.125 Q342.9063,343.625 342.2188,342.5625 Q341.5313,341.4844 341.5313,340.2031 L341.5313,339.0469 Q341.5313,337.7187 342.1406,336.5781 Q342.7656,335.4219 343.8594,334.8125 Q344.9531,334.1875 346.1875,334.1875 Q346.9219,334.1875 347.5625,334.3594 Q348.2188,334.5156 348.7656,334.875 Z " fill="#000000"/><text fill="#000000" font-family="sans-serif" font-size="14" lengthAdjust="spacing" textLength="84" x="361" y="344.7285">DiceManager</text><line style="stroke:#000000;stroke-width:0.5;" x1="332" x2="448" y1="355" y2="355"/><line style="stroke:#000000;stroke-width:0.5;" x1="332" x2="448" y1="363" y2="363"/></g><!--class DataStoreManager--><g id="elem_DataStoreManager"><rect codeLine="26" fill="#90EE90" height="48" id="DataStoreManager" rx="2.5" ry="2.5" style="stroke:#000000;stroke-width:0.5;" width="154" x="313" y="221"/><ellipse cx="328" cy="237" fill="#ADD1B2" rx="11" ry="11" style="stroke:#181818;stroke-width:1.0;"/><path d="M330.7656,232.875 Q330.9219,232.6562 331.1094,232.5469 Q331.2969,232.4375 331.5156,232.4375 Q331.8906,232.4375 332.125,232.7031 Q332.3594,232.9531 332.3594,233.5625 L332.3594,235.0156 Q332.3594,235.625 332.125,235.8906 Q331.8906,236.1562 331.5156,236.1562 Q331.1719,236.1562 330.9688,235.9531 Q330.7656,235.7656 330.6563,235.25 Q330.6094,234.8906 330.4219,234.7031 Q330.0938,234.3281 329.4844,234.1094 Q328.875,233.8906 328.25,233.8906 Q327.4844,233.8906 326.8438,234.2187 Q326.2188,234.5469 325.7188,235.2969 Q325.2344,236.0469 325.2344,237.0781 L325.2344,238.1719 Q325.2344,239.4062 326.125,240.2344 Q327.0156,241.0469 328.6094,241.0469 Q329.5469,241.0469 330.2031,240.7969 Q330.5938,240.6406 331.0156,240.2031 Q331.2813,239.9375 331.4219,239.8594 Q331.5781,239.7812 331.7813,239.7812 Q332.1094,239.7812 332.3594,240.0469 Q332.625,240.2969 332.625,240.6406 Q332.625,240.9844 332.2813,241.3906 Q331.7813,241.9687 330.9844,242.2969 Q329.9063,242.75 328.6094,242.75 Q327.0938,242.75 325.8906,242.125 Q324.9063,241.625 324.2188,240.5625 Q323.5313,239.4844 323.5313,238.2031 L323.5313,237.0469 Q323.5313,235.7187 324.1406,234.5781 Q324.7656,233.4219 325.8594,232.8125 Q326.9531,232.1875 328.1875,232.1875 Q328.9219,232.1875 329.5625,232.3594 Q330.2188,232.5156 330.7656,232.875 Z " fill="#000000"/><text fill="#000000" font-family="sans-serif" font-size="14" lengthAdjust="spacing" textLength="120" x="343" y="242.7285">DataStoreManager</text><line style="stroke:#000000;stroke-width:0.5;" x1="314" x2="466" y1="253" y2="253"/><line style="stroke:#000000;stroke-width:0.5;" x1="314" x2="466" y1="261" y2="261"/></g><!--class StatisticsManager--><g id="elem_StatisticsManager"><rect codeLine="27" fill="#90EE90" height="48" id="StatisticsManager" rx="2.5" ry="2.5" style="stroke:#000000;stroke-width:0.5;" width="146" x="317" y="374"/><ellipse cx="332" cy="390" fill="#ADD1B2" rx="11" ry="11" style="stroke:#181818;stroke-width:1.0;"/><path d="M334.7656,385.875 Q334.9219,385.6562 335.1094,385.5469 Q335.2969,385.4375 335.5156,385.4375 Q335.8906,385.4375 336.125,385.7031 Q336.3594,385.9531 336.3594,386.5625 L336.3594,388.0156 Q336.3594,388.625 336.125,388.8906 Q335.8906,389.1562 335.5156,389.1562 Q335.1719,389.1562 334.9688,388.9531 Q334.7656,388.7656 334.6563,388.25 Q334.6094,387.8906 334.4219,387.7031 Q334.0938,387.3281 333.4844,387.1094 Q332.875,386.8906 332.25,386.8906 Q331.4844,386.8906 330.8438,387.2187 Q330.2188,387.5469 329.7188,388.2969 Q329.2344,389.0469 329.2344,390.0781 L329.2344,391.1719 Q329.2344,392.4062 330.125,393.2344 Q331.0156,394.0469 332.6094,394.0469 Q333.5469,394.0469 334.2031,393.7969 Q334.5938,393.6406 335.0156,393.2031 Q335.2813,392.9375 335.4219,392.8594 Q335.5781,392.7812 335.7813,392.7812 Q336.1094,392.7812 336.3594,393.0469 Q336.625,393.2969 336.625,393.6406 Q336.625,393.9844 336.2813,394.3906 Q335.7813,394.9687 334.9844,395.2969 Q333.9063,395.75 332.6094,395.75 Q331.0938,395.75 329.8906,395.125 Q328.9063,394.625 328.2188,393.5625 Q327.5313,392.4844 327.5313,391.2031 L327.5313,390.0469 Q327.5313,388.7187 328.1406,387.5781 Q328.7656,386.4219 329.8594,385.8125 Q330.9531,385.1875 332.1875,385.1875 Q332.9219,385.1875 333.5625,385.3594 Q334.2188,385.5156 334.7656,385.875 Z " fill="#000000"/><text fill="#000000" font-family="sans-serif" font-size="14" lengthAdjust="spacing" textLength="112" x="347" y="395.7285">StatisticsManager</text><line style="stroke:#000000;stroke-width:0.5;" x1="318" x2="462" y1="406" y2="406"/><line style="stroke:#000000;stroke-width:0.5;" x1="318" x2="462" y1="414" y2="414"/></g><!--class SettingsManager--><g id="elem_SettingsManager"><rect codeLine="28" fill="#90EE90" height="48" id="SettingsManager" rx="2.5" ry="2.5" style="stroke:#000000;stroke-width:0.5;" width="141" x="319.5" y="425"/><ellipse cx="334.5" cy="441" fill="#ADD1B2" rx="11" ry="11" style="stroke:#181818;stroke-width:1.0;"/><path d="M337.2656,436.875 Q337.4219,436.6562 337.6094,436.5469 Q337.7969,436.4375 338.0156,436.4375 Q338.3906,436.4375 338.625,436.7031 Q338.8594,436.9531 338.8594,437.5625 L338.8594,439.0156 Q338.8594,439.625 338.625,439.8906 Q338.3906,440.1562 338.0156,440.1562 Q337.6719,440.1562 337.4688,439.9531 Q337.2656,439.7656 337.1563,439.25 Q337.1094,438.8906 336.9219,438.7031 Q336.5938,438.3281 335.9844,438.1094 Q335.375,437.8906 334.75,437.8906 Q333.9844,437.8906 333.3438,438.2187 Q332.7188,438.5469 332.2188,439.2969 Q331.7344,440.0469 331.7344,441.0781 L331.7344,442.1719 Q331.7344,443.4062 332.625,444.2344 Q333.5156,445.0469 335.1094,445.0469 Q336.0469,445.0469 336.7031,444.7969 Q337.0938,444.6406 337.5156,444.2031 Q337.7813,443.9375 337.9219,443.8594 Q338.0781,443.7812 338.2813,443.7812 Q338.6094,443.7812 338.8594,444.0469 Q339.125,444.2969 339.125,444.6406 Q339.125,444.9844 338.7813,445.3906 Q338.2813,445.9687 337.4844,446.2969 Q336.4063,446.75 335.1094,446.75 Q333.5938,446.75 332.3906,446.125 Q331.4063,445.625 330.7188,444.5625 Q330.0313,443.4844 330.0313,442.2031 L330.0313,441.0469 Q330.0313,439.7187 330.6406,438.5781 Q331.2656,437.4219 332.3594,436.8125 Q333.4531,436.1875 334.6875,436.1875 Q335.4219,436.1875 336.0625,436.3594 Q336.7188,436.5156 337.2656,436.875 Z " fill="#000000"/><text fill="#000000" font-family="sans-serif" font-size="14" lengthAdjust="spacing" textLength="107" x="349.5" y="446.7285">SettingsManager</text><line style="stroke:#000000;stroke-width:0.5;" x1="320.5" x2="459.5" y1="457" y2="457"/><line style="stroke:#000000;stroke-width:0.5;" x1="320.5" x2="459.5" y1="465" y2="465"/></g><!--class ShakeDetectorManager--><g id="elem_ShakeDetectorManager"><rect codeLine="29" fill="#90EE90" height="48" id="ShakeDetectorManager" rx="2.5" ry="2.5" style="stroke:#000000;stroke-width:0.5;" width="184" x="298" y="476"/><ellipse cx="313" cy="492" fill="#ADD1B2" rx="11" ry="11" style="stroke:#181818;stroke-width:1.0;"/><path d="M315.7656,487.875 Q315.9219,487.6563 316.1094,487.5469 Q316.2969,487.4375 316.5156,487.4375 Q316.8906,487.4375 317.125,487.7031 Q317.3594,487.9531 317.3594,488.5625 L317.3594,490.0156 Q317.3594,490.625 317.125,490.8906 Q316.8906,491.1563 316.5156,491.1563 Q316.1719,491.1563 315.9688,490.9531 Q315.7656,490.7656 315.6563,490.25 Q315.6094,489.8906 315.4219,489.7031 Q315.0938,489.3281 314.4844,489.1094 Q313.875,488.8906 313.25,488.8906 Q312.4844,488.8906 311.8438,489.2188 Q311.2188,489.5469 310.7188,490.2969 Q310.2344,491.0469 310.2344,492.0781 L310.2344,493.1719 Q310.2344,494.4063 311.125,495.2344 Q312.0156,496.0469 313.6094,496.0469 Q314.5469,496.0469 315.2031,495.7969 Q315.5938,495.6406 316.0156,495.2031 Q316.2813,494.9375 316.4219,494.8594 Q316.5781,494.7813 316.7813,494.7813 Q317.1094,494.7813 317.3594,495.0469 Q317.625,495.2969 317.625,495.6406 Q317.625,495.9844 317.2813,496.3906 Q316.7813,496.9688 315.9844,497.2969 Q314.9063,497.75 313.6094,497.75 Q312.0938,497.75 310.8906,497.125 Q309.9063,496.625 309.2188,495.5625 Q308.5313,494.4844 308.5313,493.2031 L308.5313,492.0469 Q308.5313,490.7188 309.1406,489.5781 Q309.7656,488.4219 310.8594,487.8125 Q311.9531,487.1875 313.1875,487.1875 Q313.9219,487.1875 314.5625,487.3594 Q315.2188,487.5156 315.7656,487.875 Z " fill="#000000"/><text fill="#000000" font-family="sans-serif" font-size="14" lengthAdjust="spacing" textLength="150" x="328" y="497.7285">ShakeDetectorManager</text><line style="stroke:#000000;stroke-width:0.5;" x1="299" x2="481" y1="508" y2="508"/><line style="stroke:#000000;stroke-width:0.5;" x1="299" x2="481" y1="516" y2="516"/></g><!--class GameState--><g id="elem_GameState"><rect codeLine="34" fill="#90EE90" height="48" id="GameState" rx="2.5" ry="2.5" style="stroke:#000000;stroke-width:0.5;" width="105" x="899.5" y="374"/><ellipse cx="914.5" cy="390" fill="#ADD1B2" rx="11" ry="11" style="stroke:#181818;stroke-width:1.0;"/><path d="M917.2656,385.875 Q917.4219,385.6562 917.6094,385.5469 Q917.7969,385.4375 918.0156,385.4375 Q918.3906,385.4375 918.625,385.7031 Q918.8594,385.9531 918.8594,386.5625 L918.8594,388.0156 Q918.8594,388.625 918.625,388.8906 Q918.3906,389.1562 918.0156,389.1562 Q917.6719,389.1562 917.4688,388.9531 Q917.2656,388.7656 917.1563,388.25 Q917.1094,387.8906 916.9219,387.7031 Q916.5938,387.3281 915.9844,387.1094 Q915.375,386.8906 914.75,386.8906 Q913.9844,386.8906 913.3438,387.2187 Q912.7188,387.5469 912.2188,388.2969 Q911.7344,389.0469 911.7344,390.0781 L911.7344,391.1719 Q911.7344,392.4062 912.625,393.2344 Q913.5156,394.0469 915.1094,394.0469 Q916.0469,394.0469 916.7031,393.7969 Q917.0938,393.6406 917.5156,393.2031 Q917.7813,392.9375 917.9219,392.8594 Q918.0781,392.7812 918.2813,392.7812 Q918.6094,392.7812 918.8594,393.0469 Q919.125,393.2969 919.125,393.6406 Q919.125,393.9844 918.7813,394.3906 Q918.2813,394.9687 917.4844,395.2969 Q916.4063,395.75 915.1094,395.75 Q913.5938,395.75 912.3906,395.125 Q911.4063,394.625 910.7188,393.5625 Q910.0313,392.4844 910.0313,391.2031 L910.0313,390.0469 Q910.0313,388.7187 910.6406,387.5781 Q911.2656,386.4219 912.3594,385.8125 Q913.4531,385.1875 914.6875,385.1875 Q915.4219,385.1875 916.0625,385.3594 Q916.7188,385.5156 917.2656,385.875 Z " fill="#000000"/><text fill="#000000" font-family="sans-serif" font-size="14" lengthAdjust="spacing" textLength="71" x="929.5" y="395.7285">GameState</text><line style="stroke:#000000;stroke-width:0.5;" x1="900.5" x2="1003.5" y1="406" y2="406"/><line style="stroke:#000000;stroke-width:0.5;" x1="900.5" x2="1003.5" y1="414" y2="414"/></g><!--class GameStatistics--><g id="elem_GameStatistics"><rect codeLine="35" fill="#90EE90" height="48" id="GameStatistics" rx="2.5" ry="2.5" style="stroke:#000000;stroke-width:0.5;" width="128" x="888" y="68"/><ellipse cx="903" cy="84" fill="#ADD1B2" rx="11" ry="11" style="stroke:#181818;stroke-width:1.0;"/><path d="M905.7656,79.875 Q905.9219,79.6563 906.1094,79.5469 Q906.2969,79.4375 906.5156,79.4375 Q906.8906,79.4375 907.125,79.7031 Q907.3594,79.9531 907.3594,80.5625 L907.3594,82.0156 Q907.3594,82.625 907.125,82.8906 Q906.8906,83.1563 906.5156,83.1563 Q906.1719,83.1563 905.9688,82.9531 Q905.7656,82.7656 905.6563,82.25 Q905.6094,81.8906 905.4219,81.7031 Q905.0938,81.3281 904.4844,81.1094 Q903.875,80.8906 903.25,80.8906 Q902.4844,80.8906 901.8438,81.2188 Q901.2188,81.5469 900.7188,82.2969 Q900.2344,83.0469 900.2344,84.0781 L900.2344,85.1719 Q900.2344,86.4063 901.125,87.2344 Q902.0156,88.0469 903.6094,88.0469 Q904.5469,88.0469 905.2031,87.7969 Q905.5938,87.6406 906.0156,87.2031 Q906.2813,86.9375 906.4219,86.8594 Q906.5781,86.7813 906.7813,86.7813 Q907.1094,86.7813 907.3594,87.0469 Q907.625,87.2969 907.625,87.6406 Q907.625,87.9844 907.2813,88.3906 Q906.7813,88.9688 905.9844,89.2969 Q904.9063,89.75 903.6094,89.75 Q902.0938,89.75 900.8906,89.125 Q899.9063,88.625 899.2188,87.5625 Q898.5313,86.4844 898.5313,85.2031 L898.5313,84.0469 Q898.5313,82.7188 899.1406,81.5781 Q899.7656,80.4219 900.8594,79.8125 Q901.9531,79.1875 903.1875,79.1875 Q903.9219,79.1875 904.5625,79.3594 Q905.2188,79.5156 905.7656,79.875 Z " fill="#000000"/><text fill="#000000" font-family="sans-serif" font-size="14" lengthAdjust="spacing" textLength="94" x="918" y="89.7285">GameStatistics</text><line style="stroke:#000000;stroke-width:0.5;" x1="889" x2="1015" y1="100" y2="100"/><line style="stroke:#000000;stroke-width:0.5;" x1="889" x2="1015" y1="108" y2="108"/></g><!--class PlayerAnalysis--><g id="elem_PlayerAnalysis"><rect codeLine="36" fill="#90EE90" height="48" id="PlayerAnalysis" rx="2.5" ry="2.5" style="stroke:#000000;stroke-width:0.5;" width="126" x="889" y="272"/><ellipse cx="904" cy="288" fill="#ADD1B2" rx="11" ry="11" style="stroke:#181818;stroke-width:1.0;"/><path d="M906.7656,283.875 Q906.9219,283.6562 907.1094,283.5469 Q907.2969,283.4375 907.5156,283.4375 Q907.8906,283.4375 908.125,283.7031 Q908.3594,283.9531 908.3594,284.5625 L908.3594,286.0156 Q908.3594,286.625 908.125,286.8906 Q907.8906,287.1562 907.5156,287.1562 Q907.1719,287.1562 906.9688,286.9531 Q906.7656,286.7656 906.6563,286.25 Q906.6094,285.8906 906.4219,285.7031 Q906.0938,285.3281 905.4844,285.1094 Q904.875,284.8906 904.25,284.8906 Q903.4844,284.8906 902.8438,285.2187 Q902.2188,285.5469 901.7188,286.2969 Q901.2344,287.0469 901.2344,288.0781 L901.2344,289.1719 Q901.2344,290.4062 902.125,291.2344 Q903.0156,292.0469 904.6094,292.0469 Q905.5469,292.0469 906.2031,291.7969 Q906.5938,291.6406 907.0156,291.2031 Q907.2813,290.9375 907.4219,290.8594 Q907.5781,290.7812 907.7813,290.7812 Q908.1094,290.7812 908.3594,291.0469 Q908.625,291.2969 908.625,291.6406 Q908.625,291.9844 908.2813,292.3906 Q907.7813,292.9687 906.9844,293.2969 Q905.9063,293.75 904.6094,293.75 Q903.0938,293.75 901.8906,293.125 Q900.9063,292.625 900.2188,291.5625 Q899.5313,290.4844 899.5313,289.2031 L899.5313,288.0469 Q899.5313,286.7187 900.1406,285.5781 Q900.7656,284.4219 901.8594,283.8125 Q902.9531,283.1875 904.1875,283.1875 Q904.9219,283.1875 905.5625,283.3594 Q906.2188,283.5156 906.7656,283.875 Z " fill="#000000"/><text fill="#000000" font-family="sans-serif" font-size="14" lengthAdjust="spacing" textLength="92" x="919" y="293.7285">PlayerAnalysis</text><line style="stroke:#000000;stroke-width:0.5;" x1="890" x2="1014" y1="304" y2="304"/><line style="stroke:#000000;stroke-width:0.5;" x1="890" x2="1014" y1="312" y2="312"/></g><!--class DecisionPatterns--><g id="elem_DecisionPatterns"><rect codeLine="37" fill="#90EE90" height="48" id="DecisionPatterns" rx="2.5" ry="2.5" style="stroke:#000000;stroke-width:0.5;" width="141" x="881.5" y="119"/><ellipse cx="896.5" cy="135" fill="#ADD1B2" rx="11" ry="11" style="stroke:#181818;stroke-width:1.0;"/><path d="M899.2656,130.875 Q899.4219,130.6563 899.6094,130.5469 Q899.7969,130.4375 900.0156,130.4375 Q900.3906,130.4375 900.625,130.7031 Q900.8594,130.9531 900.8594,131.5625 L900.8594,133.0156 Q900.8594,133.625 900.625,133.8906 Q900.3906,134.1563 900.0156,134.1563 Q899.6719,134.1563 899.4688,133.9531 Q899.2656,133.7656 899.1563,133.25 Q899.1094,132.8906 898.9219,132.7031 Q898.5938,132.3281 897.9844,132.1094 Q897.375,131.8906 896.75,131.8906 Q895.9844,131.8906 895.3438,132.2188 Q894.7188,132.5469 894.2188,133.2969 Q893.7344,134.0469 893.7344,135.0781 L893.7344,136.1719 Q893.7344,137.4063 894.625,138.2344 Q895.5156,139.0469 897.1094,139.0469 Q898.0469,139.0469 898.7031,138.7969 Q899.0938,138.6406 899.5156,138.2031 Q899.7813,137.9375 899.9219,137.8594 Q900.0781,137.7813 900.2813,137.7813 Q900.6094,137.7813 900.8594,138.0469 Q901.125,138.2969 901.125,138.6406 Q901.125,138.9844 900.7813,139.3906 Q900.2813,139.9688 899.4844,140.2969 Q898.4063,140.75 897.1094,140.75 Q895.5938,140.75 894.3906,140.125 Q893.4063,139.625 892.7188,138.5625 Q892.0313,137.4844 892.0313,136.2031 L892.0313,135.0469 Q892.0313,133.7188 892.6406,132.5781 Q893.2656,131.4219 894.3594,130.8125 Q895.4531,130.1875 896.6875,130.1875 Q897.4219,130.1875 898.0625,130.3594 Q898.7188,130.5156 899.2656,130.875 Z " fill="#000000"/><text fill="#000000" font-family="sans-serif" font-size="14" lengthAdjust="spacing" textLength="107" x="911.5" y="140.7285">DecisionPatterns</text><line style="stroke:#000000;stroke-width:0.5;" x1="882.5" x2="1021.5" y1="151" y2="151"/><line style="stroke:#000000;stroke-width:0.5;" x1="882.5" x2="1021.5" y1="159" y2="159"/></g><!--class WinRate--><g id="elem_WinRate"><rect codeLine="38" fill="#90EE90" height="48" id="WinRate" rx="2.5" ry="2.5" style="stroke:#000000;stroke-width:0.5;" width="88" x="908" y="170"/><ellipse cx="923" cy="186" fill="#ADD1B2" rx="11" ry="11" style="stroke:#181818;stroke-width:1.0;"/><path d="M925.7656,181.875 Q925.9219,181.6563 926.1094,181.5469 Q926.2969,181.4375 926.5156,181.4375 Q926.8906,181.4375 927.125,181.7031 Q927.3594,181.9531 927.3594,182.5625 L927.3594,184.0156 Q927.3594,184.625 927.125,184.8906 Q926.8906,185.1563 926.5156,185.1563 Q926.1719,185.1563 925.9688,184.9531 Q925.7656,184.7656 925.6563,184.25 Q925.6094,183.8906 925.4219,183.7031 Q925.0938,183.3281 924.4844,183.1094 Q923.875,182.8906 923.25,182.8906 Q922.4844,182.8906 921.8438,183.2188 Q921.2188,183.5469 920.7188,184.2969 Q920.2344,185.0469 920.2344,186.0781 L920.2344,187.1719 Q920.2344,188.4063 921.125,189.2344 Q922.0156,190.0469 923.6094,190.0469 Q924.5469,190.0469 925.2031,189.7969 Q925.5938,189.6406 926.0156,189.2031 Q926.2813,188.9375 926.4219,188.8594 Q926.5781,188.7813 926.7813,188.7813 Q927.1094,188.7813 927.3594,189.0469 Q927.625,189.2969 927.625,189.6406 Q927.625,189.9844 927.2813,190.3906 Q926.7813,190.9688 925.9844,191.2969 Q924.9063,191.75 923.6094,191.75 Q922.0938,191.75 920.8906,191.125 Q919.9063,190.625 919.2188,189.5625 Q918.5313,188.4844 918.5313,187.2031 L918.5313,186.0469 Q918.5313,184.7188 919.1406,183.5781 Q919.7656,182.4219 920.8594,181.8125 Q921.9531,181.1875 923.1875,181.1875 Q923.9219,181.1875 924.5625,181.3594 Q925.2188,181.5156 925.7656,181.875 Z " fill="#000000"/><text fill="#000000" font-family="sans-serif" font-size="14" lengthAdjust="spacing" textLength="54" x="938" y="191.7285">WinRate</text><line style="stroke:#000000;stroke-width:0.5;" x1="909" x2="995" y1="202" y2="202"/><line style="stroke:#000000;stroke-width:0.5;" x1="909" x2="995" y1="210" y2="210"/></g><!--class TimeMetrics--><g id="elem_TimeMetrics"><rect codeLine="39" fill="#90EE90" height="48" id="TimeMetrics" rx="2.5" ry="2.5" style="stroke:#000000;stroke-width:0.5;" width="110" x="897" y="221"/><ellipse cx="912" cy="237" fill="#ADD1B2" rx="11" ry="11" style="stroke:#181818;stroke-width:1.0;"/><path d="M914.7656,232.875 Q914.9219,232.6562 915.1094,232.5469 Q915.2969,232.4375 915.5156,232.4375 Q915.8906,232.4375 916.125,232.7031 Q916.3594,232.9531 916.3594,233.5625 L916.3594,235.0156 Q916.3594,235.625 916.125,235.8906 Q915.8906,236.1562 915.5156,236.1562 Q915.1719,236.1562 914.9688,235.9531 Q914.7656,235.7656 914.6563,235.25 Q914.6094,234.8906 914.4219,234.7031 Q914.0938,234.3281 913.4844,234.1094 Q912.875,233.8906 912.25,233.8906 Q911.4844,233.8906 910.8438,234.2187 Q910.2188,234.5469 909.7188,235.2969 Q909.2344,236.0469 909.2344,237.0781 L909.2344,238.1719 Q909.2344,239.4062 910.125,240.2344 Q911.0156,241.0469 912.6094,241.0469 Q913.5469,241.0469 914.2031,240.7969 Q914.5938,240.6406 915.0156,240.2031 Q915.2813,239.9375 915.4219,239.8594 Q915.5781,239.7812 915.7813,239.7812 Q916.1094,239.7812 916.3594,240.0469 Q916.625,240.2969 916.625,240.6406 Q916.625,240.9844 916.2813,241.3906 Q915.7813,241.9687 914.9844,242.2969 Q913.9063,242.75 912.6094,242.75 Q911.0938,242.75 909.8906,242.125 Q908.9063,241.625 908.2188,240.5625 Q907.5313,239.4844 907.5313,238.2031 L907.5313,237.0469 Q907.5313,235.7187 908.1406,234.5781 Q908.7656,233.4219 909.8594,232.8125 Q910.9531,232.1875 912.1875,232.1875 Q912.9219,232.1875 913.5625,232.3594 Q914.2188,232.5156 914.7656,232.875 Z " fill="#000000"/><text fill="#000000" font-family="sans-serif" font-size="14" lengthAdjust="spacing" textLength="76" x="927" y="242.7285">TimeMetrics</text><line style="stroke:#000000;stroke-width:0.5;" x1="898" x2="1006" y1="253" y2="253"/><line style="stroke:#000000;stroke-width:0.5;" x1="898" x2="1006" y1="261" y2="261"/></g><!--class DiceDetectionResult--><g id="elem_DiceDetectionResult"><rect codeLine="40" fill="#90EE90" height="48" id="DiceDetectionResult" rx="2.5" ry="2.5" style="stroke:#000000;stroke-width:0.5;" width="162" x="871" y="323"/><ellipse cx="886" cy="339" fill="#ADD1B2" rx="11" ry="11" style="stroke:#181818;stroke-width:1.0;"/><path d="M888.7656,334.875 Q888.9219,334.6562 889.1094,334.5469 Q889.2969,334.4375 889.5156,334.4375 Q889.8906,334.4375 890.125,334.7031 Q890.3594,334.9531 890.3594,335.5625 L890.3594,337.0156 Q890.3594,337.625 890.125,337.8906 Q889.8906,338.1562 889.5156,338.1562 Q889.1719,338.1562 888.9688,337.9531 Q888.7656,337.7656 888.6563,337.25 Q888.6094,336.8906 888.4219,336.7031 Q888.0938,336.3281 887.4844,336.1094 Q886.875,335.8906 886.25,335.8906 Q885.4844,335.8906 884.8438,336.2187 Q884.2188,336.5469 883.7188,337.2969 Q883.2344,338.0469 883.2344,339.0781 L883.2344,340.1719 Q883.2344,341.4062 884.125,342.2344 Q885.0156,343.0469 886.6094,343.0469 Q887.5469,343.0469 888.2031,342.7969 Q888.5938,342.6406 889.0156,342.2031 Q889.2813,341.9375 889.4219,341.8594 Q889.5781,341.7812 889.7813,341.7812 Q890.1094,341.7812 890.3594,342.0469 Q890.625,342.2969 890.625,342.6406 Q890.625,342.9844 890.2813,343.3906 Q889.7813,343.9687 888.9844,344.2969 Q887.9063,344.75 886.6094,344.75 Q885.0938,344.75 883.8906,344.125 Q882.9063,343.625 882.2188,342.5625 Q881.5313,341.4844 881.5313,340.2031 L881.5313,339.0469 Q881.5313,337.7187 882.1406,336.5781 Q882.7656,335.4219 883.8594,334.8125 Q884.9531,334.1875 886.1875,334.1875 Q886.9219,334.1875 887.5625,334.3594 Q888.2188,334.5156 888.7656,334.875 Z " fill="#000000"/><text fill="#000000" font-family="sans-serif" font-size="14" lengthAdjust="spacing" textLength="128" x="901" y="344.7285">DiceDetectionResult</text><line style="stroke:#000000;stroke-width:0.5;" x1="872" x2="1032" y1="355" y2="355"/><line style="stroke:#000000;stroke-width:0.5;" x1="872" x2="1032" y1="363" y2="363"/></g><!--class AppViewModel--><g id="elem_AppViewModel"><rect codeLine="45" fill="#90EE90" height="48" id="AppViewModel" rx="2.5" ry="2.5" style="stroke:#000000;stroke-width:0.5;" width="126" x="39.5" y="374"/><ellipse cx="54.5" cy="390" fill="#ADD1B2" rx="11" ry="11" style="stroke:#181818;stroke-width:1.0;"/><path d="M57.2656,385.875 Q57.4219,385.6562 57.6094,385.5469 Q57.7969,385.4375 58.0156,385.4375 Q58.3906,385.4375 58.625,385.7031 Q58.8594,385.9531 58.8594,386.5625 L58.8594,388.0156 Q58.8594,388.625 58.625,388.8906 Q58.3906,389.1562 58.0156,389.1562 Q57.6719,389.1562 57.4688,388.9531 Q57.2656,388.7656 57.1563,388.25 Q57.1094,387.8906 56.9219,387.7031 Q56.5938,387.3281 55.9844,387.1094 Q55.375,386.8906 54.75,386.8906 Q53.9844,386.8906 53.3438,387.2187 Q52.7188,387.5469 52.2188,388.2969 Q51.7344,389.0469 51.7344,390.0781 L51.7344,391.1719 Q51.7344,392.4062 52.625,393.2344 Q53.5156,394.0469 55.1094,394.0469 Q56.0469,394.0469 56.7031,393.7969 Q57.0938,393.6406 57.5156,393.2031 Q57.7813,392.9375 57.9219,392.8594 Q58.0781,392.7812 58.2813,392.7812 Q58.6094,392.7812 58.8594,393.0469 Q59.125,393.2969 59.125,393.6406 Q59.125,393.9844 58.7813,394.3906 Q58.2813,394.9687 57.4844,395.2969 Q56.4063,395.75 55.1094,395.75 Q53.5938,395.75 52.3906,395.125 Q51.4063,394.625 50.7188,393.5625 Q50.0313,392.4844 50.0313,391.2031 L50.0313,390.0469 Q50.0313,388.7187 50.6406,387.5781 Q51.2656,386.4219 52.3594,385.8125 Q53.4531,385.1875 54.6875,385.1875 Q55.4219,385.1875 56.0625,385.3594 Q56.7188,385.5156 57.2656,385.875 Z " fill="#000000"/><text fill="#000000" font-family="sans-serif" font-size="14" lengthAdjust="spacing" textLength="92" x="69.5" y="395.7285">AppViewModel</text><line style="stroke:#000000;stroke-width:0.5;" x1="40.5" x2="164.5" y1="406" y2="406"/><line style="stroke:#000000;stroke-width:0.5;" x1="40.5" x2="164.5" y1="414" y2="414"/></g><!--class GameViewModel--><g id="elem_GameViewModel"><rect codeLine="46" fill="#90EE90" height="48" id="GameViewModel" rx="2.5" ry="2.5" style="stroke:#000000;stroke-width:0.5;" width="139" x="33" y="425"/><ellipse cx="48" cy="441" fill="#ADD1B2" rx="11" ry="11" style="stroke:#181818;stroke-width:1.0;"/><path d="M50.7656,436.875 Q50.9219,436.6562 51.1094,436.5469 Q51.2969,436.4375 51.5156,436.4375 Q51.8906,436.4375 52.125,436.7031 Q52.3594,436.9531 52.3594,437.5625 L52.3594,439.0156 Q52.3594,439.625 52.125,439.8906 Q51.8906,440.1562 51.5156,440.1562 Q51.1719,440.1562 50.9688,439.9531 Q50.7656,439.7656 50.6563,439.25 Q50.6094,438.8906 50.4219,438.7031 Q50.0938,438.3281 49.4844,438.1094 Q48.875,437.8906 48.25,437.8906 Q47.4844,437.8906 46.8438,438.2187 Q46.2188,438.5469 45.7188,439.2969 Q45.2344,440.0469 45.2344,441.0781 L45.2344,442.1719 Q45.2344,443.4062 46.125,444.2344 Q47.0156,445.0469 48.6094,445.0469 Q49.5469,445.0469 50.2031,444.7969 Q50.5938,444.6406 51.0156,444.2031 Q51.2813,443.9375 51.4219,443.8594 Q51.5781,443.7812 51.7813,443.7812 Q52.1094,443.7812 52.3594,444.0469 Q52.625,444.2969 52.625,444.6406 Q52.625,444.9844 52.2813,445.3906 Q51.7813,445.9687 50.9844,446.2969 Q49.9063,446.75 48.6094,446.75 Q47.0938,446.75 45.8906,446.125 Q44.9063,445.625 44.2188,444.5625 Q43.5313,443.4844 43.5313,442.2031 L43.5313,441.0469 Q43.5313,439.7187 44.1406,438.5781 Q44.7656,437.4219 45.8594,436.8125 Q46.9531,436.1875 48.1875,436.1875 Q48.9219,436.1875 49.5625,436.3594 Q50.2188,436.5156 50.7656,436.875 Z " fill="#000000"/><text fill="#000000" font-family="sans-serif" font-size="14" lengthAdjust="spacing" textLength="105" x="63" y="446.7285">GameViewModel</text><line style="stroke:#000000;stroke-width:0.5;" x1="34" x2="171" y1="457" y2="457"/><line style="stroke:#000000;stroke-width:0.5;" x1="34" x2="171" y1="465" y2="465"/></g><!--class DetectionViewModel--><g id="elem_DetectionViewModel"><rect codeLine="47" fill="#90EE90" height="48" id="DetectionViewModel" rx="2.5" ry="2.5" style="stroke:#000000;stroke-width:0.5;" width="161" x="22" y="476"/><ellipse cx="37" cy="492" fill="#ADD1B2" rx="11" ry="11" style="stroke:#181818;stroke-width:1.0;"/><path d="M39.7656,487.875 Q39.9219,487.6563 40.1094,487.5469 Q40.2969,487.4375 40.5156,487.4375 Q40.8906,487.4375 41.125,487.7031 Q41.3594,487.9531 41.3594,488.5625 L41.3594,490.0156 Q41.3594,490.625 41.125,490.8906 Q40.8906,491.1563 40.5156,491.1563 Q40.1719,491.1563 39.9688,490.9531 Q39.7656,490.7656 39.6563,490.25 Q39.6094,489.8906 39.4219,489.7031 Q39.0938,489.3281 38.4844,489.1094 Q37.875,488.8906 37.25,488.8906 Q36.4844,488.8906 35.8438,489.2188 Q35.2188,489.5469 34.7188,490.2969 Q34.2344,491.0469 34.2344,492.0781 L34.2344,493.1719 Q34.2344,494.4063 35.125,495.2344 Q36.0156,496.0469 37.6094,496.0469 Q38.5469,496.0469 39.2031,495.7969 Q39.5938,495.6406 40.0156,495.2031 Q40.2813,494.9375 40.4219,494.8594 Q40.5781,494.7813 40.7813,494.7813 Q41.1094,494.7813 41.3594,495.0469 Q41.625,495.2969 41.625,495.6406 Q41.625,495.9844 41.2813,496.3906 Q40.7813,496.9688 39.9844,497.2969 Q38.9063,497.75 37.6094,497.75 Q36.0938,497.75 34.8906,497.125 Q33.9063,496.625 33.2188,495.5625 Q32.5313,494.4844 32.5313,493.2031 L32.5313,492.0469 Q32.5313,490.7188 33.1406,489.5781 Q33.7656,488.4219 34.8594,487.8125 Q35.9531,487.1875 37.1875,487.1875 Q37.9219,487.1875 38.5625,487.3594 Q39.2188,487.5156 39.7656,487.875 Z " fill="#000000"/><text fill="#000000" font-family="sans-serif" font-size="14" lengthAdjust="spacing" textLength="127" x="52" y="497.7285">DetectionViewModel</text><line style="stroke:#000000;stroke-width:0.5;" x1="23" x2="182" y1="508" y2="508"/><line style="stroke:#000000;stroke-width:0.5;" x1="23" x2="182" y1="516" y2="516"/></g><!--class StatisticsRepository--><g id="elem_StatisticsRepository"><rect codeLine="52" fill="#90EE90" height="48" id="StatisticsRepository" rx="2.5" ry="2.5" style="stroke:#000000;stroke-width:0.5;" width="158" x="311" y="44"/><ellipse cx="326" cy="60" fill="#B4A7E5" rx="11" ry="11" style="stroke:#181818;stroke-width:1.0;"/><path d="M326.9531,56.6406 L326.9531,63.2969 L328.6719,63.2969 Q329.2813,63.2969 329.5469,63.5313 Q329.8125,63.7656 329.8125,64.1563 Q329.8125,64.5313 329.5469,64.7656 Q329.2813,65 328.6719,65 L323.5313,65 Q322.9219,65 322.6563,64.7656 Q322.3906,64.5313 322.3906,64.1406 Q322.3906,63.7656 322.6563,63.5313 Q322.9219,63.2969 323.5313,63.2969 L325.25,63.2969 L325.25,56.6406 L323.5313,56.6406 Q322.9219,56.6406 322.6563,56.4063 Q322.3906,56.1719 322.3906,55.7813 Q322.3906,55.4063 322.6563,55.1719 Q322.9219,54.9375 323.5313,54.9375 L328.6719,54.9375 Q329.2813,54.9375 329.5469,55.1719 Q329.8125,55.4063 329.8125,55.7813 Q329.8125,56.1719 329.5469,56.4063 Q329.2813,56.6406 328.6719,56.6406 L326.9531,56.6406 Z " fill="#000000"/><text fill="#000000" font-family="sans-serif" font-size="14" font-style="italic" lengthAdjust="spacing" textLength="124" x="341" y="65.7285">StatisticsRepository</text><line style="stroke:#000000;stroke-width:0.5;" x1="312" x2="468" y1="76" y2="76"/><line style="stroke:#000000;stroke-width:0.5;" x1="312" x2="468" y1="84" y2="84"/></g><!--class StatisticsRepositoryImpl--><g id="elem_StatisticsRepositoryImpl"><rect codeLine="53" fill="#90EE90" height="48" id="StatisticsRepositoryImpl" rx="2.5" ry="2.5" style="stroke:#000000;stroke-width:0.5;" width="183" x="565" y="44"/><ellipse cx="580" cy="60" fill="#ADD1B2" rx="11" ry="11" style="stroke:#181818;stroke-width:1.0;"/><path d="M582.7656,55.875 Q582.9219,55.6563 583.1094,55.5469 Q583.2969,55.4375 583.5156,55.4375 Q583.8906,55.4375 584.125,55.7031 Q584.3594,55.9531 584.3594,56.5625 L584.3594,58.0156 Q584.3594,58.625 584.125,58.8906 Q583.8906,59.1563 583.5156,59.1563 Q583.1719,59.1563 582.9688,58.9531 Q582.7656,58.7656 582.6563,58.25 Q582.6094,57.8906 582.4219,57.7031 Q582.0938,57.3281 581.4844,57.1094 Q580.875,56.8906 580.25,56.8906 Q579.4844,56.8906 578.8438,57.2188 Q578.2188,57.5469 577.7188,58.2969 Q577.2344,59.0469 577.2344,60.0781 L577.2344,61.1719 Q577.2344,62.4063 578.125,63.2344 Q579.0156,64.0469 580.6094,64.0469 Q581.5469,64.0469 582.2031,63.7969 Q582.5938,63.6406 583.0156,63.2031 Q583.2813,62.9375 583.4219,62.8594 Q583.5781,62.7813 583.7813,62.7813 Q584.1094,62.7813 584.3594,63.0469 Q584.625,63.2969 584.625,63.6406 Q584.625,63.9844 584.2813,64.3906 Q583.7813,64.9688 582.9844,65.2969 Q581.9063,65.75 580.6094,65.75 Q579.0938,65.75 577.8906,65.125 Q576.9063,64.625 576.2188,63.5625 Q575.5313,62.4844 575.5313,61.2031 L575.5313,60.0469 Q575.5313,58.7188 576.1406,57.5781 Q576.7656,56.4219 577.8594,55.8125 Q578.9531,55.1875 580.1875,55.1875 Q580.9219,55.1875 581.5625,55.3594 Q582.2188,55.5156 582.7656,55.875 Z " fill="#000000"/><text fill="#000000" font-family="sans-serif" font-size="14" lengthAdjust="spacing" textLength="149" x="595" y="65.7285">StatisticsRepositoryImpl</text><line style="stroke:#000000;stroke-width:0.5;" x1="566" x2="747" y1="76" y2="76"/><line style="stroke:#000000;stroke-width:0.5;" x1="566" x2="747" y1="84" y2="84"/></g><!--class RoboflowRepository--><g id="elem_RoboflowRepository"><rect codeLine="55" fill="#90EE90" height="48" id="RoboflowRepository" rx="2.5" ry="2.5" style="stroke:#000000;stroke-width:0.5;" width="160" x="310" y="95"/><ellipse cx="325" cy="111" fill="#B4A7E5" rx="11" ry="11" style="stroke:#181818;stroke-width:1.0;"/><path d="M325.9531,107.6406 L325.9531,114.2969 L327.6719,114.2969 Q328.2813,114.2969 328.5469,114.5313 Q328.8125,114.7656 328.8125,115.1563 Q328.8125,115.5313 328.5469,115.7656 Q328.2813,116 327.6719,116 L322.5313,116 Q321.9219,116 321.6563,115.7656 Q321.3906,115.5313 321.3906,115.1406 Q321.3906,114.7656 321.6563,114.5313 Q321.9219,114.2969 322.5313,114.2969 L324.25,114.2969 L324.25,107.6406 L322.5313,107.6406 Q321.9219,107.6406 321.6563,107.4063 Q321.3906,107.1719 321.3906,106.7813 Q321.3906,106.4063 321.6563,106.1719 Q321.9219,105.9375 322.5313,105.9375 L327.6719,105.9375 Q328.2813,105.9375 328.5469,106.1719 Q328.8125,106.4063 328.8125,106.7813 Q328.8125,107.1719 328.5469,107.4063 Q328.2813,107.6406 327.6719,107.6406 L325.9531,107.6406 Z " fill="#000000"/><text fill="#000000" font-family="sans-serif" font-size="14" font-style="italic" lengthAdjust="spacing" textLength="126" x="340" y="116.7285">RoboflowRepository</text><line style="stroke:#000000;stroke-width:0.5;" x1="311" x2="469" y1="127" y2="127"/><line style="stroke:#000000;stroke-width:0.5;" x1="311" x2="469" y1="135" y2="135"/></g><!--class RoboflowRepositoryImpl--><g id="elem_RoboflowRepositoryImpl"><rect codeLine="56" fill="#90EE90" height="48" id="RoboflowRepositoryImpl" rx="2.5" ry="2.5" style="stroke:#000000;stroke-width:0.5;" width="185" x="564" y="95"/><ellipse cx="579" cy="111" fill="#ADD1B2" rx="11" ry="11" style="stroke:#181818;stroke-width:1.0;"/><path d="M581.7656,106.875 Q581.9219,106.6563 582.1094,106.5469 Q582.2969,106.4375 582.5156,106.4375 Q582.8906,106.4375 583.125,106.7031 Q583.3594,106.9531 583.3594,107.5625 L583.3594,109.0156 Q583.3594,109.625 583.125,109.8906 Q582.8906,110.1563 582.5156,110.1563 Q582.1719,110.1563 581.9688,109.9531 Q581.7656,109.7656 581.6563,109.25 Q581.6094,108.8906 581.4219,108.7031 Q581.0938,108.3281 580.4844,108.1094 Q579.875,107.8906 579.25,107.8906 Q578.4844,107.8906 577.8438,108.2188 Q577.2188,108.5469 576.7188,109.2969 Q576.2344,110.0469 576.2344,111.0781 L576.2344,112.1719 Q576.2344,113.4063 577.125,114.2344 Q578.0156,115.0469 579.6094,115.0469 Q580.5469,115.0469 581.2031,114.7969 Q581.5938,114.6406 582.0156,114.2031 Q582.2813,113.9375 582.4219,113.8594 Q582.5781,113.7813 582.7813,113.7813 Q583.1094,113.7813 583.3594,114.0469 Q583.625,114.2969 583.625,114.6406 Q583.625,114.9844 583.2813,115.3906 Q582.7813,115.9688 581.9844,116.2969 Q580.9063,116.75 579.6094,116.75 Q578.0938,116.75 576.8906,116.125 Q575.9063,115.625 575.2188,114.5625 Q574.5313,113.4844 574.5313,112.2031 L574.5313,111.0469 Q574.5313,109.7188 575.1406,108.5781 Q575.7656,107.4219 576.8594,106.8125 Q577.9531,106.1875 579.1875,106.1875 Q579.9219,106.1875 580.5625,106.3594 Q581.2188,106.5156 581.7656,106.875 Z " fill="#000000"/><text fill="#000000" font-family="sans-serif" font-size="14" lengthAdjust="spacing" textLength="151" x="594" y="116.7285">RoboflowRepositoryImpl</text><line style="stroke:#000000;stroke-width:0.5;" x1="565" x2="748" y1="127" y2="127"/><line style="stroke:#000000;stroke-width:0.5;" x1="565" x2="748" y1="135" y2="135"/></g><!--reverse link StatisticsRepository to StatisticsRepositoryImpl--><g id="link_StatisticsRepository_StatisticsRepositoryImpl"><path d="M489.54,68 C514.22,68 540.58,68 564.85,68 " fill="none" id="StatisticsRepository-backto-StatisticsRepositoryImpl" style="stroke:#000000;stroke-width:1.0;stroke-dasharray:7.0,7.0;"/><polygon fill="none" points="489.29,75,469.29,68,489.29,61,489.29,75" style="stroke:#000000;stroke-width:1.0;"/></g><!--reverse link RoboflowRepository to RoboflowRepositoryImpl--><g id="link_RoboflowRepository_RoboflowRepositoryImpl"><path d="M490.28,119 C514.42,119 540.12,119 563.89,119 " fill="none" id="RoboflowRepository-backto-RoboflowRepositoryImpl" style="stroke:#000000;stroke-width:1.0;stroke-dasharray:7.0,7.0;"/><polygon fill="none" points="490,126,470,119,490,112,490,126" style="stroke:#000000;stroke-width:1.0;"/></g><!--link AppViewModel to DataStoreManager--><g id="link_AppViewModel_DataStoreManager"><path codeLine="60" d="M114.29,373.8 C130.66,340.33 165.23,281.1 215,255 C242.99,240.32 277.11,235.96 307.69,235.94 " fill="none" id="AppViewModel-to-DataStoreManager" style="stroke:#000000;stroke-width:1.0;"/><polygon fill="#000000" points="312.97,235.97,304.0046,231.893,307.9702,235.9271,303.936,239.8927,312.97,235.97" style="stroke:#000000;stroke-width:1.0;"/><text fill="#000000" font-family="sans-serif" font-size="13" lengthAdjust="spacing" textLength="46" x="217.5" y="235.4951">Manage</text></g><!--link GameViewModel to MyGameManager--><g id="link_GameViewModel_MyGameManager"><path codeLine="61" d="M172.25,455.03 C185.58,459.35 198.13,466.22 207,477 C223.13,496.62 201.53,569.47 215,591 C231.05,616.66 245.9,613.75 274,625 C285.96,629.79 298.95,633.91 311.76,637.41 " fill="none" id="GameViewModel-to-MyGameManager" style="stroke:#000000;stroke-width:1.0;"/><polygon fill="#000000" points="316.85,638.76,309.1777,632.5845,312.0174,637.477,307.1249,640.3167,316.85,638.76" style="stroke:#000000;stroke-width:1.0;"/><text fill="#000000" font-family="sans-serif" font-size="13" lengthAdjust="spacing" textLength="23" x="229" y="586.4951">Use</text></g><!--link GameViewModel to PigGameManager--><g id="link_GameViewModel_PigGameManager"><path codeLine="62" d="M172.18,457.84 C184.88,462.03 197.2,468.13 207,477 C214.41,483.7 208.07,490.81 215,498 C234.76,518.51 246.96,514.05 274,523 C285.8,526.91 298.44,530.53 310.86,533.79 " fill="none" id="GameViewModel-to-PigGameManager" style="stroke:#000000;stroke-width:1.0;"/><polygon fill="#000000" points="315.8,535.07,308.0938,528.937,310.9604,533.8137,306.0837,536.6803,315.8,535.07" style="stroke:#000000;stroke-width:1.0;"/><text fill="#000000" font-family="sans-serif" font-size="13" lengthAdjust="spacing" textLength="23" x="229" y="493.4951">Use</text></g><!--link GameViewModel to GreedGameManager--><g id="link_GameViewModel_GreedGameManager"><path codeLine="63" d="M172.09,455.48 C185.34,459.79 197.9,466.54 207,477 C225.8,498.64 198.99,517.22 215,541 C231.78,565.92 246.04,563.01 274,574 C282.63,577.39 291.79,580.46 301.03,583.21 " fill="none" id="GameViewModel-to-GreedGameManager" style="stroke:#000000;stroke-width:1.0;"/><polygon fill="#000000" points="305.87,584.62,298.35,578.26,301.07,583.22,296.11,585.94,305.87,584.62" style="stroke:#000000;stroke-width:1.0;"/><text fill="#000000" font-family="sans-serif" font-size="13" lengthAdjust="spacing" textLength="23" x="229" y="536.4951">Use</text></g><!--link GameViewModel to BalutGameManager--><g id="link_GameViewModel_BalutGameManager"><path codeLine="64" d="M172.07,442.51 C185.32,438.2 197.89,431.46 207,421 C225.54,399.72 199.36,381.5 215,358 C231.77,332.81 245.9,335.25 274,324 C283.84,320.06 294.39,316.57 304.96,313.51 " fill="none" id="GameViewModel-to-BalutGameManager" style="stroke:#000000;stroke-width:1.0;"/><polygon fill="#000000" points="309.81,312.14,300.0574,310.7664,305.0024,313.5136,302.2552,318.4586,309.81,312.14" style="stroke:#000000;stroke-width:1.0;"/><text fill="#000000" font-family="sans-serif" font-size="13" lengthAdjust="spacing" textLength="23" x="229" y="323.4951">Use</text></g><!--link GameViewModel to DiceManager--><g id="link_GameViewModel_DiceManager"><path codeLine="65" d="M172.06,440.03 C184.77,435.86 197.13,429.79 207,421 C214.15,414.64 208.35,407.89 215,401 C234.91,380.39 246.86,384.21 274,375 C290.49,369.41 308.66,364.45 325.6,360.32 " fill="none" id="GameViewModel-to-DiceManager" style="stroke:#000000;stroke-width:1.0;"/><polygon fill="#000000" points="330.81,359.07,321.123,357.2916,325.9494,360.2423,322.9987,365.0686,330.81,359.07" style="stroke:#000000;stroke-width:1.0;"/><text fill="#000000" font-family="sans-serif" font-size="13" lengthAdjust="spacing" textLength="22" x="229.5" y="373.4951">Roll</text></g><!--link GameViewModel to StatisticsManager--><g id="link_GameViewModel_StatisticsManager"><path codeLine="66" d="M172.2,436.67 C186.35,434.13 201.16,431.48 215,429 C246.55,423.36 281.32,417.16 311.44,411.8 " fill="none" id="GameViewModel-to-StatisticsManager" style="stroke:#000000;stroke-width:1.0;"/><polygon fill="#000000" points="316.61,410.88,307.051,408.5081,311.6864,411.7506,308.4439,416.3859,316.61,410.88" style="stroke:#000000;stroke-width:1.0;"/><text fill="#000000" font-family="sans-serif" font-size="13" lengthAdjust="spacing" textLength="47" x="217" y="416.4951">Analyze</text></g><!--link GameViewModel to SettingsManager--><g id="link_GameViewModel_SettingsManager"><path codeLine="67" d="M172.25,449 C215.14,449 270.36,449 314.33,449 " fill="none" id="GameViewModel-to-SettingsManager" style="stroke:#000000;stroke-width:1.0;"/><polygon fill="#000000" points="319.36,449,310.36,445,314.36,449,310.36,453,319.36,449" style="stroke:#000000;stroke-width:1.0;"/><text fill="#000000" font-family="sans-serif" font-size="13" lengthAdjust="spacing" textLength="44" x="218.5" y="444.4951">Access</text></g><!--link GameViewModel to ShakeDetectorManager--><g id="link_GameViewModel_ShakeDetectorManager"><path codeLine="68" d="M172.2,461.34 C186.35,463.88 201.16,466.53 215,469 C240.2,473.51 267.46,478.37 292.76,482.88 " fill="none" id="GameViewModel-to-ShakeDetectorManager" style="stroke:#000000;stroke-width:1.0;"/><polygon fill="#000000" points="297.79,483.77,289.6239,478.2641,292.8664,482.8994,288.231,486.1419,297.79,483.77" style="stroke:#000000;stroke-width:1.0;"/><text fill="#000000" font-family="sans-serif" font-size="13" lengthAdjust="spacing" textLength="38" x="221.5" y="464.4951">Detect</text></g><!--link StatisticsManager to StatisticsRepository--><g id="link_StatisticsManager_StatisticsRepository"><path codeLine="70" d="M316.92,391.32 C301.42,387.07 286.1,380.4 274,370 C249.96,349.35 253.11,335.1 247,304 C239.88,267.79 225.02,149.83 274,96 C282.62,86.53 293.83,80 305.89,75.55 " fill="none" id="StatisticsManager-to-StatisticsRepository" style="stroke:#000000;stroke-width:1.0;"/><polygon fill="#000000" points="310.73,73.88,300.918,73.0288,306.0025,75.5082,303.5231,80.5927,310.73,73.88" style="stroke:#000000;stroke-width:1.0;"/><text fill="#000000" font-family="sans-serif" font-size="13" lengthAdjust="spacing" textLength="31" x="225" y="299.4951">Store</text></g><!--link StatisticsRepositoryImpl to GameStatistics--><g id="link_StatisticsRepositoryImpl_GameStatistics"><path codeLine="71" d="M748.36,75.43 C791.7,78.98 842.69,83.15 882.67,86.42 " fill="none" id="StatisticsRepositoryImpl-to-GameStatistics" style="stroke:#000000;stroke-width:1.0;"/><polygon fill="#000000" points="887.99,86.85,879.3387,82.1431,883.006,86.4501,878.6989,90.1174,887.99,86.85" style="stroke:#000000;stroke-width:1.0;"/><text fill="#000000" font-family="sans-serif" font-size="13" lengthAdjust="spacing" textLength="42" x="789" y="74.4951">Provide</text></g><!--link StatisticsRepositoryImpl to PlayerAnalysis--><g id="link_StatisticsRepositoryImpl_PlayerAnalysis"><path codeLine="72" d="M748.04,77.62 C757.57,82 766.23,87.95 773,96 C790.35,116.62 766.99,193.99 781,217 C796.66,242.72 818.57,229.89 839,252 C844.39,257.84 840.84,262.97 847,268 C857.64,276.7 870.74,282.71 884.01,286.86 " fill="none" id="StatisticsRepositoryImpl-to-PlayerAnalysis" style="stroke:#000000;stroke-width:1.0;"/><polygon fill="#000000" points="888.9,288.3,881.4026,281.9133,884.105,286.883,879.1354,289.5853,888.9,288.3" style="stroke:#000000;stroke-width:1.0;"/><text fill="#000000" font-family="sans-serif" font-size="13" lengthAdjust="spacing" textLength="47" x="786.5" y="212.4951">Analyze</text></g><!--link StatisticsRepositoryImpl to DecisionPatterns--><g id="link_StatisticsRepositoryImpl_DecisionPatterns"><path codeLine="73" d="M748.26,85.52 C756.83,88.5 765.22,91.97 773,96 C777.19,98.18 776.8,100.84 781,103 C797.84,111.66 838.71,121.39 876.15,129.09 " fill="none" id="StatisticsRepositoryImpl-to-DecisionPatterns" style="stroke:#000000;stroke-width:1.0;"/><polygon fill="#000000" points="881.17,130.11,873.1516,124.3911,876.271,129.1102,871.5519,132.2296,881.17,130.11" style="stroke:#000000;stroke-width:1.0;"/><text fill="#000000" font-family="sans-serif" font-size="13" lengthAdjust="spacing" textLength="41" x="789.5" y="98.4951">Predict</text></g><!--link StatisticsRepositoryImpl to WinRate--><g id="link_StatisticsRepositoryImpl_WinRate"><path codeLine="74" d="M748.06,78.74 C757.4,82.95 766.01,88.56 773,96 C786.91,110.8 767.2,126.1 781,141 C799.09,160.54 816.65,141.53 839,156 C843.78,159.1 842.24,162.89 847,166 C863.59,176.86 884.28,183.53 902.82,187.61 " fill="none" id="StatisticsRepositoryImpl-to-WinRate" style="stroke:#000000;stroke-width:1.0;"/><polygon fill="#000000" points="907.99,188.7,900.0071,182.9317,903.0973,187.6699,898.359,190.7601,907.99,188.7" style="stroke:#000000;stroke-width:1.0;"/><text fill="#000000" font-family="sans-serif" font-size="13" lengthAdjust="spacing" textLength="54" x="783" y="136.4951">Calculate</text></g><!--link StatisticsRepositoryImpl to TimeMetrics--><g id="link_StatisticsRepositoryImpl_TimeMetrics"><path codeLine="75" d="M748.06,77.97 C757.52,82.3 766.16,88.14 773,96 C784.73,109.48 770.02,161.9 781,176 C797.84,197.63 819.3,177.94 839,197 C845.88,203.66 839.84,210.64 847,217 C859.48,228.09 875.9,234.85 891.99,238.95 " fill="none" id="StatisticsRepositoryImpl-to-TimeMetrics" style="stroke:#000000;stroke-width:1.0;"/><polygon fill="#000000" points="896.97,240.14,889.1587,234.1414,892.1094,238.9677,887.283,241.9184,896.97,240.14" style="stroke:#000000;stroke-width:1.0;"/><text fill="#000000" font-family="sans-serif" font-size="13" lengthAdjust="spacing" textLength="32" x="794" y="171.4951">Track</text></g><!--link DetectionViewModel to DiceDetectionResult--><g id="link_DetectionViewModel_DiceDetectionResult"><path codeLine="77" d="M116.45,524.03 C140.75,566.23 197.73,652.3 274,685 C368.77,725.64 419.34,740.88 506,685 C558.49,651.16 517.64,598.85 564,557 C636.72,491.36 688.09,535.85 773,487 C806.85,467.53 820.33,463.3 839,429 C850.6,407.69 830.87,393.12 847,375 C852.46,368.87 859.1,364.02 866.36,360.19 " fill="none" id="DetectionViewModel-to-DiceDetectionResult" style="stroke:#000000;stroke-width:1.0;"/><polygon fill="#000000" points="870.96,357.94,861.1182,358.3117,866.4708,360.1417,864.6409,365.4944,870.96,357.94" style="stroke:#000000;stroke-width:1.0;"/><text fill="#000000" font-family="sans-serif" font-size="13" lengthAdjust="spacing" textLength="38" x="516" y="561.4951">Detect</text></g><!--link DetectionViewModel to RoboflowRepository--><g id="link_DetectionViewModel_RoboflowRepository"><path codeLine="78" d="M183.15,490 C192.33,485.74 200.66,479.93 207,472 C220.06,455.67 201.22,299.73 215,284 C230.17,266.69 250.11,291.65 266,275 C285.19,254.91 260.51,237.29 274,213 C289.5,185.09 316.9,162.2 341.07,145.99 " fill="none" id="DetectionViewModel-to-RoboflowRepository" style="stroke:#000000;stroke-width:1.0;"/><polygon fill="#000000" points="345.54,143.04,335.8262,144.6656,341.3688,145.797,340.2374,151.3396,345.54,143.04" style="stroke:#000000;stroke-width:1.0;"/><text fill="#000000" font-family="sans-serif" font-size="13" lengthAdjust="spacing" textLength="23" x="229" y="270.4951">Use</text></g><!--link RoboflowRepositoryImpl to DiceDetectionResult--><g id="link_RoboflowRepositoryImpl_DiceDetectionResult"><path codeLine="79" d="M671.75,143.25 C699.22,187.39 764.16,279.91 847,319 C853,321.83 859.33,324.42 865.78,326.77 " fill="none" id="RoboflowRepositoryImpl-to-DiceDetectionResult" style="stroke:#000000;stroke-width:1.0;"/><polygon fill="#000000" points="870.74,328.52,863.5758,321.7617,866.0229,326.8619,860.9228,329.309,870.74,328.52" style="stroke:#000000;stroke-width:1.0;"/><text fill="#000000" font-family="sans-serif" font-size="13" lengthAdjust="spacing" textLength="47" x="786.5" y="274.4951">Analyze</text></g><!--link MyGameManager to GameState--><g id="link_MyGameManager_GameState"><path codeLine="81" d="M463.16,659.06 C541.3,663.33 668.76,663.6 773,632 C868.07,603.18 921.47,482.93 941.61,426.93 " fill="none" id="MyGameManager-to-GameState" style="stroke:#000000;stroke-width:1.0;"/><polygon fill="#000000" points="943.34,422.04,936.5625,429.186,941.6692,426.7526,944.1026,431.8593,943.34,422.04" style="stroke:#000000;stroke-width:1.0;"/><text fill="#000000" font-family="sans-serif" font-size="13" lengthAdjust="spacing" textLength="46" x="633.5" y="627.4951">Manage</text></g><!--link PigGameManager to GameState--><g id="link_PigGameManager_GameState"><path codeLine="82" d="M464.17,559.52 C574.2,570.96 776.1,586.29 839,553 C890.11,525.96 923.52,463.96 939.65,427.09 " fill="none" id="PigGameManager-to-GameState" style="stroke:#000000;stroke-width:1.0;"/><polygon fill="#000000" points="941.72,422.29,934.4906,428.9785,939.7452,426.8835,941.8402,432.1381,941.72,422.29" style="stroke:#000000;stroke-width:1.0;"/><text fill="#000000" font-family="sans-serif" font-size="13" lengthAdjust="spacing" textLength="46" x="633.5" y="564.4951">Manage</text></g><!--link GreedGameManager to GameState--><g id="link_GreedGameManager_GameState"><path codeLine="83" d="M474.26,608.64 C552.27,612.89 671.71,614.34 773,594 C803.91,587.8 814.52,587.87 839,568 C886.8,529.21 921.4,464.51 938.64,427.11 " fill="none" id="GreedGameManager-to-GameState" style="stroke:#000000;stroke-width:1.0;"/><polygon fill="#000000" points="940.86,422.24,933.4943,428.7781,938.791,426.7918,940.7772,432.0885,940.86,422.24" style="stroke:#000000;stroke-width:1.0;"/><text fill="#000000" font-family="sans-serif" font-size="13" lengthAdjust="spacing" textLength="46" x="633.5" y="589.4951">Manage</text></g><!--link BalutGameManager to GameState--><g id="link_BalutGameManager_GameState"><path codeLine="84" d="M470.16,305.89 C499.59,309.37 533.29,313.13 564,316 C656.72,324.69 683.46,305.41 773,331 C808.75,341.22 812.39,356.42 847,370 C862.01,375.89 878.71,380.99 894.26,385.17 " fill="none" id="BalutGameManager-to-GameState" style="stroke:#000000;stroke-width:1.0;"/><polygon fill="#000000" points="899.49,386.55,891.8052,380.3901,894.6548,385.2768,889.7681,388.1264,899.49,386.55" style="stroke:#000000;stroke-width:1.0;"/><text fill="#000000" font-family="sans-serif" font-size="13" lengthAdjust="spacing" textLength="46" x="633.5" y="311.4951">Manage</text></g><!--link MyGameManager to PlayerAnalysis--><g id="link_MyGameManager_PlayerAnalysis"><path codeLine="86" d="M463.21,649.38 C479.43,645.13 495.06,637.68 506,625 C518.68,610.3 503.04,554.03 514,538 C605.14,404.8 743.85,506.36 839,376 C852.79,357.12 831.4,341.42 847,324 C856.61,313.27 869.85,306.46 883.67,302.19 " fill="none" id="MyGameManager-to-PlayerAnalysis" style="stroke:#000000;stroke-width:1.0;"/><polygon fill="#000000" points="888.79,300.72,879.0374,299.3464,883.9824,302.0936,881.2352,307.0386,888.79,300.72" style="stroke:#000000;stroke-width:1.0;"/><text fill="#000000" font-family="sans-serif" font-size="13" lengthAdjust="spacing" textLength="47" x="633" y="429.4951">Analyze</text></g><!--link PigGameManager to PlayerAnalysis--><g id="link_PigGameManager_PlayerAnalysis"><path codeLine="87" d="M464.14,547.51 C480.14,543.22 495.43,535.73 506,523 C527.18,497.49 493.98,400.43 514,374 C528.17,355.29 540.9,361.16 564,357 C609.73,348.77 727.37,359.74 773,351 C807.38,344.42 813.62,334.56 847,324 C858.88,320.24 871.63,316.54 883.98,313.13 " fill="none" id="PigGameManager-to-PlayerAnalysis" style="stroke:#000000;stroke-width:1.0;"/><polygon fill="#000000" points="888.88,311.78,879.1402,310.3183,884.0602,313.1101,881.2684,318.0301,888.88,311.78" style="stroke:#000000;stroke-width:1.0;"/><text fill="#000000" font-family="sans-serif" font-size="13" lengthAdjust="spacing" textLength="47" x="633" y="346.4951">Analyze</text></g><!--link GreedGameManager to PlayerAnalysis--><g id="link_GreedGameManager_PlayerAnalysis"><path codeLine="88" d="M474.21,595.4 C486.45,590.87 497.7,584.07 506,574 C518.3,559.06 502.37,415.47 514,400 C528.1,381.24 540.9,387.16 564,383 C609.73,374.77 727.54,386.62 773,377 C804.01,370.44 817.62,373.4 839,350 C847.16,341.08 838.3,332.4 847,324 C857.13,314.23 870.29,307.78 883.82,303.55 " fill="none" id="GreedGameManager-to-PlayerAnalysis" style="stroke:#000000;stroke-width:1.0;"/><polygon fill="#000000" points="888.82,302.09,879.06,300.77,884.02,303.49,881.3,308.45,888.82,302.09" style="stroke:#000000;stroke-width:1.0;"/><text fill="#000000" font-family="sans-serif" font-size="13" lengthAdjust="spacing" textLength="47" x="633" y="372.4951">Analyze</text></g><!--link BalutGameManager to PlayerAnalysis--><g id="link_BalutGameManager_PlayerAnalysis"><path codeLine="89" d="M470.05,296 C580.64,296 779.62,296 883.59,296 " fill="none" id="BalutGameManager-to-PlayerAnalysis" style="stroke:#000000;stroke-width:1.0;"/><polygon fill="#000000" points="888.77,296,879.77,292,883.77,296,879.77,300,888.77,296" style="stroke:#000000;stroke-width:1.0;"/><text fill="#000000" font-family="sans-serif" font-size="13" lengthAdjust="spacing" textLength="47" x="633" y="291.4951">Analyze</text></g><!--SRC=[XLHDYzim4BtxLuZqaDD2Isyz5FB1Xa83mTcsz3XhJn8HHJAIlC4j_UyTsN4ioOet1qFclT5ylfcpPwKBP6-eBIz0C06Dgcqcy62PLKppuycoaciiB5Soo-PiWn8rCOrj19V7R6xEN5QWuS8gACvmn3qXoAGgCHkm7PGbqTcdmEQYyWgaxU6F7hnIbqf9J8FkUOCL- -pPDCXpR2i46CF-Pen-Iyhlg5KjovKIIhFlhhgDHfGTh7I9keEMWhYjTQ6rklh6VwuBAwMHRU22R0kIQjOckrNFPhrbnZwq4NwZ4Efwow7BPziutnlHi-_uCGsuBCiqj0HHMn_oi3Kl4XvhiB2tLC4OsbkmtD1KJ093QsaCAUG4ProZfIrHkeVRFcrfJCBlJVk_xyn6GnFqnPNXKi24hKlBRnOjA-g51D4OxWDhBBYXTTs1jQYb3_tYCW-VV-7KERGwVDirhYk8tidHrC9s1VtaU8sB6cnzOQi6P53OeghkhAYsbFqUUW3Rw6voWowy52AWpsCfQhpbmINruW0azg6PELRAS9fParo10VvsgGJZzC6BUpxzH1GcLw_gG8kV3386un09zxO5EGfmdJ4dNXbsvVR4gEQdAucNhjUh6upVRFRqz7MqyEnBhz9P5eoWPGVYTDGV9iaBnJf1ZCKxGOt5F47rjErOkH8YHHifsf5RqVn9FXkfl6KN1HgJ92U4xpmwqopBnj73d8RfEhTsHhFiuGQspGpEWVFQQVN6o_VymciHD67IBpucNKGikQjlqlDsQvp32aHHqzw-5ymxHixjHPE-gOlZSt3VWEX8-Sr_u3KMrdt97gXo8jQzXrce6dzIwCij4ir3taWp3vaZoJna9dASs8f4fXFiPBuJ_6JM4_p_]--></g></svg>