<?xml version="1.0" encoding="us-ascii" standalone="no"?><svg xmlns="http://www.w3.org/2000/svg" xmlns:xlink="http://www.w3.org/1999/xlink" contentStyleType="text/css" height="1254px" preserveAspectRatio="none" style="width:1145px;height:1254px;background:#FFFFFF;" version="1.1" viewBox="0 0 1145 1254" width="1145px" zoomAndPan="magnify"><defs/><g><rect fill="#FFFFFF" height="1070.1094" style="stroke:#181818;stroke-width:1.0;" width="10" x="175" y="92.6094"/><rect fill="none" height="630.7031" style="stroke:#000000;stroke-width:1.5;" width="1129.5" x="10" y="251.3672"/><rect fill="none" height="185.9453" style="stroke:#000000;stroke-width:1.5;" width="1109.5" x="20" y="276.7188"/><rect fill="none" height="277" style="stroke:#000000;stroke-width:1.5;" width="889.5" x="20" y="598.0703"/><rect fill="none" height="259.6484" style="stroke:#000000;stroke-width:1.5;" width="1109.5" x="20" y="896.0703"/><line style="stroke:#181818;stroke-width:0.5;stroke-dasharray:5.0,5.0;" x1="53" x2="53" y1="82.6094" y2="1172.7188"/><line style="stroke:#181818;stroke-width:0.5;stroke-dasharray:5.0,5.0;" x1="179.5" x2="179.5" y1="82.6094" y2="1172.7188"/><line style="stroke:#181818;stroke-width:0.5;stroke-dasharray:5.0,5.0;" x1="337.5" x2="337.5" y1="82.6094" y2="1172.7188"/><line style="stroke:#181818;stroke-width:0.5;stroke-dasharray:5.0,5.0;" x1="496.5" x2="496.5" y1="82.6094" y2="1172.7188"/><line style="stroke:#181818;stroke-width:0.5;stroke-dasharray:5.0,5.0;" x1="649.5" x2="649.5" y1="82.6094" y2="1172.7188"/><line style="stroke:#181818;stroke-width:0.5;stroke-dasharray:5.0,5.0;" x1="816.5" x2="816.5" y1="82.6094" y2="1172.7188"/><line style="stroke:#181818;stroke-width:0.5;stroke-dasharray:5.0,5.0;" x1="1014.5" x2="1014.5" y1="82.6094" y2="1172.7188"/><text fill="#000000" font-family="sans-serif" font-size="14" lengthAdjust="spacing" textLength="40" x="30" y="79.5332">Player</text><ellipse cx="53" cy="13.5" fill="#E2E2F0" rx="8" ry="8" style="stroke:#181818;stroke-width:0.5;"/><path d="M53,21.5 L53,48.5 M40,29.5 L66,29.5 M53,48.5 L40,63.5 M53,48.5 L66,63.5 " fill="none" style="stroke:#181818;stroke-width:0.5;"/><text fill="#000000" font-family="sans-serif" font-size="14" lengthAdjust="spacing" textLength="40" x="30" y="1186.252">Player</text><ellipse cx="53" cy="1197.8281" fill="#E2E2F0" rx="8" ry="8" style="stroke:#181818;stroke-width:0.5;"/><path d="M53,1205.8281 L53,1232.8281 M40,1213.8281 L66,1213.8281 M53,1232.8281 L40,1247.8281 M53,1232.8281 L66,1247.8281 " fill="none" style="stroke:#181818;stroke-width:0.5;"/><rect fill="#E2E2F0" height="31.6094" rx="2.5" ry="2.5" style="stroke:#181818;stroke-width:0.5;" width="97" x="131.5" y="50"/><text fill="#000000" font-family="sans-serif" font-size="14" lengthAdjust="spacing" textLength="83" x="138.5" y="71.5332">GameScreen</text><rect fill="#E2E2F0" height="31.6094" rx="2.5" ry="2.5" style="stroke:#181818;stroke-width:0.5;" width="97" x="131.5" y="1171.7188"/><text fill="#000000" font-family="sans-serif" font-size="14" lengthAdjust="spacing" textLength="83" x="138.5" y="1193.252">GameScreen</text><rect fill="#E2E2F0" height="31.6094" rx="2.5" ry="2.5" style="stroke:#181818;stroke-width:0.5;" width="119" x="278.5" y="50"/><text fill="#000000" font-family="sans-serif" font-size="14" lengthAdjust="spacing" textLength="105" x="285.5" y="71.5332">GameViewModel</text><rect fill="#E2E2F0" height="31.6094" rx="2.5" ry="2.5" style="stroke:#181818;stroke-width:0.5;" width="119" x="278.5" y="1171.7188"/><text fill="#000000" font-family="sans-serif" font-size="14" lengthAdjust="spacing" textLength="105" x="285.5" y="1193.252">GameViewModel</text><rect fill="#E2E2F0" height="31.6094" rx="2.5" ry="2.5" style="stroke:#181818;stroke-width:0.5;" width="98" x="447.5" y="50"/><text fill="#000000" font-family="sans-serif" font-size="14" lengthAdjust="spacing" textLength="84" x="454.5" y="71.5332">DiceManager</text><rect fill="#E2E2F0" height="31.6094" rx="2.5" ry="2.5" style="stroke:#181818;stroke-width:0.5;" width="98" x="447.5" y="1171.7188"/><text fill="#000000" font-family="sans-serif" font-size="14" lengthAdjust="spacing" textLength="84" x="454.5" y="1193.252">DiceManager</text><rect fill="#E2E2F0" height="31.6094" rx="2.5" ry="2.5" style="stroke:#181818;stroke-width:0.5;" width="108" x="595.5" y="50"/><text fill="#000000" font-family="sans-serif" font-size="14" lengthAdjust="spacing" textLength="94" x="602.5" y="71.5332">GameManager</text><rect fill="#E2E2F0" height="31.6094" rx="2.5" ry="2.5" style="stroke:#181818;stroke-width:0.5;" width="108" x="595.5" y="1171.7188"/><text fill="#000000" font-family="sans-serif" font-size="14" lengthAdjust="spacing" textLength="94" x="602.5" y="1193.252">GameManager</text><rect fill="#E2E2F0" height="31.6094" rx="2.5" ry="2.5" style="stroke:#181818;stroke-width:0.5;" width="126" x="753.5" y="50"/><text fill="#000000" font-family="sans-serif" font-size="14" lengthAdjust="spacing" textLength="112" x="760.5" y="71.5332">StatisticsManager</text><rect fill="#E2E2F0" height="31.6094" rx="2.5" ry="2.5" style="stroke:#181818;stroke-width:0.5;" width="126" x="753.5" y="1171.7188"/><text fill="#000000" font-family="sans-serif" font-size="14" lengthAdjust="spacing" textLength="112" x="760.5" y="1193.252">StatisticsManager</text><rect fill="#E2E2F0" height="31.6094" rx="2.5" ry="2.5" style="stroke:#181818;stroke-width:0.5;" width="170" x="929.5" y="50"/><text fill="#000000" font-family="sans-serif" font-size="14" lengthAdjust="spacing" textLength="156" x="936.5" y="71.5332">ShakeDetectionManager</text><rect fill="#E2E2F0" height="31.6094" rx="2.5" ry="2.5" style="stroke:#181818;stroke-width:0.5;" width="170" x="929.5" y="1171.7188"/><text fill="#000000" font-family="sans-serif" font-size="14" lengthAdjust="spacing" textLength="156" x="936.5" y="1193.252">ShakeDetectionManager</text><rect fill="#FFFFFF" height="1070.1094" style="stroke:#181818;stroke-width:1.0;" width="10" x="175" y="92.6094"/><polygon fill="#181818" points="326,110.9609,336,114.9609,326,118.9609,330,114.9609" style="stroke:#181818;stroke-width:1.0;"/><line style="stroke:#181818;stroke-width:1.0;" x1="185" x2="332" y1="114.9609" y2="114.9609"/><text fill="#000000" font-family="sans-serif" font-size="13" lengthAdjust="spacing" textLength="86" x="218.5" y="110.1045">Initialize Game</text><polygon fill="#181818" points="804.5,141.3125,814.5,145.3125,804.5,149.3125,808.5,145.3125" style="stroke:#181818;stroke-width:1.0;"/><line style="stroke:#181818;stroke-width:1.0;" x1="338" x2="810.5" y1="145.3125" y2="145.3125"/><text fill="#000000" font-family="sans-serif" font-size="13" lengthAdjust="spacing" textLength="107" x="523.75" y="140.4561">startGameTiming()</text><polygon fill="#181818" points="637.5,171.6641,647.5,175.6641,637.5,179.6641,641.5,175.6641" style="stroke:#181818;stroke-width:1.0;"/><line style="stroke:#181818;stroke-width:1.0;" x1="338" x2="643.5" y1="175.6641" y2="175.6641"/><text fill="#000000" font-family="sans-serif" font-size="13" lengthAdjust="spacing" textLength="90" x="448.75" y="170.8076">initializeGame()</text><polygon fill="#181818" points="349,202.0156,339,206.0156,349,210.0156,345,206.0156" style="stroke:#181818;stroke-width:1.0;"/><line style="stroke:#181818;stroke-width:1.0;stroke-dasharray:2.0,2.0;" x1="343" x2="648.5" y1="206.0156" y2="206.0156"/><text fill="#000000" font-family="sans-serif" font-size="13" lengthAdjust="spacing" textLength="100" x="443.75" y="201.1592">Initial GameState</text><polygon fill="#181818" points="1002.5,232.3672,1012.5,236.3672,1002.5,240.3672,1006.5,236.3672" style="stroke:#181818;stroke-width:1.0;"/><line style="stroke:#181818;stroke-width:1.0;" x1="338" x2="1008.5" y1="236.3672" y2="236.3672"/><text fill="#000000" font-family="sans-serif" font-size="13" lengthAdjust="spacing" textLength="143" x="604.75" y="231.5107">resumeShakeDetection()</text><path d="M10,251.3672 L83,251.3672 L83,259.7188 L73,269.7188 L10,269.7188 L10,251.3672 " fill="#EEEEEE" style="stroke:#000000;stroke-width:1.5;"/><rect fill="none" height="630.7031" style="stroke:#000000;stroke-width:1.5;" width="1129.5" x="10" y="251.3672"/><text fill="#000000" font-family="sans-serif" font-size="13" font-weight="bold" lengthAdjust="spacing" textLength="28" x="25" y="265.8623">loop</text><text fill="#000000" font-family="sans-serif" font-size="11" font-weight="bold" lengthAdjust="spacing" textLength="78" x="98" y="264.7861">[Game Round]</text><path d="M20,276.7188 L81,276.7188 L81,285.0703 L71,295.0703 L20,295.0703 L20,276.7188 " fill="#EEEEEE" style="stroke:#000000;stroke-width:1.5;"/><rect fill="none" height="185.9453" style="stroke:#000000;stroke-width:1.5;" width="1109.5" x="20" y="276.7188"/><text fill="#000000" font-family="sans-serif" font-size="13" font-weight="bold" lengthAdjust="spacing" textLength="16" x="35" y="291.2139">alt</text><text fill="#000000" font-family="sans-serif" font-size="11" font-weight="bold" lengthAdjust="spacing" textLength="79" x="96" y="290.1377">[Shake to Roll]</text><polygon fill="#181818" points="349,313.4219,339,317.4219,349,321.4219,345,317.4219" style="stroke:#181818;stroke-width:1.0;"/><line style="stroke:#181818;stroke-width:1.0;" x1="343" x2="1013.5" y1="317.4219" y2="317.4219"/><text fill="#000000" font-family="sans-serif" font-size="13" lengthAdjust="spacing" textLength="59" x="646.75" y="312.5654">onShake()</text><polygon fill="#181818" points="484.5,343.7734,494.5,347.7734,484.5,351.7734,488.5,347.7734" style="stroke:#181818;stroke-width:1.0;"/><line style="stroke:#181818;stroke-width:1.0;" x1="338" x2="490.5" y1="347.7734" y2="347.7734"/><text fill="#000000" font-family="sans-serif" font-size="13" lengthAdjust="spacing" textLength="51" x="391.75" y="342.917">rollDice()</text><line style="stroke:#000000;stroke-width:1.0;stroke-dasharray:2.0,2.0;" x1="20" x2="1129.5" y1="356.7734" y2="356.7734"/><text fill="#000000" font-family="sans-serif" font-size="11" font-weight="bold" lengthAdjust="spacing" textLength="70" x="25" y="368.1924">[Manual Roll]</text><polygon fill="#181818" points="163,389.9609,173,393.9609,163,397.9609,167,393.9609" style="stroke:#181818;stroke-width:1.0;"/><line style="stroke:#181818;stroke-width:1.0;" x1="53" x2="169" y1="393.9609" y2="393.9609"/><text fill="#000000" font-family="sans-serif" font-size="13" lengthAdjust="spacing" textLength="89" x="69.5" y="389.1045">Tap Roll Button</text><polygon fill="#181818" points="326,420.3125,336,424.3125,326,428.3125,330,424.3125" style="stroke:#181818;stroke-width:1.0;"/><line style="stroke:#181818;stroke-width:1.0;" x1="185" x2="332" y1="424.3125" y2="424.3125"/><text fill="#000000" font-family="sans-serif" font-size="13" lengthAdjust="spacing" textLength="51" x="236" y="419.4561">rollDice()</text><polygon fill="#181818" points="484.5,450.6641,494.5,454.6641,484.5,458.6641,488.5,454.6641" style="stroke:#181818;stroke-width:1.0;"/><line style="stroke:#181818;stroke-width:1.0;" x1="338" x2="490.5" y1="454.6641" y2="454.6641"/><text fill="#000000" font-family="sans-serif" font-size="13" lengthAdjust="spacing" textLength="51" x="391.75" y="449.8076">rollDice()</text><polygon fill="#181818" points="349,488.0156,339,492.0156,349,496.0156,345,492.0156" style="stroke:#181818;stroke-width:1.0;"/><line style="stroke:#181818;stroke-width:1.0;stroke-dasharray:2.0,2.0;" x1="343" x2="495.5" y1="492.0156" y2="492.0156"/><text fill="#000000" font-family="sans-serif" font-size="13" lengthAdjust="spacing" textLength="74" x="380.25" y="487.1592">Dice Results</text><polygon fill="#181818" points="637.5,518.3672,647.5,522.3672,637.5,526.3672,641.5,522.3672" style="stroke:#181818;stroke-width:1.0;"/><line style="stroke:#181818;stroke-width:1.0;" x1="338" x2="643.5" y1="522.3672" y2="522.3672"/><text fill="#000000" font-family="sans-serif" font-size="13" lengthAdjust="spacing" textLength="110" x="438.75" y="517.5107">handleTurn(results)</text><polygon fill="#181818" points="349,548.7188,339,552.7188,349,556.7188,345,552.7188" style="stroke:#181818;stroke-width:1.0;"/><line style="stroke:#181818;stroke-width:1.0;stroke-dasharray:2.0,2.0;" x1="343" x2="648.5" y1="552.7188" y2="552.7188"/><text fill="#000000" font-family="sans-serif" font-size="13" lengthAdjust="spacing" textLength="118" x="434.75" y="547.8623">Updated GameState</text><polygon fill="#181818" points="196,579.0703,186,583.0703,196,587.0703,192,583.0703" style="stroke:#181818;stroke-width:1.0;"/><line style="stroke:#181818;stroke-width:1.0;stroke-dasharray:2.0,2.0;" x1="190" x2="337" y1="583.0703" y2="583.0703"/><text fill="#000000" font-family="sans-serif" font-size="13" lengthAdjust="spacing" textLength="57" x="233" y="578.2139">Update UI</text><path d="M20,598.0703 L81,598.0703 L81,606.4219 L71,616.4219 L20,616.4219 L20,598.0703 " fill="#EEEEEE" style="stroke:#000000;stroke-width:1.5;"/><rect fill="none" height="277" style="stroke:#000000;stroke-width:1.5;" width="889.5" x="20" y="598.0703"/><text fill="#000000" font-family="sans-serif" font-size="13" font-weight="bold" lengthAdjust="spacing" textLength="16" x="35" y="612.5654">alt</text><text fill="#000000" font-family="sans-serif" font-size="11" font-weight="bold" lengthAdjust="spacing" textLength="102" x="96" y="611.4893">[Player Holds Dice]</text><polygon fill="#181818" points="163,634.7734,173,638.7734,163,642.7734,167,638.7734" style="stroke:#181818;stroke-width:1.0;"/><line style="stroke:#181818;stroke-width:1.0;" x1="53" x2="169" y1="638.7734" y2="638.7734"/><text fill="#000000" font-family="sans-serif" font-size="13" lengthAdjust="spacing" textLength="98" x="65" y="633.917">Toggle Dice Hold</text><polygon fill="#181818" points="326,665.125,336,669.125,326,673.125,330,669.125" style="stroke:#181818;stroke-width:1.0;"/><line style="stroke:#181818;stroke-width:1.0;" x1="185" x2="332" y1="669.125" y2="669.125"/><text fill="#000000" font-family="sans-serif" font-size="13" lengthAdjust="spacing" textLength="95" x="214" y="664.2686">toggleDiceHold()</text><polygon fill="#181818" points="484.5,695.4766,494.5,699.4766,484.5,703.4766,488.5,699.4766" style="stroke:#181818;stroke-width:1.0;"/><line style="stroke:#181818;stroke-width:1.0;" x1="338" x2="490.5" y1="699.4766" y2="699.4766"/><text fill="#000000" font-family="sans-serif" font-size="13" lengthAdjust="spacing" textLength="69" x="382.75" y="694.6201">toggleHold()</text><line style="stroke:#000000;stroke-width:1.0;stroke-dasharray:2.0,2.0;" x1="20" x2="909.5" y1="708.4766" y2="708.4766"/><text fill="#000000" font-family="sans-serif" font-size="11" font-weight="bold" lengthAdjust="spacing" textLength="79" x="25" y="719.8955">[Player Banks]</text><polygon fill="#181818" points="163,741.6641,173,745.6641,163,749.6641,167,745.6641" style="stroke:#181818;stroke-width:1.0;"/><line style="stroke:#181818;stroke-width:1.0;" x1="53" x2="169" y1="745.6641" y2="745.6641"/><text fill="#000000" font-family="sans-serif" font-size="13" lengthAdjust="spacing" textLength="71" x="78.5" y="740.8076">Bank Points</text><polygon fill="#181818" points="326,772.0156,336,776.0156,326,780.0156,330,776.0156" style="stroke:#181818;stroke-width:1.0;"/><line style="stroke:#181818;stroke-width:1.0;" x1="185" x2="332" y1="776.0156" y2="776.0156"/><text fill="#000000" font-family="sans-serif" font-size="13" lengthAdjust="spacing" textLength="70" x="226.5" y="771.1592">bankScore()</text><polygon fill="#181818" points="637.5,802.3672,647.5,806.3672,637.5,810.3672,641.5,806.3672" style="stroke:#181818;stroke-width:1.0;"/><line style="stroke:#181818;stroke-width:1.0;" x1="338" x2="643.5" y1="806.3672" y2="806.3672"/><text fill="#000000" font-family="sans-serif" font-size="13" lengthAdjust="spacing" textLength="70" x="458.75" y="801.5107">bankScore()</text><polygon fill="#181818" points="349,832.7188,339,836.7188,349,840.7188,345,836.7188" style="stroke:#181818;stroke-width:1.0;"/><line style="stroke:#181818;stroke-width:1.0;stroke-dasharray:2.0,2.0;" x1="343" x2="648.5" y1="836.7188" y2="836.7188"/><text fill="#000000" font-family="sans-serif" font-size="13" lengthAdjust="spacing" textLength="118" x="434.75" y="831.8623">Updated GameState</text><polygon fill="#181818" points="804.5,863.0703,814.5,867.0703,804.5,871.0703,808.5,867.0703" style="stroke:#181818;stroke-width:1.0;"/><line style="stroke:#181818;stroke-width:1.0;" x1="338" x2="810.5" y1="867.0703" y2="867.0703"/><text fill="#000000" font-family="sans-serif" font-size="13" lengthAdjust="spacing" textLength="84" x="535.25" y="862.2139">trackBanking()</text><path d="M20,896.0703 L81,896.0703 L81,904.4219 L71,914.4219 L20,914.4219 L20,896.0703 " fill="#EEEEEE" style="stroke:#000000;stroke-width:1.5;"/><rect fill="none" height="259.6484" style="stroke:#000000;stroke-width:1.5;" width="1109.5" x="20" y="896.0703"/><text fill="#000000" font-family="sans-serif" font-size="13" font-weight="bold" lengthAdjust="spacing" textLength="16" x="35" y="910.5654">alt</text><text fill="#000000" font-family="sans-serif" font-size="11" font-weight="bold" lengthAdjust="spacing" textLength="108" x="96" y="909.4893">[Win Condition Met]</text><line style="stroke:#181818;stroke-width:1.0;" x1="338" x2="380" y1="936.7734" y2="936.7734"/><line style="stroke:#181818;stroke-width:1.0;" x1="380" x2="380" y1="936.7734" y2="949.7734"/><line style="stroke:#181818;stroke-width:1.0;" x1="339" x2="380" y1="949.7734" y2="949.7734"/><polygon fill="#181818" points="349,945.7734,339,949.7734,349,953.7734,345,949.7734" style="stroke:#181818;stroke-width:1.0;"/><text fill="#000000" font-family="sans-serif" font-size="13" lengthAdjust="spacing" textLength="104" x="345" y="931.917">handleGameEnd()</text><polygon fill="#181818" points="804.5,976.125,814.5,980.125,804.5,984.125,808.5,980.125" style="stroke:#181818;stroke-width:1.0;"/><line style="stroke:#181818;stroke-width:1.0;" x1="338" x2="810.5" y1="980.125" y2="980.125"/><text fill="#000000" font-family="sans-serif" font-size="13" lengthAdjust="spacing" textLength="137" x="508.75" y="975.2686">updateGameStatistics()</text><polygon fill="#181818" points="196,1006.4766,186,1010.4766,196,1014.4766,192,1010.4766" style="stroke:#181818;stroke-width:1.0;"/><line style="stroke:#181818;stroke-width:1.0;" x1="190" x2="337" y1="1010.4766" y2="1010.4766"/><text fill="#000000" font-family="sans-serif" font-size="13" lengthAdjust="spacing" textLength="99" x="212" y="1005.6201">Show Win Dialog</text><polygon fill="#181818" points="64,1036.8281,54,1040.8281,64,1044.8281,60,1040.8281" style="stroke:#181818;stroke-width:1.0;"/><line style="stroke:#181818;stroke-width:1.0;stroke-dasharray:2.0,2.0;" x1="58" x2="174" y1="1040.8281" y2="1040.8281"/><text fill="#000000" font-family="sans-serif" font-size="13" lengthAdjust="spacing" textLength="91" x="68.5" y="1035.9717">Display Results</text><line style="stroke:#000000;stroke-width:1.0;stroke-dasharray:2.0,2.0;" x1="20" x2="1129.5" y1="1049.8281" y2="1049.8281"/><text fill="#000000" font-family="sans-serif" font-size="11" font-weight="bold" lengthAdjust="spacing" textLength="71" x="25" y="1061.2471">[Player Exits]</text><polygon fill="#181818" points="163,1083.0156,173,1087.0156,163,1091.0156,167,1087.0156" style="stroke:#181818;stroke-width:1.0;"/><line style="stroke:#181818;stroke-width:1.0;" x1="53" x2="169" y1="1087.0156" y2="1087.0156"/><text fill="#000000" font-family="sans-serif" font-size="13" lengthAdjust="spacing" textLength="62" x="83" y="1082.1592">Exit Game</text><polygon fill="#181818" points="804.5,1113.3672,814.5,1117.3672,804.5,1121.3672,808.5,1117.3672" style="stroke:#181818;stroke-width:1.0;"/><line style="stroke:#181818;stroke-width:1.0;" x1="185" x2="810.5" y1="1117.3672" y2="1117.3672"/><text fill="#000000" font-family="sans-serif" font-size="13" lengthAdjust="spacing" textLength="84" x="458.75" y="1112.5107">Save Progress</text><polygon fill="#181818" points="1002.5,1143.7188,1012.5,1147.7188,1002.5,1151.7188,1006.5,1147.7188" style="stroke:#181818;stroke-width:1.0;"/><line style="stroke:#181818;stroke-width:1.0;" x1="185" x2="1008.5" y1="1147.7188" y2="1147.7188"/><text fill="#000000" font-family="sans-serif" font-size="13" lengthAdjust="spacing" textLength="135" x="532.25" y="1142.8623">pauseShakeDetection()</text><!--SRC=[ZPHDRzim38Rl_XL4J-rXmB2Z3mFMfTXwC13KQNRcRC8HeaYU9BVRVlse3pjIt0prmR2ano-fbvJiKQWH3Px0qg-9L4SDMOi3VP5YKD2HScGgkr1RD4vqOaJbjjZtGWtmwMDLOUUqWQt4FqoFPmPklk69siuGgHj02twu1lQ2NXlTaroOVLDI6y6PeUB4J632U2sK8s5S8gr39ooFRGxwMNi17l186tBKEQ5L0VkL9knOlA2Zk2F_WW-VK-erF2hX14hnDrlVDvu8mMgmZiFvsPquiOctTnaI4gz1B1f-8X4ChCE4iHSk0eL4Qp1a9rujDiHYbTHw33_2avvKNm4_A5ty3vpcQId3h7-YMhv5hS8SIytCENQe3eTc1V-P69AMWBsSEED2FFRDB5x33iS0mFtad5P5W3o52_rtvS0x3HzXkJ3Jpy0JkoMv6qgjL943gbxIRZBgraJkRW5BhUUnvshqMM5omMMZ4OFdnsgnFtdnNSi-Tlbrb_GmI8ffU_ogJIw0dlFO_yoAP4Q5agN0zwYEzcesVXMsMYXdhoRoavcsq-RjWYMJhq7lCRWKJ4VD6UoEFhrupkOk29tW7VyX57pLgXV-P413xetYxvVg-z63clrP1Pj2NdDMyQvPiT6nzg1VG_0D7s4zL6V768ds-gQq8tykVPaNvE6tI6PV5iEln8idBqDAiSKNbZ1wu1ws9P2kZ14dkxunWc4zbHVVFm00]--></g></svg>