<?xml version="1.0" encoding="us-ascii" standalone="no"?><svg xmlns="http://www.w3.org/2000/svg" xmlns:xlink="http://www.w3.org/1999/xlink" contentStyleType="text/css" height="665px" preserveAspectRatio="none" style="width:608px;height:665px;background:#FFFFFF;" version="1.1" viewBox="0 0 608 665" width="608px" zoomAndPan="magnify"><defs/><g><!--cluster Dice Game System--><g id="cluster_Dice Game System"><rect fill="none" height="453" rx="2.5" ry="2.5" style="stroke:#181818;stroke-width:1.0;" width="509" x="93" y="7"/><text fill="#000000" font-family="sans-serif" font-size="14" font-weight="bold" lengthAdjust="spacing" textLength="129" x="283" y="23.5332">Dice Game System</text></g><g id="elem_UC1"><ellipse cx="208.0075" cy="346.2015" fill="#E8F8F5" rx="81.5075" ry="18.7015" style="stroke:#181818;stroke-width:0.5;"/><text fill="#000000" font-family="sans-serif" font-size="14" lengthAdjust="spacing" textLength="118" x="148.6675" y="350.0304">Play Classic Game</text></g><g id="elem_UC4"><ellipse cx="207.7516" cy="132.9503" fill="#E8F8F5" rx="82.7516" ry="18.9503" style="stroke:#181818;stroke-width:0.5;"/><text fill="#000000" font-family="sans-serif" font-size="14" lengthAdjust="spacing" textLength="121" x="147.2516" y="136.6788">Play Custom Game</text></g><g id="elem_UC5"><ellipse cx="501.3032" cy="222.0087" fill="#E8F8F5" rx="51.3032" ry="15.5087" style="stroke:#181818;stroke-width:0.5;"/><text fill="#000000" font-family="sans-serif" font-size="14" lengthAdjust="spacing" textLength="56" x="470.3032" y="226.5253">Roll Dice</text></g><g id="elem_UC6"><ellipse cx="501.258" cy="428.0364" fill="#E8F8F5" rx="54.258" ry="15.5364" style="stroke:#181818;stroke-width:0.5;"/><text fill="#000000" font-family="sans-serif" font-size="14" lengthAdjust="spacing" textLength="60" x="468.258" y="432.553">Hold Dice</text></g><g id="elem_UC7"><ellipse cx="501.3631" cy="362.109" fill="#E8F8F5" rx="63.8631" ry="15.609" style="stroke:#181818;stroke-width:0.5;"/><text fill="#000000" font-family="sans-serif" font-size="14" lengthAdjust="spacing" textLength="73" x="461.8631" y="366.6256">Bank Score</text></g><g id="elem_UC9"><ellipse cx="501.669" cy="292.0338" fill="#E8F8F5" rx="83.169" ry="19.0338" style="stroke:#181818;stroke-width:0.5;"/><text fill="#000000" font-family="sans-serif" font-size="14" lengthAdjust="spacing" textLength="122" x="440.669" y="295.7623">Earn Achievements</text></g><g id="elem_UC10"><ellipse cx="208.1203" cy="60.8241" fill="#E8F8F5" rx="77.1203" ry="17.8241" style="stroke:#181818;stroke-width:0.5;"/><text fill="#000000" font-family="sans-serif" font-size="14" lengthAdjust="spacing" textLength="107" x="152.2783" y="65.1856">Use Virtual Mode</text></g><g id="elem_UC11"><ellipse cx="501.4267" cy="62.7853" fill="#E8F8F5" rx="84.4267" ry="19.2853" style="stroke:#181818;stroke-width:0.5;"/><text fill="#000000" font-family="sans-serif" font-size="14" lengthAdjust="spacing" textLength="125" x="438.9267" y="66.5139">Capture Dice Image</text></g><g id="elem_UC12"><ellipse cx="501.3351" cy="136.867" fill="#E8F8F5" rx="82.3351" ry="18.867" style="stroke:#181818;stroke-width:0.5;"/><text fill="#000000" font-family="sans-serif" font-size="14" lengthAdjust="spacing" textLength="120" x="441.3351" y="140.5955">Detect Dice Values</text></g><g id="elem_UC13"><ellipse cx="208.1819" cy="205.1364" fill="#E8F8F5" rx="78.6819" ry="18.1364" style="stroke:#181818;stroke-width:0.5;"/><text fill="#000000" font-family="sans-serif" font-size="14" lengthAdjust="spacing" textLength="111" x="151.0947" y="209.3083">View Game Rules</text></g><g id="elem_UC14"><ellipse cx="208.1111" cy="275.2222" fill="#E8F8F5" rx="74.1111" ry="17.2222" style="stroke:#181818;stroke-width:0.5;"/><text fill="#000000" font-family="sans-serif" font-size="14" lengthAdjust="spacing" textLength="99" x="155.6111" y="279.7388">Toggle Settings</text></g><g id="elem_UC15"><ellipse cx="208.1681" cy="422.2336" fill="#E8F8F5" rx="99.1681" ry="22.2336" style="stroke:#181818;stroke-width:0.5;"/><text fill="#000000" font-family="sans-serif" font-size="14" lengthAdjust="spacing" textLength="159" x="128.6681" y="425.9621">Make Strategic Decisions</text></g><!--entity player--><g id="elem_player"><ellipse cx="26" cy="174.5" fill="#F1F1F1" rx="8" ry="8" style="stroke:#181818;stroke-width:0.5;"/><path d="M26,182.5 L26,209.5 M13,190.5 L39,190.5 M26,209.5 L13,224.5 M26,209.5 L39,224.5 " fill="none" style="stroke:#181818;stroke-width:0.5;"/><text fill="#000000" font-family="sans-serif" font-size="14" lengthAdjust="spacing" textLength="40" x="6" y="240.5332">Player</text></g><!--entity ai--><g id="elem_ai"><ellipse cx="26" cy="501.5" fill="#F1F1F1" rx="8" ry="8" style="stroke:#181818;stroke-width:0.5;"/><path d="M26,509.5 L26,536.5 M13,517.5 L39,517.5 M26,536.5 L13,551.5 M26,536.5 L39,551.5 " fill="none" style="stroke:#181818;stroke-width:0.5;"/><text fill="#000000" font-family="sans-serif" font-size="14" lengthAdjust="spacing" textLength="12" x="20" y="567.5332">AI</text></g><!--link player to UC1--><g id="link_player_UC1"><path d="M40.33,244.03 C49.67,265.98 64.23,292.26 85,309 C100.86,321.77 121.07,330.14 140.47,335.63 " fill="none" id="player-UC1" style="stroke:#181818;stroke-width:1.0;"/></g><!--link player to UC4--><g id="link_player_UC4"><path d="M46.14,191.3 C57.11,183.92 71.37,175.1 85,169 C105.35,159.88 128.64,152.35 149.37,146.58 " fill="none" id="player-UC4" style="stroke:#181818;stroke-width:1.0;"/></g><!--link player to UC10--><g id="link_player_UC10"><path d="M39.06,165.85 C48.16,142.44 62.93,113.87 85,96 C100.84,83.17 121.16,75.04 140.66,69.89 " fill="none" id="player-UC10" style="stroke:#181818;stroke-width:1.0;"/></g><!--link player to UC13--><g id="link_player_UC13"><path d="M46.26,205 C66.22,205 98.7,205 129.26,205 " fill="none" id="player-UC13" style="stroke:#181818;stroke-width:1.0;"/></g><!--link player to UC14--><g id="link_player_UC14"><path d="M46.17,218.32 C57.15,225.5 71.42,234.07 85,240 C107.12,249.64 132.63,257.44 154.6,263.2 " fill="none" id="player-UC14" style="stroke:#181818;stroke-width:1.0;"/></g><!--link ai to UC5--><g id="link_ai_UC5"><path d="M39.73,529.41 C87.66,519.57 257.07,483.86 307,461 C346.46,442.92 363.26,441.33 387,405 C424.19,348.08 373.41,307.17 417,255 C427.19,242.79 442.52,235.08 457.27,230.21 " fill="none" id="ai-UC5" style="stroke:#181818;stroke-width:1.0;"/></g><!--link ai to UC6--><g id="link_ai_UC6"><path d="M39.65,557.25 C47.94,570.84 60.19,586.34 76,594 C200.4,654.24 264.75,658.5 387,594 C448.91,561.33 483.46,478.01 495.54,443.41 " fill="none" id="ai-UC6" style="stroke:#181818;stroke-width:1.0;"/></g><!--link ai to UC7--><g id="link_ai_UC7"><path d="M39.68,536.54 C90.26,553.8 280.05,609.98 387,523 C432.33,486.13 378.81,439.22 417,395 C426.27,384.26 439.5,376.99 452.71,372.07 " fill="none" id="ai-UC7" style="stroke:#181818;stroke-width:1.0;"/></g><!--link ai to UC15--><g id="link_ai_UC15"><path d="M39.53,511.2 C48.33,498.12 61.14,481.74 76,471 C95.68,456.77 119.97,446.18 142.27,438.56 " fill="none" id="ai-UC15" style="stroke:#181818;stroke-width:1.0;"/></g><!--link UC1 to UC5--><g id="link_UC1_UC5"><path d="M255.8,330.78 C272.33,324.77 290.82,317.3 307,309 C321.25,301.67 322.9,296.61 337,289 C371,270.65 381.25,269.65 417,255 C432.42,248.67 449.52,241.88 464.22,236.1 " fill="none" id="UC1-to-UC5" style="stroke:#181818;stroke-width:1.0;stroke-dasharray:7.0,7.0;"/><polygon fill="#181818" points="469.1,234.19,459.2619,233.7298,464.4411,236.005,462.1659,241.1841,469.1,234.19" style="stroke:#181818;stroke-width:1.0;"/><text fill="#000000" font-family="sans-serif" font-size="13" lengthAdjust="spacing" textLength="48" x="338" y="263.4951">includes</text></g><!--link UC1 to UC6--><g id="link_UC1_UC6"><path d="M258.8,360.55 C282.47,367.43 311.18,375.71 337,383 C377.34,394.38 423.39,407.02 456.31,416 " fill="none" id="UC1-to-UC6" style="stroke:#181818;stroke-width:1.0;stroke-dasharray:7.0,7.0;"/><polygon fill="#181818" points="461.48,417.41,453.8465,411.1867,456.6555,416.0968,451.7454,418.9059,461.48,417.41" style="stroke:#181818;stroke-width:1.0;"/><text fill="#000000" font-family="sans-serif" font-size="13" lengthAdjust="spacing" textLength="48" x="338" y="379.4951">includes</text></g><!--link UC1 to UC7--><g id="link_UC1_UC7"><path d="M286.49,351.01 C303.15,352.04 320.66,353.08 337,354 C368.65,355.76 403.76,357.5 433.31,358.91 " fill="none" id="UC1-to-UC7" style="stroke:#181818;stroke-width:1.0;stroke-dasharray:7.0,7.0;"/><polygon fill="#181818" points="438.38,359.15,429.5853,354.7169,433.3859,358.9067,429.196,362.7074,438.38,359.15" style="stroke:#181818;stroke-width:1.0;"/><text fill="#000000" font-family="sans-serif" font-size="13" lengthAdjust="spacing" textLength="48" x="338" y="350.4951">includes</text></g><!--link UC1 to UC9--><g id="link_UC1_UC9"><path d="M271.89,334.34 C318.9,325.64 383.12,313.74 431.53,304.77 " fill="none" id="UC1-to-UC9" style="stroke:#181818;stroke-width:1.0;stroke-dasharray:7.0,7.0;"/><polygon fill="#181818" points="436.46,303.86,426.8867,301.5467,431.5418,304.7607,428.3278,309.4159,436.46,303.86" style="stroke:#181818;stroke-width:1.0;"/><text fill="#000000" font-family="sans-serif" font-size="13" lengthAdjust="spacing" textLength="46" x="339" y="311.4951">extends</text></g><!--link UC4 to UC5--><g id="link_UC4_UC5"><path d="M258.45,148.09 C315.1,165.39 406.88,193.41 459.65,209.52 " fill="none" id="UC4-to-UC5" style="stroke:#181818;stroke-width:1.0;stroke-dasharray:7.0,7.0;"/><polygon fill="#181818" points="464.63,211.04,457.1853,204.592,459.8468,209.5836,454.8551,212.2451,464.63,211.04" style="stroke:#181818;stroke-width:1.0;"/><text fill="#000000" font-family="sans-serif" font-size="13" lengthAdjust="spacing" textLength="48" x="338" y="169.4951">includes</text></g><!--link UC10 to UC11--><g id="link_UC10_UC11"><path d="M285.21,61.52 C323.87,61.78 371.07,62.11 411.4,62.38 " fill="none" id="UC10-to-UC11" style="stroke:#181818;stroke-width:1.0;stroke-dasharray:7.0,7.0;"/><polygon fill="#181818" points="416.79,62.42,407.8246,58.343,411.7902,62.3771,407.756,66.3427,416.79,62.42" style="stroke:#181818;stroke-width:1.0;"/><text fill="#000000" font-family="sans-serif" font-size="13" lengthAdjust="spacing" textLength="48" x="338" y="58.4951">includes</text></g><!--link UC10 to UC12--><g id="link_UC10_UC12"><path d="M260.11,74.32 C310.65,87.5 387.93,107.65 441.16,121.52 " fill="none" id="UC10-to-UC12" style="stroke:#181818;stroke-width:1.0;stroke-dasharray:7.0,7.0;"/><polygon fill="#181818" points="446.23,122.85,438.5407,116.6957,441.3939,121.5803,436.5093,124.4335,446.23,122.85" style="stroke:#181818;stroke-width:1.0;"/><text fill="#000000" font-family="sans-serif" font-size="13" lengthAdjust="spacing" textLength="48" x="338" y="91.4951">includes</text></g><!--SRC=[RP9DJm8n48Rl_HKJF6D0liI32IwW7aWCAFT9TrmRkYrfPrLY_E-sVAnRmXusC-_xPAQTgQPt1hRWLF71a2j7afKrmc-KsQB34hOeDrZGYdUQ8Dfe2aqDuCrJXfuU0bSuMvayizewk9hTpc_d0o5GSaXVDEx80NhOxgEZF7cE4YeXwjBGcYf9y8WbmMhdcSeM_0W8N-L9XaxGYiKWq-Yzadkm5QkyPTrBMENPbasgdr9BgpN4baTxaDfFLkTDUvZQ3sWsi9BMdVnHwi_G6PZ83qMVL99XVyJ6AHQ626lbk48D2vlN5-gaM8PRhXpjpmFFPTZB2Jox-fGupFF0hL5NTEhRlKd1jQAlmwoNbVwdUYdrQekucHKnArFKrDaa5xW933jaAi9YfYIL3u-fnWVYLuZ3-g7Ttk-hcVLJhvEclJJjXuUb3l6WZePrDAgZq5M4FrnVtqSMxa0PgQkSV4CUNfP7b-LnaEcRoUHHxLyg7UdEqUXspyhKnatJ-0C0]--></g></svg>