<?xml version="1.0" encoding="us-ascii" standalone="no"?><svg xmlns="http://www.w3.org/2000/svg" xmlns:xlink="http://www.w3.org/1999/xlink" contentStyleType="text/css" height="553px" preserveAspectRatio="none" style="width:952px;height:553px;background:#FFFFFF;" version="1.1" viewBox="0 0 952 553" width="952px" zoomAndPan="magnify"><defs/><g><!--class GameState--><g id="elem_GameState"><rect codeLine="17" fill="#FFFFFF" height="138.5625" id="GameState" rx="2.5" ry="2.5" style="stroke:#2F4F4F;stroke-width:0.5;" width="173" x="7" y="192"/><ellipse cx="58.25" cy="208" fill="#ADD1B2" rx="11" ry="11" style="stroke:#181818;stroke-width:1.0;"/><path d="M61.0156,203.875 Q61.1719,203.6563 61.3594,203.5469 Q61.5469,203.4375 61.7656,203.4375 Q62.1406,203.4375 62.375,203.7031 Q62.6094,203.9531 62.6094,204.5625 L62.6094,206.0156 Q62.6094,206.625 62.375,206.8906 Q62.1406,207.1563 61.7656,207.1563 Q61.4219,207.1563 61.2188,206.9531 Q61.0156,206.7656 60.9063,206.25 Q60.8594,205.8906 60.6719,205.7031 Q60.3438,205.3281 59.7344,205.1094 Q59.125,204.8906 58.5,204.8906 Q57.7344,204.8906 57.0938,205.2188 Q56.4688,205.5469 55.9688,206.2969 Q55.4844,207.0469 55.4844,208.0781 L55.4844,209.1719 Q55.4844,210.4063 56.375,211.2344 Q57.2656,212.0469 58.8594,212.0469 Q59.7969,212.0469 60.4531,211.7969 Q60.8438,211.6406 61.2656,211.2031 Q61.5313,210.9375 61.6719,210.8594 Q61.8281,210.7813 62.0313,210.7813 Q62.3594,210.7813 62.6094,211.0469 Q62.875,211.2969 62.875,211.6406 Q62.875,211.9844 62.5313,212.3906 Q62.0313,212.9688 61.2344,213.2969 Q60.1563,213.75 58.8594,213.75 Q57.3438,213.75 56.1406,213.125 Q55.1563,212.625 54.4688,211.5625 Q53.7813,210.4844 53.7813,209.2031 L53.7813,208.0469 Q53.7813,206.7188 54.3906,205.5781 Q55.0156,204.4219 56.1094,203.8125 Q57.2031,203.1875 58.4375,203.1875 Q59.1719,203.1875 59.8125,203.3594 Q60.4688,203.5156 61.0156,203.875 Z " fill="#000000"/><text fill="#000000" font-family="sans-serif" font-size="12" lengthAdjust="spacing" textLength="62" x="78.75" y="212.9102">GameState</text><line style="stroke:#2F4F4F;stroke-width:0.5;" x1="8" x2="179" y1="224" y2="224"/><ellipse cx="18" cy="237.0469" fill="none" rx="3" ry="3" style="stroke:#038048;stroke-width:1.0;"/><text fill="#000000" font-family="sans-serif" font-size="12" lengthAdjust="spacing" textLength="120" x="27" y="240.457">currentPlayerIndex: Int</text><ellipse cx="18" cy="252.1406" fill="none" rx="3" ry="3" style="stroke:#038048;stroke-width:1.0;"/><text fill="#000000" font-family="sans-serif" font-size="12" lengthAdjust="spacing" textLength="121" x="27" y="255.5508">isGameOver: Boolean</text><ellipse cx="18" cy="267.2344" fill="none" rx="3" ry="3" style="stroke:#038048;stroke-width:1.0;"/><text fill="#000000" font-family="sans-serif" font-size="12" lengthAdjust="spacing" textLength="147" x="27" y="270.6445">playerScores: Map&lt;Int, Int&gt;</text><ellipse cx="18" cy="282.3281" fill="none" rx="3" ry="3" style="stroke:#038048;stroke-width:1.0;"/><text fill="#000000" font-family="sans-serif" font-size="12" lengthAdjust="spacing" textLength="114" x="27" y="285.7383">currentTurnScore: Int</text><ellipse cx="18" cy="297.4219" fill="none" rx="3" ry="3" style="stroke:#038048;stroke-width:1.0;"/><text fill="#000000" font-family="sans-serif" font-size="12" lengthAdjust="spacing" textLength="63" x="27" y="300.832">rollsLeft: Int</text><ellipse cx="18" cy="312.5156" fill="none" rx="3" ry="3" style="stroke:#038048;stroke-width:1.0;"/><text fill="#000000" font-family="sans-serif" font-size="12" lengthAdjust="spacing" textLength="100" x="27" y="315.9258">heldDice: Set&lt;Int&gt;</text><line style="stroke:#2F4F4F;stroke-width:0.5;" x1="8" x2="179" y1="322.5625" y2="322.5625"/></g><!--class GameStatistics--><g id="elem_GameStatistics"><rect codeLine="27" fill="#FFFFFF" height="108.375" id="GameStatistics" rx="2.5" ry="2.5" style="stroke:#2F4F4F;stroke-width:0.5;" width="206" x="560.5" y="7"/><ellipse cx="617.25" cy="23" fill="#ADD1B2" rx="11" ry="11" style="stroke:#181818;stroke-width:1.0;"/><path d="M620.0156,18.875 Q620.1719,18.6563 620.3594,18.5469 Q620.5469,18.4375 620.7656,18.4375 Q621.1406,18.4375 621.375,18.7031 Q621.6094,18.9531 621.6094,19.5625 L621.6094,21.0156 Q621.6094,21.625 621.375,21.8906 Q621.1406,22.1563 620.7656,22.1563 Q620.4219,22.1563 620.2188,21.9531 Q620.0156,21.7656 619.9063,21.25 Q619.8594,20.8906 619.6719,20.7031 Q619.3438,20.3281 618.7344,20.1094 Q618.125,19.8906 617.5,19.8906 Q616.7344,19.8906 616.0938,20.2188 Q615.4688,20.5469 614.9688,21.2969 Q614.4844,22.0469 614.4844,23.0781 L614.4844,24.1719 Q614.4844,25.4063 615.375,26.2344 Q616.2656,27.0469 617.8594,27.0469 Q618.7969,27.0469 619.4531,26.7969 Q619.8438,26.6406 620.2656,26.2031 Q620.5313,25.9375 620.6719,25.8594 Q620.8281,25.7813 621.0313,25.7813 Q621.3594,25.7813 621.6094,26.0469 Q621.875,26.2969 621.875,26.6406 Q621.875,26.9844 621.5313,27.3906 Q621.0313,27.9688 620.2344,28.2969 Q619.1563,28.75 617.8594,28.75 Q616.3438,28.75 615.1406,28.125 Q614.1563,27.625 613.4688,26.5625 Q612.7813,25.4844 612.7813,24.2031 L612.7813,23.0469 Q612.7813,21.7188 613.3906,20.5781 Q614.0156,19.4219 615.1094,18.8125 Q616.2031,18.1875 617.4375,18.1875 Q618.1719,18.1875 618.8125,18.3594 Q619.4688,18.5156 620.0156,18.875 Z " fill="#000000"/><text fill="#000000" font-family="sans-serif" font-size="12" lengthAdjust="spacing" textLength="84" x="637.75" y="27.9102">GameStatistics</text><line style="stroke:#2F4F4F;stroke-width:0.5;" x1="561.5" x2="765.5" y1="39" y2="39"/><ellipse cx="571.5" cy="52.0469" fill="none" rx="3" ry="3" style="stroke:#038048;stroke-width:1.0;"/><text fill="#000000" font-family="sans-serif" font-size="12" lengthAdjust="spacing" textLength="95" x="580.5" y="55.457">gamesPlayed: Int</text><ellipse cx="571.5" cy="67.1406" fill="none" rx="3" ry="3" style="stroke:#038048;stroke-width:1.0;"/><text fill="#000000" font-family="sans-serif" font-size="12" lengthAdjust="spacing" textLength="157" x="580.5" y="70.5508">highScores: Map&lt;String, Int&gt;</text><ellipse cx="571.5" cy="82.2344" fill="none" rx="3" ry="3" style="stroke:#038048;stroke-width:1.0;"/><text fill="#000000" font-family="sans-serif" font-size="12" lengthAdjust="spacing" textLength="180" x="580.5" y="85.6445">winRates: Map&lt;String, WinRate&gt;</text><ellipse cx="571.5" cy="97.3281" fill="none" rx="3" ry="3" style="stroke:#038048;stroke-width:1.0;"/><text fill="#000000" font-family="sans-serif" font-size="12" lengthAdjust="spacing" textLength="83" x="580.5" y="100.7383">lastSeen: Long</text><line style="stroke:#2F4F4F;stroke-width:0.5;" x1="561.5" x2="765.5" y1="107.375" y2="107.375"/></g><!--class PlayerAnalysis--><g id="elem_PlayerAnalysis"><rect codeLine="34" fill="#FFFFFF" height="108.375" id="PlayerAnalysis" rx="2.5" ry="2.5" style="stroke:#2F4F4F;stroke-width:0.5;" width="157" x="486" y="207.5"/><ellipse cx="521.25" cy="223.5" fill="#ADD1B2" rx="11" ry="11" style="stroke:#181818;stroke-width:1.0;"/><path d="M524.0156,219.375 Q524.1719,219.1563 524.3594,219.0469 Q524.5469,218.9375 524.7656,218.9375 Q525.1406,218.9375 525.375,219.2031 Q525.6094,219.4531 525.6094,220.0625 L525.6094,221.5156 Q525.6094,222.125 525.375,222.3906 Q525.1406,222.6563 524.7656,222.6563 Q524.4219,222.6563 524.2188,222.4531 Q524.0156,222.2656 523.9063,221.75 Q523.8594,221.3906 523.6719,221.2031 Q523.3438,220.8281 522.7344,220.6094 Q522.125,220.3906 521.5,220.3906 Q520.7344,220.3906 520.0938,220.7188 Q519.4688,221.0469 518.9688,221.7969 Q518.4844,222.5469 518.4844,223.5781 L518.4844,224.6719 Q518.4844,225.9063 519.375,226.7344 Q520.2656,227.5469 521.8594,227.5469 Q522.7969,227.5469 523.4531,227.2969 Q523.8438,227.1406 524.2656,226.7031 Q524.5313,226.4375 524.6719,226.3594 Q524.8281,226.2813 525.0313,226.2813 Q525.3594,226.2813 525.6094,226.5469 Q525.875,226.7969 525.875,227.1406 Q525.875,227.4844 525.5313,227.8906 Q525.0313,228.4688 524.2344,228.7969 Q523.1563,229.25 521.8594,229.25 Q520.3438,229.25 519.1406,228.625 Q518.1563,228.125 517.4688,227.0625 Q516.7813,225.9844 516.7813,224.7031 L516.7813,223.5469 Q516.7813,222.2188 517.3906,221.0781 Q518.0156,219.9219 519.1094,219.3125 Q520.2031,218.6875 521.4375,218.6875 Q522.1719,218.6875 522.8125,218.8594 Q523.4688,219.0156 524.0156,219.375 Z " fill="#000000"/><text fill="#000000" font-family="sans-serif" font-size="12" lengthAdjust="spacing" textLength="80" x="539.75" y="228.4102">PlayerAnalysis</text><line style="stroke:#2F4F4F;stroke-width:0.5;" x1="487" x2="642" y1="239.5" y2="239.5"/><ellipse cx="497" cy="252.5469" fill="none" rx="3" ry="3" style="stroke:#038048;stroke-width:1.0;"/><text fill="#000000" font-family="sans-serif" font-size="12" lengthAdjust="spacing" textLength="131" x="506" y="255.957">predictedWinRate: Float</text><ellipse cx="497" cy="267.6406" fill="none" rx="3" ry="3" style="stroke:#038048;stroke-width:1.0;"/><text fill="#000000" font-family="sans-serif" font-size="12" lengthAdjust="spacing" textLength="98" x="506" y="271.0508">consistency: Float</text><ellipse cx="497" cy="282.7344" fill="none" rx="3" ry="3" style="stroke:#038048;stroke-width:1.0;"/><text fill="#000000" font-family="sans-serif" font-size="12" lengthAdjust="spacing" textLength="103" x="506" y="286.1445">playStyle: PlayStyle</text><ellipse cx="497" cy="297.8281" fill="none" rx="3" ry="3" style="stroke:#038048;stroke-width:1.0;"/><text fill="#000000" font-family="sans-serif" font-size="12" lengthAdjust="spacing" textLength="105" x="506" y="301.2383">improvement: Float</text><line style="stroke:#2F4F4F;stroke-width:0.5;" x1="487" x2="642" y1="307.875" y2="307.875"/></g><!--class DecisionPatterns--><g id="elem_DecisionPatterns"><rect codeLine="41" fill="#FFFFFF" height="108.375" id="DecisionPatterns" rx="2.5" ry="2.5" style="stroke:#2F4F4F;stroke-width:0.5;" width="176" x="260.5" y="423.5"/><ellipse cx="297.55" cy="439.5" fill="#ADD1B2" rx="11" ry="11" style="stroke:#181818;stroke-width:1.0;"/><path d="M300.3156,435.375 Q300.4719,435.1563 300.6594,435.0469 Q300.8469,434.9375 301.0656,434.9375 Q301.4406,434.9375 301.675,435.2031 Q301.9094,435.4531 301.9094,436.0625 L301.9094,437.5156 Q301.9094,438.125 301.675,438.3906 Q301.4406,438.6563 301.0656,438.6563 Q300.7219,438.6563 300.5188,438.4531 Q300.3156,438.2656 300.2063,437.75 Q300.1594,437.3906 299.9719,437.2031 Q299.6438,436.8281 299.0344,436.6094 Q298.425,436.3906 297.8,436.3906 Q297.0344,436.3906 296.3938,436.7188 Q295.7688,437.0469 295.2688,437.7969 Q294.7844,438.5469 294.7844,439.5781 L294.7844,440.6719 Q294.7844,441.9063 295.675,442.7344 Q296.5656,443.5469 298.1594,443.5469 Q299.0969,443.5469 299.7531,443.2969 Q300.1438,443.1406 300.5656,442.7031 Q300.8313,442.4375 300.9719,442.3594 Q301.1281,442.2813 301.3313,442.2813 Q301.6594,442.2813 301.9094,442.5469 Q302.175,442.7969 302.175,443.1406 Q302.175,443.4844 301.8313,443.8906 Q301.3313,444.4688 300.5344,444.7969 Q299.4563,445.25 298.1594,445.25 Q296.6438,445.25 295.4406,444.625 Q294.4563,444.125 293.7688,443.0625 Q293.0813,441.9844 293.0813,440.7031 L293.0813,439.5469 Q293.0813,438.2188 293.6906,437.0781 Q294.3156,435.9219 295.4094,435.3125 Q296.5031,434.6875 297.7375,434.6875 Q298.4719,434.6875 299.1125,434.8594 Q299.7688,435.0156 300.3156,435.375 Z " fill="#000000"/><text fill="#000000" font-family="sans-serif" font-size="12" lengthAdjust="spacing" textLength="95" x="316.45" y="444.4102">DecisionPatterns</text><line style="stroke:#2F4F4F;stroke-width:0.5;" x1="261.5" x2="435.5" y1="455.5" y2="455.5"/><ellipse cx="271.5" cy="468.5469" fill="none" rx="3" ry="3" style="stroke:#038048;stroke-width:1.0;"/><text fill="#000000" font-family="sans-serif" font-size="12" lengthAdjust="spacing" textLength="150" x="280.5" y="471.957">averageRollsPerTurn: Float</text><ellipse cx="271.5" cy="483.6406" fill="none" rx="3" ry="3" style="stroke:#038048;stroke-width:1.0;"/><text fill="#000000" font-family="sans-serif" font-size="12" lengthAdjust="spacing" textLength="133" x="280.5" y="487.0508">bankingThreshold: Float</text><ellipse cx="271.5" cy="498.7344" fill="none" rx="3" ry="3" style="stroke:#038048;stroke-width:1.0;"/><text fill="#000000" font-family="sans-serif" font-size="12" lengthAdjust="spacing" textLength="90" x="280.5" y="502.1445">riskTaking: Float</text><ellipse cx="271.5" cy="513.8281" fill="none" rx="3" ry="3" style="stroke:#038048;stroke-width:1.0;"/><text fill="#000000" font-family="sans-serif" font-size="12" lengthAdjust="spacing" textLength="116" x="280.5" y="517.2383">decisionSpeed: Float</text><line style="stroke:#2F4F4F;stroke-width:0.5;" x1="261.5" x2="435.5" y1="523.875" y2="523.875"/></g><!--class WinRate--><g id="elem_WinRate"><rect codeLine="48" fill="#FFFFFF" height="93.2813" id="WinRate" rx="2.5" ry="2.5" style="stroke:#2F4F4F;stroke-width:0.5;" width="168" x="678.5" y="215"/><ellipse cx="734.75" cy="231" fill="#ADD1B2" rx="11" ry="11" style="stroke:#181818;stroke-width:1.0;"/><path d="M737.5156,226.875 Q737.6719,226.6563 737.8594,226.5469 Q738.0469,226.4375 738.2656,226.4375 Q738.6406,226.4375 738.875,226.7031 Q739.1094,226.9531 739.1094,227.5625 L739.1094,229.0156 Q739.1094,229.625 738.875,229.8906 Q738.6406,230.1563 738.2656,230.1563 Q737.9219,230.1563 737.7188,229.9531 Q737.5156,229.7656 737.4063,229.25 Q737.3594,228.8906 737.1719,228.7031 Q736.8438,228.3281 736.2344,228.1094 Q735.625,227.8906 735,227.8906 Q734.2344,227.8906 733.5938,228.2188 Q732.9688,228.5469 732.4688,229.2969 Q731.9844,230.0469 731.9844,231.0781 L731.9844,232.1719 Q731.9844,233.4063 732.875,234.2344 Q733.7656,235.0469 735.3594,235.0469 Q736.2969,235.0469 736.9531,234.7969 Q737.3438,234.6406 737.7656,234.2031 Q738.0313,233.9375 738.1719,233.8594 Q738.3281,233.7813 738.5313,233.7813 Q738.8594,233.7813 739.1094,234.0469 Q739.375,234.2969 739.375,234.6406 Q739.375,234.9844 739.0313,235.3906 Q738.5313,235.9688 737.7344,236.2969 Q736.6563,236.75 735.3594,236.75 Q733.8438,236.75 732.6406,236.125 Q731.6563,235.625 730.9688,234.5625 Q730.2813,233.4844 730.2813,232.2031 L730.2813,231.0469 Q730.2813,229.7188 730.8906,228.5781 Q731.5156,227.4219 732.6094,226.8125 Q733.7031,226.1875 734.9375,226.1875 Q735.6719,226.1875 736.3125,226.3594 Q736.9688,226.5156 737.5156,226.875 Z " fill="#000000"/><text fill="#000000" font-family="sans-serif" font-size="12" lengthAdjust="spacing" textLength="47" x="755.25" y="235.9102">WinRate</text><line style="stroke:#2F4F4F;stroke-width:0.5;" x1="679.5" x2="845.5" y1="247" y2="247"/><ellipse cx="689.5" cy="260.0469" fill="none" rx="3" ry="3" style="stroke:#038048;stroke-width:1.0;"/><text fill="#000000" font-family="sans-serif" font-size="12" lengthAdjust="spacing" textLength="45" x="698.5" y="263.457">wins: Int</text><ellipse cx="689.5" cy="275.1406" fill="none" rx="3" ry="3" style="stroke:#038048;stroke-width:1.0;"/><text fill="#000000" font-family="sans-serif" font-size="12" lengthAdjust="spacing" textLength="42" x="698.5" y="278.5508">total: Int</text><line style="stroke:#2F4F4F;stroke-width:0.5;" x1="679.5" x2="845.5" y1="285.1875" y2="285.1875"/><ellipse cx="689.5" cy="298.2344" fill="#84BE84" rx="3" ry="3" style="stroke:#038048;stroke-width:1.0;"/><text fill="#000000" font-family="sans-serif" font-size="12" lengthAdjust="spacing" textLength="142" x="698.5" y="301.6445">getWinPercentage(): Float</text></g><!--class TimeMetrics--><g id="elem_TimeMetrics"><rect codeLine="54" fill="#FFFFFF" height="108.375" id="TimeMetrics" rx="2.5" ry="2.5" style="stroke:#2F4F4F;stroke-width:0.5;" width="185" x="472" y="423.5"/><ellipse cx="526.75" cy="439.5" fill="#ADD1B2" rx="11" ry="11" style="stroke:#181818;stroke-width:1.0;"/><path d="M529.5156,435.375 Q529.6719,435.1563 529.8594,435.0469 Q530.0469,434.9375 530.2656,434.9375 Q530.6406,434.9375 530.875,435.2031 Q531.1094,435.4531 531.1094,436.0625 L531.1094,437.5156 Q531.1094,438.125 530.875,438.3906 Q530.6406,438.6563 530.2656,438.6563 Q529.9219,438.6563 529.7188,438.4531 Q529.5156,438.2656 529.4063,437.75 Q529.3594,437.3906 529.1719,437.2031 Q528.8438,436.8281 528.2344,436.6094 Q527.625,436.3906 527,436.3906 Q526.2344,436.3906 525.5938,436.7188 Q524.9688,437.0469 524.4688,437.7969 Q523.9844,438.5469 523.9844,439.5781 L523.9844,440.6719 Q523.9844,441.9063 524.875,442.7344 Q525.7656,443.5469 527.3594,443.5469 Q528.2969,443.5469 528.9531,443.2969 Q529.3438,443.1406 529.7656,442.7031 Q530.0313,442.4375 530.1719,442.3594 Q530.3281,442.2813 530.5313,442.2813 Q530.8594,442.2813 531.1094,442.5469 Q531.375,442.7969 531.375,443.1406 Q531.375,443.4844 531.0313,443.8906 Q530.5313,444.4688 529.7344,444.7969 Q528.6563,445.25 527.3594,445.25 Q525.8438,445.25 524.6406,444.625 Q523.6563,444.125 522.9688,443.0625 Q522.2813,441.9844 522.2813,440.7031 L522.2813,439.5469 Q522.2813,438.2188 522.8906,437.0781 Q523.5156,435.9219 524.6094,435.3125 Q525.7031,434.6875 526.9375,434.6875 Q527.6719,434.6875 528.3125,434.8594 Q528.9688,435.0156 529.5156,435.375 Z " fill="#000000"/><text fill="#000000" font-family="sans-serif" font-size="12" lengthAdjust="spacing" textLength="67" x="547.25" y="444.4102">TimeMetrics</text><line style="stroke:#2F4F4F;stroke-width:0.5;" x1="473" x2="656" y1="455.5" y2="455.5"/><ellipse cx="483" cy="468.5469" fill="none" rx="3" ry="3" style="stroke:#038048;stroke-width:1.0;"/><text fill="#000000" font-family="sans-serif" font-size="12" lengthAdjust="spacing" textLength="159" x="492" y="471.957">averageGameDuration: Long</text><ellipse cx="483" cy="483.6406" fill="none" rx="3" ry="3" style="stroke:#038048;stroke-width:1.0;"/><text fill="#000000" font-family="sans-serif" font-size="12" lengthAdjust="spacing" textLength="150" x="492" y="487.0508">averageTurnDuration: Long</text><ellipse cx="483" cy="498.7344" fill="none" rx="3" ry="3" style="stroke:#038048;stroke-width:1.0;"/><text fill="#000000" font-family="sans-serif" font-size="12" lengthAdjust="spacing" textLength="105" x="492" y="502.1445">fastestGame: Long</text><ellipse cx="483" cy="513.8281" fill="none" rx="3" ry="3" style="stroke:#038048;stroke-width:1.0;"/><text fill="#000000" font-family="sans-serif" font-size="12" lengthAdjust="spacing" textLength="108" x="492" y="517.2383">totalPlayTime: Long</text><line style="stroke:#2F4F4F;stroke-width:0.5;" x1="473" x2="656" y1="523.875" y2="523.875"/></g><!--class PerformanceMetrics--><g id="elem_PerformanceMetrics"><rect codeLine="61" fill="#FFFFFF" height="138.5625" id="PerformanceMetrics" rx="2.5" ry="2.5" style="stroke:#2F4F4F;stroke-width:0.5;" width="253" x="692" y="408"/><ellipse cx="759.25" cy="424" fill="#ADD1B2" rx="11" ry="11" style="stroke:#181818;stroke-width:1.0;"/><path d="M762.0156,419.875 Q762.1719,419.6563 762.3594,419.5469 Q762.5469,419.4375 762.7656,419.4375 Q763.1406,419.4375 763.375,419.7031 Q763.6094,419.9531 763.6094,420.5625 L763.6094,422.0156 Q763.6094,422.625 763.375,422.8906 Q763.1406,423.1563 762.7656,423.1563 Q762.4219,423.1563 762.2188,422.9531 Q762.0156,422.7656 761.9063,422.25 Q761.8594,421.8906 761.6719,421.7031 Q761.3438,421.3281 760.7344,421.1094 Q760.125,420.8906 759.5,420.8906 Q758.7344,420.8906 758.0938,421.2188 Q757.4688,421.5469 756.9688,422.2969 Q756.4844,423.0469 756.4844,424.0781 L756.4844,425.1719 Q756.4844,426.4063 757.375,427.2344 Q758.2656,428.0469 759.8594,428.0469 Q760.7969,428.0469 761.4531,427.7969 Q761.8438,427.6406 762.2656,427.2031 Q762.5313,426.9375 762.6719,426.8594 Q762.8281,426.7813 763.0313,426.7813 Q763.3594,426.7813 763.6094,427.0469 Q763.875,427.2969 763.875,427.6406 Q763.875,427.9844 763.5313,428.3906 Q763.0313,428.9688 762.2344,429.2969 Q761.1563,429.75 759.8594,429.75 Q758.3438,429.75 757.1406,429.125 Q756.1563,428.625 755.4688,427.5625 Q754.7813,426.4844 754.7813,425.2031 L754.7813,424.0469 Q754.7813,422.7188 755.3906,421.5781 Q756.0156,420.4219 757.1094,419.8125 Q758.2031,419.1875 759.4375,419.1875 Q760.1719,419.1875 760.8125,419.3594 Q761.4688,419.5156 762.0156,419.875 Z " fill="#000000"/><text fill="#000000" font-family="sans-serif" font-size="12" lengthAdjust="spacing" textLength="110" x="779.75" y="428.9102">PerformanceMetrics</text><line style="stroke:#2F4F4F;stroke-width:0.5;" x1="693" x2="944" y1="440" y2="440"/><ellipse cx="703" cy="453.0469" fill="none" rx="3" ry="3" style="stroke:#038048;stroke-width:1.0;"/><text fill="#000000" font-family="sans-serif" font-size="12" lengthAdjust="spacing" textLength="92" x="712" y="456.457">currentStreak: Int</text><ellipse cx="703" cy="468.1406" fill="none" rx="3" ry="3" style="stroke:#038048;stroke-width:1.0;"/><text fill="#000000" font-family="sans-serif" font-size="12" lengthAdjust="spacing" textLength="95" x="712" y="471.5508">longestStreak: Int</text><ellipse cx="703" cy="483.2344" fill="none" rx="3" ry="3" style="stroke:#038048;stroke-width:1.0;"/><text fill="#000000" font-family="sans-serif" font-size="12" lengthAdjust="spacing" textLength="83" x="712" y="486.6445">comebacks: Int</text><ellipse cx="703" cy="498.3281" fill="none" rx="3" ry="3" style="stroke:#038048;stroke-width:1.0;"/><text fill="#000000" font-family="sans-serif" font-size="12" lengthAdjust="spacing" textLength="90" x="712" y="501.7383">closeGames: Int</text><ellipse cx="703" cy="513.4219" fill="none" rx="3" ry="3" style="stroke:#038048;stroke-width:1.0;"/><text fill="#000000" font-family="sans-serif" font-size="12" lengthAdjust="spacing" textLength="175" x="712" y="516.832">personalBests: Map&lt;String, Int&gt;</text><ellipse cx="703" cy="528.5156" fill="none" rx="3" ry="3" style="stroke:#038048;stroke-width:1.0;"/><text fill="#000000" font-family="sans-serif" font-size="12" lengthAdjust="spacing" textLength="227" x="712" y="531.9258">averageScoreByMode: Map&lt;String, Float&gt;</text><line style="stroke:#2F4F4F;stroke-width:0.5;" x1="693" x2="944" y1="538.5625" y2="538.5625"/></g><!--class Detection--><g id="elem_Detection"><rect codeLine="71" fill="#FFFFFF" height="93.2813" id="Detection" rx="2.5" ry="2.5" style="stroke:#2F4F4F;stroke-width:0.5;" width="136" x="57.5" y="431"/><ellipse cx="95.9" cy="447" fill="#ADD1B2" rx="11" ry="11" style="stroke:#181818;stroke-width:1.0;"/><path d="M98.6656,442.875 Q98.8219,442.6563 99.0094,442.5469 Q99.1969,442.4375 99.4156,442.4375 Q99.7906,442.4375 100.025,442.7031 Q100.2594,442.9531 100.2594,443.5625 L100.2594,445.0156 Q100.2594,445.625 100.025,445.8906 Q99.7906,446.1563 99.4156,446.1563 Q99.0719,446.1563 98.8688,445.9531 Q98.6656,445.7656 98.5563,445.25 Q98.5094,444.8906 98.3219,444.7031 Q97.9938,444.3281 97.3844,444.1094 Q96.775,443.8906 96.15,443.8906 Q95.3844,443.8906 94.7438,444.2188 Q94.1188,444.5469 93.6188,445.2969 Q93.1344,446.0469 93.1344,447.0781 L93.1344,448.1719 Q93.1344,449.4063 94.025,450.2344 Q94.9156,451.0469 96.5094,451.0469 Q97.4469,451.0469 98.1031,450.7969 Q98.4938,450.6406 98.9156,450.2031 Q99.1813,449.9375 99.3219,449.8594 Q99.4781,449.7813 99.6813,449.7813 Q100.0094,449.7813 100.2594,450.0469 Q100.525,450.2969 100.525,450.6406 Q100.525,450.9844 100.1813,451.3906 Q99.6813,451.9688 98.8844,452.2969 Q97.8063,452.75 96.5094,452.75 Q94.9938,452.75 93.7906,452.125 Q92.8063,451.625 92.1188,450.5625 Q91.4313,449.4844 91.4313,448.2031 L91.4313,447.0469 Q91.4313,445.7188 92.0406,444.5781 Q92.6656,443.4219 93.7594,442.8125 Q94.8531,442.1875 96.0875,442.1875 Q96.8219,442.1875 97.4625,442.3594 Q98.1188,442.5156 98.6656,442.875 Z " fill="#000000"/><text fill="#000000" font-family="sans-serif" font-size="12" lengthAdjust="spacing" textLength="52" x="115.1" y="451.9102">Detection</text><line style="stroke:#2F4F4F;stroke-width:0.5;" x1="58.5" x2="192.5" y1="463" y2="463"/><ellipse cx="68.5" cy="476.0469" fill="none" rx="3" ry="3" style="stroke:#038048;stroke-width:1.0;"/><text fill="#000000" font-family="sans-serif" font-size="12" lengthAdjust="spacing" textLength="110" x="77.5" y="479.457">boundingBox: RectF</text><ellipse cx="68.5" cy="491.1406" fill="none" rx="3" ry="3" style="stroke:#038048;stroke-width:1.0;"/><text fill="#000000" font-family="sans-serif" font-size="12" lengthAdjust="spacing" textLength="65" x="77.5" y="494.5508">label: String</text><ellipse cx="68.5" cy="506.2344" fill="none" rx="3" ry="3" style="stroke:#038048;stroke-width:1.0;"/><text fill="#000000" font-family="sans-serif" font-size="12" lengthAdjust="spacing" textLength="93" x="77.5" y="509.6445">confidence: Float</text><line style="stroke:#2F4F4F;stroke-width:0.5;" x1="58.5" x2="192.5" y1="516.2813" y2="516.2813"/></g><!--class DiceDetectionResult--><g id="elem_DiceDetectionResult"><rect codeLine="77" fill="#FFFFFF" height="93.2813" id="DiceDetectionResult" rx="2.5" ry="2.5" style="stroke:#2F4F4F;stroke-width:0.5;" width="175" x="215" y="215"/><ellipse cx="243.5" cy="231" fill="#ADD1B2" rx="11" ry="11" style="stroke:#181818;stroke-width:1.0;"/><path d="M246.2656,226.875 Q246.4219,226.6563 246.6094,226.5469 Q246.7969,226.4375 247.0156,226.4375 Q247.3906,226.4375 247.625,226.7031 Q247.8594,226.9531 247.8594,227.5625 L247.8594,229.0156 Q247.8594,229.625 247.625,229.8906 Q247.3906,230.1563 247.0156,230.1563 Q246.6719,230.1563 246.4688,229.9531 Q246.2656,229.7656 246.1563,229.25 Q246.1094,228.8906 245.9219,228.7031 Q245.5938,228.3281 244.9844,228.1094 Q244.375,227.8906 243.75,227.8906 Q242.9844,227.8906 242.3438,228.2188 Q241.7188,228.5469 241.2188,229.2969 Q240.7344,230.0469 240.7344,231.0781 L240.7344,232.1719 Q240.7344,233.4063 241.625,234.2344 Q242.5156,235.0469 244.1094,235.0469 Q245.0469,235.0469 245.7031,234.7969 Q246.0938,234.6406 246.5156,234.2031 Q246.7813,233.9375 246.9219,233.8594 Q247.0781,233.7813 247.2813,233.7813 Q247.6094,233.7813 247.8594,234.0469 Q248.125,234.2969 248.125,234.6406 Q248.125,234.9844 247.7813,235.3906 Q247.2813,235.9688 246.4844,236.2969 Q245.4063,236.75 244.1094,236.75 Q242.5938,236.75 241.3906,236.125 Q240.4063,235.625 239.7188,234.5625 Q239.0313,233.4844 239.0313,232.2031 L239.0313,231.0469 Q239.0313,229.7188 239.6406,228.5781 Q240.2656,227.4219 241.3594,226.8125 Q242.4531,226.1875 243.6875,226.1875 Q244.4219,226.1875 245.0625,226.3594 Q245.7188,226.5156 246.2656,226.875 Z " fill="#000000"/><text fill="#000000" font-family="sans-serif" font-size="12" lengthAdjust="spacing" textLength="113" x="260.5" y="235.9102">DiceDetectionResult</text><line style="stroke:#2F4F4F;stroke-width:0.5;" x1="216" x2="389" y1="247" y2="247"/><ellipse cx="226" cy="260.0469" fill="none" rx="3" ry="3" style="stroke:#038048;stroke-width:1.0;"/><text fill="#000000" font-family="sans-serif" font-size="12" lengthAdjust="spacing" textLength="149" x="235" y="263.457">detections: List&lt;Detection&gt;</text><ellipse cx="226" cy="275.1406" fill="none" rx="3" ry="3" style="stroke:#038048;stroke-width:1.0;"/><text fill="#000000" font-family="sans-serif" font-size="12" lengthAdjust="spacing" textLength="93" x="235" y="278.5508">timestamp: Long</text><line style="stroke:#2F4F4F;stroke-width:0.5;" x1="216" x2="389" y1="285.1875" y2="285.1875"/><ellipse cx="226" cy="298.2344" fill="#84BE84" rx="3" ry="3" style="stroke:#038048;stroke-width:1.0;"/><text fill="#000000" font-family="sans-serif" font-size="12" lengthAdjust="spacing" textLength="97" x="235" y="301.6445">isValid(): Boolean</text></g><!--class DetectionRequest--><g id="elem_DetectionRequest"><rect codeLine="83" fill="#FFFFFF" height="78.1875" id="DetectionRequest" rx="2.5" ry="2.5" style="stroke:#2F4F4F;stroke-width:0.5;" width="172" x="216.5" y="22"/><ellipse cx="249.95" cy="38" fill="#ADD1B2" rx="11" ry="11" style="stroke:#181818;stroke-width:1.0;"/><path d="M252.7156,33.875 Q252.8719,33.6563 253.0594,33.5469 Q253.2469,33.4375 253.4656,33.4375 Q253.8406,33.4375 254.075,33.7031 Q254.3094,33.9531 254.3094,34.5625 L254.3094,36.0156 Q254.3094,36.625 254.075,36.8906 Q253.8406,37.1563 253.4656,37.1563 Q253.1219,37.1563 252.9188,36.9531 Q252.7156,36.7656 252.6063,36.25 Q252.5594,35.8906 252.3719,35.7031 Q252.0438,35.3281 251.4344,35.1094 Q250.825,34.8906 250.2,34.8906 Q249.4344,34.8906 248.7938,35.2188 Q248.1688,35.5469 247.6688,36.2969 Q247.1844,37.0469 247.1844,38.0781 L247.1844,39.1719 Q247.1844,40.4063 248.075,41.2344 Q248.9656,42.0469 250.5594,42.0469 Q251.4969,42.0469 252.1531,41.7969 Q252.5438,41.6406 252.9656,41.2031 Q253.2313,40.9375 253.3719,40.8594 Q253.5281,40.7813 253.7313,40.7813 Q254.0594,40.7813 254.3094,41.0469 Q254.575,41.2969 254.575,41.6406 Q254.575,41.9844 254.2313,42.3906 Q253.7313,42.9688 252.9344,43.2969 Q251.8563,43.75 250.5594,43.75 Q249.0438,43.75 247.8406,43.125 Q246.8563,42.625 246.1688,41.5625 Q245.4813,40.4844 245.4813,39.2031 L245.4813,38.0469 Q245.4813,36.7188 246.0906,35.5781 Q246.7156,34.4219 247.8094,33.8125 Q248.9031,33.1875 250.1375,33.1875 Q250.8719,33.1875 251.5125,33.3594 Q252.1688,33.5156 252.7156,33.875 Z " fill="#000000"/><text fill="#000000" font-family="sans-serif" font-size="12" lengthAdjust="spacing" textLength="99" x="268.05" y="42.9102">DetectionRequest</text><line style="stroke:#2F4F4F;stroke-width:0.5;" x1="217.5" x2="387.5" y1="54" y2="54"/><ellipse cx="227.5" cy="67.0469" fill="none" rx="3" ry="3" style="stroke:#038048;stroke-width:1.0;"/><text fill="#000000" font-family="sans-serif" font-size="12" lengthAdjust="spacing" textLength="117" x="236.5" y="70.457">imageData: ByteArray</text><line style="stroke:#2F4F4F;stroke-width:0.5;" x1="217.5" x2="387.5" y1="77.0938" y2="77.0938"/><ellipse cx="227.5" cy="90.1406" fill="#84BE84" rx="3" ry="3" style="stroke:#038048;stroke-width:1.0;"/><text fill="#000000" font-family="sans-serif" font-size="12" lengthAdjust="spacing" textLength="146" x="236.5" y="93.5508">getImageBytes(): ByteArray</text></g><!--link GameStatistics to PlayerAnalysis--><g id="link_GameStatistics_PlayerAnalysis"><path codeLine="89" d="M636.97,115.19 C624.65,139.89 609.9,169.48 596.92,195.49 " fill="none" id="GameStatistics-to-PlayerAnalysis" style="stroke:#2F4F4F;stroke-width:1.0;"/><polygon fill="#2F4F4F" points="591.1,207.16,597.3592,203.5792,596.4613,196.4242,590.2021,200.005,591.1,207.16" style="stroke:#2F4F4F;stroke-width:1.0;"/><text fill="#000000" font-family="sans-serif" font-size="12" lengthAdjust="spacing" textLength="44" x="621.5" y="158.457">&#171;owns&#187;</text><text fill="#000000" font-family="sans-serif" font-size="12" lengthAdjust="spacing" textLength="7" x="625.9347" y="135.9177">1</text><text fill="#000000" font-family="sans-serif" font-size="12" lengthAdjust="spacing" textLength="20" x="573.2269" y="196.6758">0..1</text></g><!--link PlayerAnalysis to DecisionPatterns--><g id="link_PlayerAnalysis_DecisionPatterns"><path codeLine="90" d="M510.83,315.67 C480.82,345.4 443.25,382.63 411.81,413.77 " fill="none" id="PlayerAnalysis-to-DecisionPatterns" style="stroke:#2F4F4F;stroke-width:1.0;"/><polygon fill="#2F4F4F" points="402.27,423.23,409.3465,421.8433,410.7882,414.7777,403.7117,416.1645,402.27,423.23" style="stroke:#2F4F4F;stroke-width:1.0;"/><text fill="#000000" font-family="sans-serif" font-size="12" lengthAdjust="spacing" textLength="61" x="464.5" y="374.457">&#171;contains&#187;</text><text fill="#000000" font-family="sans-serif" font-size="12" lengthAdjust="spacing" textLength="7" x="496.1478" y="336.395">1</text><text fill="#000000" font-family="sans-serif" font-size="12" lengthAdjust="spacing" textLength="7" x="401.7108" y="412.7547">1</text></g><!--link PlayerAnalysis to TimeMetrics--><g id="link_PlayerAnalysis_TimeMetrics"><path codeLine="91" d="M564.5,315.67 C564.5,344.25 564.5,379.75 564.5,410.12 " fill="none" id="PlayerAnalysis-to-TimeMetrics" style="stroke:#2F4F4F;stroke-width:1.0;"/><polygon fill="#2F4F4F" points="564.5,423.23,568.5,417.23,564.5,411.23,560.5,417.23,564.5,423.23" style="stroke:#2F4F4F;stroke-width:1.0;"/><text fill="#000000" font-family="sans-serif" font-size="12" lengthAdjust="spacing" textLength="61" x="565.5" y="374.457">&#171;contains&#187;</text><text fill="#000000" font-family="sans-serif" font-size="12" lengthAdjust="spacing" textLength="7" x="557.0297" y="336.395">1</text><text fill="#000000" font-family="sans-serif" font-size="12" lengthAdjust="spacing" textLength="7" x="557.0516" y="412.7547">1</text></g><!--link PlayerAnalysis to PerformanceMetrics--><g id="link_PlayerAnalysis_PerformanceMetrics"><path codeLine="92" d="M627.61,315.67 C657.57,340.91 693.94,371.56 726.87,399.3 " fill="none" id="PlayerAnalysis-to-PerformanceMetrics" style="stroke:#2F4F4F;stroke-width:1.0;"/><polygon fill="#2F4F4F" points="736.97,407.81,734.9623,400.884,727.7969,400.0735,729.8046,406.9994,736.97,407.81" style="stroke:#2F4F4F;stroke-width:1.0;"/><text fill="#000000" font-family="sans-serif" font-size="12" lengthAdjust="spacing" textLength="61" x="700.5" y="374.457">&#171;contains&#187;</text><text fill="#000000" font-family="sans-serif" font-size="12" lengthAdjust="spacing" textLength="7" x="628.6201" y="336.395">1</text><text fill="#000000" font-family="sans-serif" font-size="12" lengthAdjust="spacing" textLength="7" x="721.2013" y="397.3342">1</text></g><!--reverse link GameStatistics to WinRate--><g id="link_GameStatistics_WinRate"><path codeLine="93" d="M696.02,127.2 C710.33,155.89 726.8,188.91 739.76,214.91 " fill="none" id="GameStatistics-backto-WinRate" style="stroke:#2F4F4F;stroke-width:1.0;"/><polygon fill="none" points="690.03,115.19,689.1285,122.3445,695.386,125.9284,696.2875,118.7739,690.03,115.19" style="stroke:#2F4F4F;stroke-width:1.0;"/><text fill="#000000" font-family="sans-serif" font-size="12" lengthAdjust="spacing" textLength="47" x="714.5" y="158.457">&#171;tracks&#187;</text><text fill="#000000" font-family="sans-serif" font-size="12" lengthAdjust="spacing" textLength="7" x="686.1247" y="135.9177">1</text><text fill="#000000" font-family="sans-serif" font-size="12" lengthAdjust="spacing" textLength="18" x="717.0982" y="204.4088">0..*</text></g><!--link DetectionRequest to DiceDetectionResult--><g id="link_DetectionRequest_DiceDetectionResult"><path codeLine="94" d="M302.5,100.27 C302.5,131.29 302.5,175.27 302.5,209.31 " fill="none" id="DetectionRequest-to-DiceDetectionResult" style="stroke:#2F4F4F;stroke-width:1.0;stroke-dasharray:7.0,7.0;"/><polygon fill="#2F4F4F" points="302.5,214.68,306.5,205.68,302.5,209.68,298.5,205.68,302.5,214.68" style="stroke:#2F4F4F;stroke-width:1.0;"/><text fill="#000000" font-family="sans-serif" font-size="12" lengthAdjust="spacing" textLength="61" x="303.5" y="158.457">&#171;contains&#187;</text><text fill="#000000" font-family="sans-serif" font-size="12" lengthAdjust="spacing" textLength="20" x="281.0938" y="204.4851">0..1</text></g><!--link DiceDetectionResult to Detection--><g id="link_DiceDetectionResult_Detection"><path codeLine="95" d="M264.75,308.15 C237.49,341.1 200.52,385.79 171.53,420.85 " fill="none" id="DiceDetectionResult-to-Detection" style="stroke:#2F4F4F;stroke-width:1.0;"/><polygon fill="#2F4F4F" points="163.2,430.92,170.1067,428.8471,170.8497,421.6744,163.943,423.7473,163.2,430.92" style="stroke:#2F4F4F;stroke-width:1.0;"/><text fill="#000000" font-family="sans-serif" font-size="12" lengthAdjust="spacing" textLength="66" x="220.5" y="374.457">&#171;produces&#187;</text><text fill="#000000" font-family="sans-serif" font-size="12" lengthAdjust="spacing" textLength="7" x="251.4336" y="328.8844">1</text><text fill="#000000" font-family="sans-serif" font-size="12" lengthAdjust="spacing" textLength="18" x="149.4153" y="420.4203">1..*</text></g><!--link GameState to Detection--><g id="link_GameState_Detection"><path codeLine="96" d="M103.76,331.09 C108.35,361.82 113.68,397.43 117.91,425.71 " fill="none" id="GameState-to-Detection" style="stroke:#2F4F4F;stroke-width:1.0;stroke-dasharray:7.0,7.0;"/><polygon fill="#2F4F4F" points="118.68,430.9,121.298,421.4055,117.9369,425.9555,113.3868,422.5944,118.68,430.9" style="stroke:#2F4F4F;stroke-width:1.0;"/><text fill="#000000" font-family="sans-serif" font-size="12" lengthAdjust="spacing" textLength="42" x="111.5" y="374.457">&#171;uses&#187;</text><text fill="#000000" font-family="sans-serif" font-size="12" lengthAdjust="spacing" textLength="7" x="97.4043" y="350.92">1</text><text fill="#000000" font-family="sans-serif" font-size="12" lengthAdjust="spacing" textLength="18" x="98.3564" y="420.3973">0..*</text></g><!--SRC=[bLHDRnen4BtpAomkQTE2cXuHGWf1YI855R6eEHjxM2oyzjRs9gLL_tl7thMp7qHLkG0pysRUp3pF5SdSMGgLZ-n9g98QMX0cgRNazuZWPqdPAJUwKlnEIst8yr4ug3tQS32rTKNDAPFKmOEXv-2zDKQ_lkUyryfbuXUGcwzri7D6x2i7RSUVKOiIzUaQIckmbkPmAqMk20Fbm0oo8lYAt6a3v84MW3rY-L7TbpU4_qswJuHLnc2QZQHdC8-AmyyPULIkyGhh4TzUmComPos1giPJ1a36i8oTaJKjvuZwxA6BRkPTPLG8Q-SrMahx10VNDXv1yfLW69Y1cuTCeHLFM5Wdc2LKSNAhg3nRONijDH6nhnpDDdJ5EpL4VcoJpd3uAk_mVXLgYnFg1JpNrXY4fLq6e6RaIQD-a6VDffvZf9ZOb0QuO0vuasP6xgMcaHJJ2eCTA7RkEloGlKGnVXD_niqKfT4lKE248oQHM04JLcYreGxreTveK5magcVhfxy1urVJBRYd2cMNxuuueAEMlEirmfvsr0TqxRofbvK0VC2cQJcHmFdQzagSTbIs3Jaun20_hs-a- -7Z8ETE5B06N0qRDEVriAeC2aB7xNJylkcB_WEk5App-8uzyFFZzqK7-mPpqAQWYWtuDFf70G4zjVkJc04B3HrC5x37czCP3vFQXgOwrXACrQYo9IPwNyfDoq7mo_DQS-Y6Xgashsm53fWV2jc2FrWyYIdQOsDxVn4HlzHuAxRel4-FOW-uoJhxcxOFWgEqOIXJVEif-nPi9LsgmQCTctl2jp5FWR4tXzkmZXPbPrd2VgTIS2-PUAzQpoBL-b4XDXKJ1GvfHHr5qDa1dk_cLWSjFdgljzkGDGM4gOLPUPf7KTfHxnQDRyPaChacuo_JAVxitOOPcS_rAxxEnMBKSoKWVWyUiyVXL1qL_yIsdyb_m2w8ke- -qAcUJ4Adr-Fqv3tA6QzeZndCVpfTnDbSqaA_vgMODzgXS79xB1v8NZ6mBReG0B5k6n2gLHP2fRy0]--></g></svg>