<?xml version="1.0" encoding="us-ascii" standalone="no"?><svg xmlns="http://www.w3.org/2000/svg" xmlns:xlink="http://www.w3.org/1999/xlink" contentStyleType="text/css" height="806px" preserveAspectRatio="none" style="width:1278px;height:806px;background:#FFFFFF;" version="1.1" viewBox="0 0 1278 806" width="1278px" zoomAndPan="magnify"><defs/><g><!--cluster kavi--><g id="cluster_kavi"><path d="M8.5,6 L36.5,6 A3.75,3.75 0 0 1 39,8.5 L46,31.0938 L1268.5,31.0938 A2.5,2.5 0 0 1 1271,33.5938 L1271,796.5 A2.5,2.5 0 0 1 1268.5,799 L8.5,799 A2.5,2.5 0 0 1 6,796.5 L6,8.5 A2.5,2.5 0 0 1 8.5,6 " fill="#FEFEEE" style="stroke:#000000;stroke-width:1.5;"/><line style="stroke:#000000;stroke-width:1.5;" x1="6" x2="46" y1="31.0938" y2="31.0938"/><text fill="#000000" font-family="sans-serif" font-size="12" font-weight="bold" lengthAdjust="spacing" textLength="23" x="12" y="22.457">kavi</text></g><!--cluster data--><g id="cluster_data"><path d="M271.5,60 L301.5,60 A3.75,3.75 0 0 1 304,62.5 L311,85.0938 L1236.5,85.0938 A2.5,2.5 0 0 1 1239,87.5938 L1239,341.5 A2.5,2.5 0 0 1 1236.5,344 L271.5,344 A2.5,2.5 0 0 1 269,341.5 L269,62.5 A2.5,2.5 0 0 1 271.5,60 " fill="#FEFEEE" style="stroke:#000000;stroke-width:1.5;"/><line style="stroke:#000000;stroke-width:1.5;" x1="269" x2="311" y1="85.0938" y2="85.0938"/><text fill="#000000" font-family="sans-serif" font-size="12" font-weight="bold" lengthAdjust="spacing" textLength="25" x="275" y="76.457">data</text></g><!--cluster models--><g id="cluster_models"><path d="M1055.5,160 L1102.5,160 A3.75,3.75 0 0 1 1105,162.5 L1112,185.0938 L1204.5,185.0938 A2.5,2.5 0 0 1 1207,187.5938 L1207,285.5 A2.5,2.5 0 0 1 1204.5,288 L1055.5,288 A2.5,2.5 0 0 1 1053,285.5 L1053,162.5 A2.5,2.5 0 0 1 1055.5,160 " fill="#FEFEEE" style="stroke:#000000;stroke-width:1.5;"/><line style="stroke:#000000;stroke-width:1.5;" x1="1053" x2="1112" y1="185.0938" y2="185.0938"/><text fill="#000000" font-family="sans-serif" font-size="12" font-weight="bold" lengthAdjust="spacing" textLength="42" x="1059" y="176.457">models</text></g><!--cluster manager--><g id="cluster_manager"><path d="M677.5,114 L733.5,114 A3.75,3.75 0 0 1 736,116.5 L743,139.0938 L1026.5,139.0938 A2.5,2.5 0 0 1 1029,141.5938 L1029,309.5 A2.5,2.5 0 0 1 1026.5,312 L677.5,312 A2.5,2.5 0 0 1 675,309.5 L675,116.5 A2.5,2.5 0 0 1 677.5,114 " fill="#FEFEEE" style="stroke:#000000;stroke-width:1.5;"/><line style="stroke:#000000;stroke-width:1.5;" x1="675" x2="743" y1="139.0938" y2="139.0938"/><text fill="#000000" font-family="sans-serif" font-size="12" font-weight="bold" lengthAdjust="spacing" textLength="51" x="681" y="130.457">manager</text></g><!--cluster games--><g id="cluster_games"><path d="M833.5,160 L877.5,160 A3.75,3.75 0 0 1 880,162.5 L887,185.0938 L1002.5,185.0938 A2.5,2.5 0 0 1 1005,187.5938 L1005,285.5 A2.5,2.5 0 0 1 1002.5,288 L833.5,288 A2.5,2.5 0 0 1 831,285.5 L831,162.5 A2.5,2.5 0 0 1 833.5,160 " fill="#FEFEEE" style="stroke:#000000;stroke-width:1.5;"/><line style="stroke:#000000;stroke-width:1.5;" x1="831" x2="887" y1="185.0938" y2="185.0938"/><text fill="#000000" font-family="sans-serif" font-size="12" font-weight="bold" lengthAdjust="spacing" textLength="39" x="837" y="176.457">games</text></g><!--cluster repository--><g id="cluster_repository"><path d="M485.5,175 L548.5,175 A3.75,3.75 0 0 1 551,177.5 L558,200.0938 L648.5,200.0938 A2.5,2.5 0 0 1 651,202.5938 L651,270.5 A2.5,2.5 0 0 1 648.5,273 L485.5,273 A2.5,2.5 0 0 1 483,270.5 L483,177.5 A2.5,2.5 0 0 1 485.5,175 " fill="#FEFEEE" style="stroke:#000000;stroke-width:1.5;"/><line style="stroke:#000000;stroke-width:1.5;" x1="483" x2="558" y1="200.0938" y2="200.0938"/><text fill="#000000" font-family="sans-serif" font-size="12" font-weight="bold" lengthAdjust="spacing" textLength="58" x="489" y="191.457">repository</text></g><!--cluster service--><g id="cluster_service"><path d="M311.5,175 L358.5,175 A3.75,3.75 0 0 1 361,177.5 L368,200.0938 L456.5,200.0938 A2.5,2.5 0 0 1 459,202.5938 L459,270.5 A2.5,2.5 0 0 1 456.5,273 L311.5,273 A2.5,2.5 0 0 1 309,270.5 L309,177.5 A2.5,2.5 0 0 1 311.5,175 " fill="#FEFEEE" style="stroke:#000000;stroke-width:1.5;"/><line style="stroke:#000000;stroke-width:1.5;" x1="309" x2="368" y1="200.0938" y2="200.0938"/><text fill="#000000" font-family="sans-serif" font-size="12" font-weight="bold" lengthAdjust="spacing" textLength="42" x="315" y="191.457">service</text></g><!--cluster ui--><g id="cluster_ui"><path d="M271.5,384 L286.5,384 A3.75,3.75 0 0 1 289,386.5 L296,409.0938 L1138.5,409.0938 A2.5,2.5 0 0 1 1141,411.5938 L1141,595.5 A2.5,2.5 0 0 1 1138.5,598 L271.5,598 A2.5,2.5 0 0 1 269,595.5 L269,386.5 A2.5,2.5 0 0 1 271.5,384 " fill="#FEFEEE" style="stroke:#000000;stroke-width:1.5;"/><line style="stroke:#000000;stroke-width:1.5;" x1="269" x2="296" y1="409.0938" y2="409.0938"/><text fill="#000000" font-family="sans-serif" font-size="12" font-weight="bold" lengthAdjust="spacing" textLength="10" x="275" y="400.457">ui</text></g><!--cluster screens--><g id="cluster_screens"><path d="M951.5,438 L1003.5,438 A3.75,3.75 0 0 1 1006,440.5 L1013,463.0938 L1106.5,463.0938 A2.5,2.5 0 0 1 1109,465.5938 L1109,563.5 A2.5,2.5 0 0 1 1106.5,566 L951.5,566 A2.5,2.5 0 0 1 949,563.5 L949,440.5 A2.5,2.5 0 0 1 951.5,438 " fill="#FEFEEE" style="stroke:#000000;stroke-width:1.5;"/><line style="stroke:#000000;stroke-width:1.5;" x1="949" x2="1013" y1="463.0938" y2="463.0938"/><text fill="#000000" font-family="sans-serif" font-size="12" font-weight="bold" lengthAdjust="spacing" textLength="47" x="955" y="454.457">screens</text></g><!--cluster components--><g id="cluster_components"><path d="M769.5,438 L845.5,438 A3.75,3.75 0 0 1 848,440.5 L855,463.0938 L922.5,463.0938 A2.5,2.5 0 0 1 925,465.5938 L925,563.5 A2.5,2.5 0 0 1 922.5,566 L769.5,566 A2.5,2.5 0 0 1 767,563.5 L767,440.5 A2.5,2.5 0 0 1 769.5,438 " fill="#FEFEEE" style="stroke:#000000;stroke-width:1.5;"/><line style="stroke:#000000;stroke-width:1.5;" x1="767" x2="855" y1="463.0938" y2="463.0938"/><text fill="#000000" font-family="sans-serif" font-size="12" font-weight="bold" lengthAdjust="spacing" textLength="71" x="773" y="454.457">components</text></g><!--cluster viewmodel--><g id="cluster_viewmodel"><path d="M433.5,445.5 L499.5,445.5 A3.75,3.75 0 0 1 502,448 L509,470.5938 L596.5,470.5938 A2.5,2.5 0 0 1 599,473.0938 L599,556 A2.5,2.5 0 0 1 596.5,558.5 L433.5,558.5 A2.5,2.5 0 0 1 431,556 L431,448 A2.5,2.5 0 0 1 433.5,445.5 " fill="#FEFEEE" style="stroke:#000000;stroke-width:1.5;"/><line style="stroke:#000000;stroke-width:1.5;" x1="431" x2="509" y1="470.5938" y2="470.5938"/><text fill="#000000" font-family="sans-serif" font-size="12" font-weight="bold" lengthAdjust="spacing" textLength="61" x="437" y="461.957">viewmodel</text></g><!--cluster theme--><g id="cluster_theme"><path d="M625.5,445.5 L666.5,445.5 A3.75,3.75 0 0 1 669,448 L676,470.5938 L740.5,470.5938 A2.5,2.5 0 0 1 743,473.0938 L743,556 A2.5,2.5 0 0 1 740.5,558.5 L625.5,558.5 A2.5,2.5 0 0 1 623,556 L623,448 A2.5,2.5 0 0 1 625.5,445.5 " fill="#FEFEEE" style="stroke:#000000;stroke-width:1.5;"/><line style="stroke:#000000;stroke-width:1.5;" x1="623" x2="676" y1="470.5938" y2="470.5938"/><text fill="#000000" font-family="sans-serif" font-size="12" font-weight="bold" lengthAdjust="spacing" textLength="36" x="629" y="461.957">theme</text></g><!--cluster di--><g id="cluster_di"><path d="M75.5,445 L90.5,445 A3.75,3.75 0 0 1 93,447.5 L100,470.0938 L226.5,470.0938 A2.5,2.5 0 0 1 229,472.5938 L229,556.5 A2.5,2.5 0 0 1 226.5,559 L75.5,559 A2.5,2.5 0 0 1 73,556.5 L73,447.5 A2.5,2.5 0 0 1 75.5,445 " fill="#FEFEEE" style="stroke:#000000;stroke-width:1.5;"/><line style="stroke:#000000;stroke-width:1.5;" x1="73" x2="100" y1="470.0938" y2="470.0938"/><text fill="#000000" font-family="sans-serif" font-size="12" font-weight="bold" lengthAdjust="spacing" textLength="10" x="79" y="461.457">di</text></g><!--cluster util--><g id="cluster_util"><path d="M75.5,638 L97.5,638 A3.75,3.75 0 0 1 100,640.5 L107,663.0938 L240.5,663.0938 A2.5,2.5 0 0 1 243,665.5938 L243,764.5 A2.5,2.5 0 0 1 240.5,767 L75.5,767 A2.5,2.5 0 0 1 73,764.5 L73,640.5 A2.5,2.5 0 0 1 75.5,638 " fill="#FEFEEE" style="stroke:#000000;stroke-width:1.5;"/><line style="stroke:#000000;stroke-width:1.5;" x1="73" x2="107" y1="663.0938" y2="663.0938"/><text fill="#000000" font-family="sans-serif" font-size="12" font-weight="bold" lengthAdjust="spacing" textLength="17" x="79" y="654.457">util</text></g><!--class KaviApplication--><g id="elem_KaviApplication"><rect codeLine="16" fill="#F1F1F1" height="46" id="KaviApplication" rx="2.5" ry="2.5" style="stroke:#181818;stroke-width:0.5;" width="117" x="127.5" y="212"/><ellipse cx="141.5" cy="227" fill="#ADD1B2" rx="10" ry="10" style="stroke:#181818;stroke-width:1.0;"/><path d="M142.9844,224.2031 Q143.0938,224.0469 143.2188,223.9688 Q143.3594,223.8906 143.5156,223.8906 Q143.7813,223.8906 143.9375,224.0781 Q144.1094,224.2656 144.1094,224.6875 L144.1094,225.7188 Q144.1094,226.1406 143.9375,226.3281 Q143.7813,226.5156 143.5156,226.5156 Q143.2656,226.5156 143.125,226.375 Q142.9844,226.25 142.9063,225.875 Q142.875,225.625 142.75,225.5 Q142.5,225.2344 142.0625,225.0781 Q141.6406,224.9219 141.2031,224.9219 Q140.6719,224.9219 140.2188,225.1563 Q139.7656,225.3906 139.4219,225.9219 Q139.0781,226.4375 139.0781,227.1719 L139.0781,227.9531 Q139.0781,228.8125 139.7031,229.3906 Q140.3438,229.9688 141.4531,229.9688 Q142.125,229.9688 142.5938,229.7969 Q142.8594,229.6875 143.1563,229.375 Q143.3438,229.1875 143.4531,229.1406 Q143.5625,229.0781 143.6875,229.0781 Q143.9375,229.0781 144.1094,229.2656 Q144.2969,229.4375 144.2969,229.6875 Q144.2969,229.9375 144.0469,230.2188 Q143.6875,230.625 143.125,230.8594 Q142.375,231.1719 141.4688,231.1719 Q140.3906,231.1719 139.5469,230.7344 Q138.8438,230.3906 138.3594,229.625 Q137.875,228.8594 137.875,227.9688 L137.875,227.1563 Q137.875,226.2188 138.3125,225.4063 Q138.75,224.5938 139.5156,224.1563 Q140.2969,223.7188 141.1563,223.7188 Q141.6875,223.7188 142.1406,223.8438 Q142.5938,223.9531 142.9844,224.2031 Z " fill="#000000"/><text fill="#000000" font-family="sans-serif" font-size="12" lengthAdjust="spacing" textLength="83" x="156.5" y="231.9102">KaviApplication</text><line style="stroke:#181818;stroke-width:0.5;" x1="128.5" x2="243.5" y1="242" y2="242"/><line style="stroke:#181818;stroke-width:0.5;" x1="128.5" x2="243.5" y1="250" y2="250"/></g><!--class MainActivity--><g id="elem_MainActivity"><rect codeLine="17" fill="#F1F1F1" height="46" id="MainActivity" rx="2.5" ry="2.5" style="stroke:#181818;stroke-width:0.5;" width="95" x="22.5" y="212"/><ellipse cx="36.5" cy="227" fill="#ADD1B2" rx="10" ry="10" style="stroke:#181818;stroke-width:1.0;"/><path d="M37.9844,224.2031 Q38.0938,224.0469 38.2188,223.9688 Q38.3594,223.8906 38.5156,223.8906 Q38.7813,223.8906 38.9375,224.0781 Q39.1094,224.2656 39.1094,224.6875 L39.1094,225.7188 Q39.1094,226.1406 38.9375,226.3281 Q38.7813,226.5156 38.5156,226.5156 Q38.2656,226.5156 38.125,226.375 Q37.9844,226.25 37.9063,225.875 Q37.875,225.625 37.75,225.5 Q37.5,225.2344 37.0625,225.0781 Q36.6406,224.9219 36.2031,224.9219 Q35.6719,224.9219 35.2188,225.1563 Q34.7656,225.3906 34.4219,225.9219 Q34.0781,226.4375 34.0781,227.1719 L34.0781,227.9531 Q34.0781,228.8125 34.7031,229.3906 Q35.3438,229.9688 36.4531,229.9688 Q37.125,229.9688 37.5938,229.7969 Q37.8594,229.6875 38.1563,229.375 Q38.3438,229.1875 38.4531,229.1406 Q38.5625,229.0781 38.6875,229.0781 Q38.9375,229.0781 39.1094,229.2656 Q39.2969,229.4375 39.2969,229.6875 Q39.2969,229.9375 39.0469,230.2188 Q38.6875,230.625 38.125,230.8594 Q37.375,231.1719 36.4688,231.1719 Q35.3906,231.1719 34.5469,230.7344 Q33.8438,230.3906 33.3594,229.625 Q32.875,228.8594 32.875,227.9688 L32.875,227.1563 Q32.875,226.2188 33.3125,225.4063 Q33.75,224.5938 34.5156,224.1563 Q35.2969,223.7188 36.1563,223.7188 Q36.6875,223.7188 37.1406,223.8438 Q37.5938,223.9531 37.9844,224.2031 Z " fill="#000000"/><text fill="#000000" font-family="sans-serif" font-size="12" lengthAdjust="spacing" textLength="61" x="51.5" y="231.9102">MainActivity</text><line style="stroke:#181818;stroke-width:0.5;" x1="23.5" x2="116.5" y1="242" y2="242"/><line style="stroke:#181818;stroke-width:0.5;" x1="23.5" x2="116.5" y1="250" y2="250"/></g><g id="elem_N1"><path d="M1069,198 L1069,272.375 L1191,272.375 L1191,208 L1181,198 L1069,198 " fill="#FEFFDD" style="stroke:#181818;stroke-width:0.5;"/><path d="M1181,198 L1181,208 L1191,208 L1181,198 " fill="#FEFFDD" style="stroke:#181818;stroke-width:1.0;"/><text fill="#000000" font-family="sans-serif" font-size="12" lengthAdjust="spacing" textLength="71" x="1077" y="217.457">Game states</text><text fill="#000000" font-family="sans-serif" font-size="12" lengthAdjust="spacing" textLength="86" x="1077" y="232.5508">Game statistics</text><text fill="#000000" font-family="sans-serif" font-size="12" lengthAdjust="spacing" textLength="97" x="1077" y="247.6445">Detection models</text><text fill="#000000" font-family="sans-serif" font-size="12" lengthAdjust="spacing" textLength="40" x="1077" y="262.7383">Enums</text></g><g id="elem_N3"><path d="M691.5,205.5 L691.5,264.7813 L814.5,264.7813 L814.5,215.5 L804.5,205.5 L691.5,205.5 " fill="#FEFFDD" style="stroke:#181818;stroke-width:0.5;"/><path d="M804.5,205.5 L804.5,215.5 L814.5,215.5 L804.5,205.5 " fill="#FEFFDD" style="stroke:#181818;stroke-width:1.0;"/><text fill="#000000" font-family="sans-serif" font-size="12" lengthAdjust="spacing" textLength="73" x="699.5" y="224.957">DiceManager</text><text fill="#000000" font-family="sans-serif" font-size="12" lengthAdjust="spacing" textLength="98" x="699.5" y="240.0508">StatisticsManager</text><text fill="#000000" font-family="sans-serif" font-size="12" lengthAdjust="spacing" textLength="93" x="699.5" y="255.1445">SettingsManager</text></g><g id="elem_N2"><path d="M847.5,198 L847.5,272.375 L988.5,272.375 L988.5,208 L978.5,198 L847.5,198 " fill="#FEFFDD" style="stroke:#181818;stroke-width:0.5;"/><path d="M978.5,198 L978.5,208 L988.5,208 L978.5,198 " fill="#FEFFDD" style="stroke:#181818;stroke-width:1.0;"/><text fill="#000000" font-family="sans-serif" font-size="12" lengthAdjust="spacing" textLength="100" x="855.5" y="217.457">PigGameManager</text><text fill="#000000" font-family="sans-serif" font-size="12" lengthAdjust="spacing" textLength="116" x="855.5" y="232.5508">GreedGameManager</text><text fill="#000000" font-family="sans-serif" font-size="12" lengthAdjust="spacing" textLength="110" x="855.5" y="247.6445">BalutGameManager</text><text fill="#000000" font-family="sans-serif" font-size="12" lengthAdjust="spacing" textLength="96" x="855.5" y="262.7383">MyGameManager</text></g><g id="elem_N4"><path d="M499,213 L499,257.1875 L635,257.1875 L635,223 L625,213 L499,213 " fill="#FEFFDD" style="stroke:#181818;stroke-width:0.5;"/><path d="M625,213 L625,223 L635,223 L625,213 " fill="#FEFFDD" style="stroke:#181818;stroke-width:1.0;"/><text fill="#000000" font-family="sans-serif" font-size="12" lengthAdjust="spacing" textLength="111" x="507" y="232.457">RoboflowRepository</text><text fill="#000000" font-family="sans-serif" font-size="12" lengthAdjust="spacing" textLength="109" x="507" y="247.5508">StatisticsRepository</text></g><g id="elem_N5"><path d="M325.5,213 L325.5,257.1875 L442.5,257.1875 L442.5,223 L432.5,213 L325.5,213 " fill="#FEFFDD" style="stroke:#181818;stroke-width:0.5;"/><path d="M432.5,213 L432.5,223 L442.5,223 L432.5,213 " fill="#FEFFDD" style="stroke:#181818;stroke-width:1.0;"/><text fill="#000000" font-family="sans-serif" font-size="12" lengthAdjust="spacing" textLength="75" x="333.5" y="232.457">GameTracker</text><text fill="#000000" font-family="sans-serif" font-size="12" lengthAdjust="spacing" textLength="92" x="333.5" y="247.5508">RoboflowService</text></g><!--class AppNavigation--><g id="elem_AppNavigation"><rect codeLine="59" fill="#F1F1F1" height="46" id="AppNavigation" rx="2.5" ry="2.5" style="stroke:#181818;stroke-width:0.5;" width="113" x="301.5" y="490"/><ellipse cx="315.5" cy="505" fill="#ADD1B2" rx="10" ry="10" style="stroke:#181818;stroke-width:1.0;"/><path d="M316.9844,502.2031 Q317.0938,502.0469 317.2188,501.9688 Q317.3594,501.8906 317.5156,501.8906 Q317.7813,501.8906 317.9375,502.0781 Q318.1094,502.2656 318.1094,502.6875 L318.1094,503.7188 Q318.1094,504.1406 317.9375,504.3281 Q317.7813,504.5156 317.5156,504.5156 Q317.2656,504.5156 317.125,504.375 Q316.9844,504.25 316.9063,503.875 Q316.875,503.625 316.75,503.5 Q316.5,503.2344 316.0625,503.0781 Q315.6406,502.9219 315.2031,502.9219 Q314.6719,502.9219 314.2188,503.1563 Q313.7656,503.3906 313.4219,503.9219 Q313.0781,504.4375 313.0781,505.1719 L313.0781,505.9531 Q313.0781,506.8125 313.7031,507.3906 Q314.3438,507.9688 315.4531,507.9688 Q316.125,507.9688 316.5938,507.7969 Q316.8594,507.6875 317.1563,507.375 Q317.3438,507.1875 317.4531,507.1406 Q317.5625,507.0781 317.6875,507.0781 Q317.9375,507.0781 318.1094,507.2656 Q318.2969,507.4375 318.2969,507.6875 Q318.2969,507.9375 318.0469,508.2188 Q317.6875,508.625 317.125,508.8594 Q316.375,509.1719 315.4688,509.1719 Q314.3906,509.1719 313.5469,508.7344 Q312.8438,508.3906 312.3594,507.625 Q311.875,506.8594 311.875,505.9688 L311.875,505.1563 Q311.875,504.2188 312.3125,503.4063 Q312.75,502.5938 313.5156,502.1563 Q314.2969,501.7188 315.1563,501.7188 Q315.6875,501.7188 316.1406,501.8438 Q316.5938,501.9531 316.9844,502.2031 Z " fill="#000000"/><text fill="#000000" font-family="sans-serif" font-size="12" lengthAdjust="spacing" textLength="79" x="330.5" y="509.9102">AppNavigation</text><line style="stroke:#181818;stroke-width:0.5;" x1="302.5" x2="413.5" y1="520" y2="520"/><line style="stroke:#181818;stroke-width:0.5;" x1="302.5" x2="413.5" y1="528" y2="528"/></g><g id="elem_N6"><path d="M965,476 L965,550.375 L1093,550.375 L1093,486 L1083,476 L965,476 " fill="#FEFFDD" style="stroke:#181818;stroke-width:0.5;"/><path d="M1083,476 L1083,486 L1093,486 L1083,476 " fill="#FEFFDD" style="stroke:#181818;stroke-width:1.0;"/><text fill="#000000" font-family="sans-serif" font-size="12" lengthAdjust="spacing" textLength="73" x="973" y="495.457">GameScreen</text><text fill="#000000" font-family="sans-serif" font-size="12" lengthAdjust="spacing" textLength="103" x="973" y="510.5508">VirtualModeScreen</text><text fill="#000000" font-family="sans-serif" font-size="12" lengthAdjust="spacing" textLength="89" x="973" y="525.6445">StatisticsScreen</text><text fill="#000000" font-family="sans-serif" font-size="12" lengthAdjust="spacing" textLength="84" x="973" y="540.7383">SettingsScreen</text></g><g id="elem_N7"><path d="M783,476 L783,550.375 L909,550.375 L909,486 L899,476 L783,476 " fill="#FEFFDD" style="stroke:#181818;stroke-width:0.5;"/><path d="M899,476 L899,486 L909,486 L899,476 " fill="#FEFFDD" style="stroke:#181818;stroke-width:1.0;"/><text fill="#000000" font-family="sans-serif" font-size="12" lengthAdjust="spacing" textLength="101" x="791" y="495.457">DrawDetectionBox</text><text fill="#000000" font-family="sans-serif" font-size="12" lengthAdjust="spacing" textLength="48" x="791" y="510.5508">DiceGrid</text><text fill="#000000" font-family="sans-serif" font-size="12" lengthAdjust="spacing" textLength="81" x="791" y="525.6445">GameControls</text><text fill="#000000" font-family="sans-serif" font-size="12" lengthAdjust="spacing" textLength="43" x="791" y="540.7383">Dialogs</text></g><g id="elem_N8"><path d="M447,483.5 L447,542.7813 L583,542.7813 L583,493.5 L573,483.5 L447,483.5 " fill="#FEFFDD" style="stroke:#181818;stroke-width:0.5;"/><path d="M573,483.5 L573,493.5 L583,493.5 L573,483.5 " fill="#FEFFDD" style="stroke:#181818;stroke-width:1.0;"/><text fill="#000000" font-family="sans-serif" font-size="12" lengthAdjust="spacing" textLength="93" x="455" y="502.957">GameViewModel</text><text fill="#000000" font-family="sans-serif" font-size="12" lengthAdjust="spacing" textLength="111" x="455" y="518.0508">DetectionViewModel</text><text fill="#000000" font-family="sans-serif" font-size="12" lengthAdjust="spacing" textLength="109" x="455" y="533.1445">StatisticsViewModel</text></g><g id="elem_N9"><path d="M639,483.5 L639,542.7813 L727,542.7813 L727,493.5 L717,483.5 L639,483.5 " fill="#FEFFDD" style="stroke:#181818;stroke-width:0.5;"/><path d="M717,483.5 L717,493.5 L727,493.5 L717,483.5 " fill="#FEFFDD" style="stroke:#181818;stroke-width:1.0;"/><text fill="#000000" font-family="sans-serif" font-size="12" lengthAdjust="spacing" textLength="37" x="647" y="502.957">Colors</text><text fill="#000000" font-family="sans-serif" font-size="12" lengthAdjust="spacing" textLength="63" x="647" y="518.0508">Typography</text><text fill="#000000" font-family="sans-serif" font-size="12" lengthAdjust="spacing" textLength="39" x="647" y="533.1445">Theme</text></g><g id="elem_N10"><path d="M105.5,491 L105.5,535.1875 L204.5,535.1875 L204.5,501 L194.5,491 L105.5,491 " fill="#FEFFDD" style="stroke:#181818;stroke-width:0.5;"/><path d="M194.5,491 L194.5,501 L204.5,501 L194.5,491 " fill="#FEFFDD" style="stroke:#181818;stroke-width:1.0;"/><text fill="#000000" font-family="sans-serif" font-size="12" lengthAdjust="spacing" textLength="61" x="113.5" y="510.457">AppModule</text><text fill="#000000" font-family="sans-serif" font-size="12" lengthAdjust="spacing" textLength="74" x="113.5" y="525.5508">GameModule</text></g><g id="elem_N11"><path d="M105.5,684 L105.5,743.2813 L218.5,743.2813 L218.5,694 L208.5,684 L105.5,684 " fill="#FEFFDD" style="stroke:#181818;stroke-width:0.5;"/><path d="M208.5,684 L208.5,694 L218.5,694 L208.5,684 " fill="#FEFFDD" style="stroke:#181818;stroke-width:1.0;"/><text fill="#000000" font-family="sans-serif" font-size="12" lengthAdjust="spacing" textLength="88" x="113.5" y="703.457">ScoreCalculator</text><text fill="#000000" font-family="sans-serif" font-size="12" lengthAdjust="spacing" textLength="57" x="113.5" y="718.5508">Constants</text><text fill="#000000" font-family="sans-serif" font-size="12" lengthAdjust="spacing" textLength="61" x="113.5" y="733.6445">Extensions</text></g><!--link data to ui--><!--link ui to di--><!--link di to util--><!--SRC=[ZLHDSzem4BtxLsZI0oTcGlfzJ82acPPC1cWkfOUDjJ5RXEIHP8ZRuRztZR_1PF05_7RzzktgQNjYvbD5EWfwRaKw1Wjh4KEuWWYp20gBeGSTAGpgX4UGahyHLotCUWef1ktBy6KZF3Jhs6Zi3ceZqM4i1atGWbuTWH9V857-rcW_exye1aq9pwmxiYRHScYKiMAx9D-KNVHrSv3sxdPyEnwFEnADbMYBfClz4mGzCG7IuZgE5ONWoUYWI1SNAzZGXVWN27v21Sw9xumqK-j8nd8TUjgGJuCztXCZy21-G8fs3rIyal6IjnLOy-2KQuQoHnlFiJjOet0UFBg5hbx8yIanC4BF1ykIHCwnq6ETh9aAd7WOL7Ixwbz7ST3yQm-hL_68Qnvfg_KzKfIfckGiBD4YoXPo0ohnBMIIDbvphLSj-bt784OKrWopQWOrXDwp8rsBzlrP8x0O6qVUsBJx3ARcsRmeivrMUKq5qyRNMSqFPzLqQ3VSqUb3drjEpHehgy_ABx8Y7m-Ax4hp_Rplibv2dSPp8P-MViDvitt2GZ-HzGce2PkiXEe1L4Xn0lbxhlFJMSC8oxLoGih8mhQo-ervPUFp9EuioVnE37cHM9FPVqIWJ5HSWCzd5TyGRlUtv_GOdZWbwrqrRbm3gqTHWRc0BsS9y4jSdp32VcjnM_CqDf65UCdEc-Vf6V_Nj_Zp1SLhwu6tLrGlhieg8unHIzHXAkxrdxohWutLiaqkYGcvmqHXFlhyVx5mBW-yw4cH9tG7PcJuc7SM6ej3K66YW2_JGlEXygfZJ_1IU_LiKvPNRhP1KMYNRNBskqcy-4QS6sHBLlH_BKboPx-bsUg-I2X8g0OjHKlV5v82IKUfh2tu3m00]--></g></svg>