<?xml version="1.0" encoding="us-ascii" standalone="no"?><svg xmlns="http://www.w3.org/2000/svg" xmlns:xlink="http://www.w3.org/1999/xlink" contentStyleType="text/css" height="1347px" preserveAspectRatio="none" style="width:1012px;height:1347px;background:#FFFFFF;" version="1.1" viewBox="0 0 1012 1347" width="1012px" zoomAndPan="magnify"><defs/><g><rect fill="#FFFFFF" height="1140.5703" style="stroke:#181818;stroke-width:1.0;" width="10" x="199" y="114.9609"/><rect fill="#FFFFFF" height="605.9453" style="stroke:#181818;stroke-width:1.0;" width="10" x="552" y="370.7734"/><rect fill="#FFFFFF" height="307.8125" style="stroke:#181818;stroke-width:1.0;" width="10" x="747" y="444.4766"/><rect fill="#FFFFFF" height="30.3516" style="stroke:#181818;stroke-width:1.0;" width="10" x="942" y="604.8828"/><rect fill="none" height="180.0781" style="stroke:#000000;stroke-width:1.5;" width="275.5" x="476.5" y="767.2891"/><rect fill="none" height="183.1094" style="stroke:#000000;stroke-width:1.5;" width="627.5" x="10" y="1065.4219"/><line style="stroke:#181818;stroke-width:0.5;stroke-dasharray:5.0,5.0;" x1="43" x2="43" y1="82.6094" y2="1265.5313"/><line style="stroke:#181818;stroke-width:0.5;stroke-dasharray:5.0,5.0;" x1="204" x2="204" y1="82.6094" y2="1265.5313"/><line style="stroke:#181818;stroke-width:0.5;stroke-dasharray:5.0,5.0;" x1="419.5" x2="419.5" y1="82.6094" y2="1265.5313"/><line style="stroke:#181818;stroke-width:0.5;stroke-dasharray:5.0,5.0;" x1="556.5" x2="556.5" y1="82.6094" y2="1265.5313"/><line style="stroke:#181818;stroke-width:0.5;stroke-dasharray:5.0,5.0;" x1="752" x2="752" y1="82.6094" y2="1265.5313"/><line style="stroke:#181818;stroke-width:0.5;stroke-dasharray:5.0,5.0;" x1="946.5" x2="946.5" y1="82.6094" y2="1265.5313"/><text fill="#000000" font-family="sans-serif" font-size="14" lengthAdjust="spacing" textLength="40" x="20" y="79.5332">Player</text><ellipse cx="43" cy="13.5" fill="#E2E2F0" rx="8" ry="8" style="stroke:#181818;stroke-width:0.5;"/><path d="M43,21.5 L43,48.5 M30,29.5 L56,29.5 M43,48.5 L30,63.5 M43,48.5 L56,63.5 " fill="none" style="stroke:#181818;stroke-width:0.5;"/><text fill="#000000" font-family="sans-serif" font-size="14" lengthAdjust="spacing" textLength="40" x="20" y="1279.0645">Player</text><ellipse cx="43" cy="1290.6406" fill="#E2E2F0" rx="8" ry="8" style="stroke:#181818;stroke-width:0.5;"/><path d="M43,1298.6406 L43,1325.6406 M30,1306.6406 L56,1306.6406 M43,1325.6406 L30,1340.6406 M43,1325.6406 L56,1340.6406 " fill="none" style="stroke:#181818;stroke-width:0.5;"/><rect fill="#E2E2F0" height="31.6094" rx="2.5" ry="2.5" style="stroke:#181818;stroke-width:0.5;" width="134" x="137" y="50"/><text fill="#000000" font-family="sans-serif" font-size="14" lengthAdjust="spacing" textLength="120" x="144" y="71.5332">VirtualModeScreen</text><rect fill="#E2E2F0" height="31.6094" rx="2.5" ry="2.5" style="stroke:#181818;stroke-width:0.5;" width="134" x="137" y="1264.5313"/><text fill="#000000" font-family="sans-serif" font-size="14" lengthAdjust="spacing" textLength="120" x="144" y="1286.0645">VirtualModeScreen</text><rect fill="#E2E2F0" height="31.6094" rx="2.5" ry="2.5" style="stroke:#181818;stroke-width:0.5;" width="113" x="363.5" y="50"/><text fill="#000000" font-family="sans-serif" font-size="14" lengthAdjust="spacing" textLength="99" x="370.5" y="71.5332">CameraPreview</text><rect fill="#E2E2F0" height="31.6094" rx="2.5" ry="2.5" style="stroke:#181818;stroke-width:0.5;" width="113" x="363.5" y="1264.5313"/><text fill="#000000" font-family="sans-serif" font-size="14" lengthAdjust="spacing" textLength="99" x="370.5" y="1286.0645">CameraPreview</text><rect fill="#E2E2F0" height="31.6094" rx="2.5" ry="2.5" style="stroke:#181818;stroke-width:0.5;" width="141" x="486.5" y="50"/><text fill="#000000" font-family="sans-serif" font-size="14" lengthAdjust="spacing" textLength="127" x="493.5" y="71.5332">DetectionViewModel</text><rect fill="#E2E2F0" height="31.6094" rx="2.5" ry="2.5" style="stroke:#181818;stroke-width:0.5;" width="141" x="486.5" y="1264.5313"/><text fill="#000000" font-family="sans-serif" font-size="14" lengthAdjust="spacing" textLength="127" x="493.5" y="1286.0645">DetectionViewModel</text><rect fill="#E2E2F0" height="31.6094" rx="2.5" ry="2.5" style="stroke:#181818;stroke-width:0.5;" width="140" x="682" y="50"/><text fill="#000000" font-family="sans-serif" font-size="14" lengthAdjust="spacing" textLength="126" x="689" y="71.5332">RoboflowRepository</text><rect fill="#E2E2F0" height="31.6094" rx="2.5" ry="2.5" style="stroke:#181818;stroke-width:0.5;" width="140" x="682" y="1264.5313"/><text fill="#000000" font-family="sans-serif" font-size="14" lengthAdjust="spacing" textLength="126" x="689" y="1286.0645">RoboflowRepository</text><rect fill="#E2E2F0" height="31.6094" rx="2.5" ry="2.5" style="stroke:#181818;stroke-width:0.5;" width="119" x="887.5" y="50"/><text fill="#000000" font-family="sans-serif" font-size="14" lengthAdjust="spacing" textLength="105" x="894.5" y="71.5332">RoboflowService</text><rect fill="#E2E2F0" height="31.6094" rx="2.5" ry="2.5" style="stroke:#181818;stroke-width:0.5;" width="119" x="887.5" y="1264.5313"/><text fill="#000000" font-family="sans-serif" font-size="14" lengthAdjust="spacing" textLength="105" x="894.5" y="1286.0645">RoboflowService</text><rect fill="#FFFFFF" height="1140.5703" style="stroke:#181818;stroke-width:1.0;" width="10" x="199" y="114.9609"/><rect fill="#FFFFFF" height="605.9453" style="stroke:#181818;stroke-width:1.0;" width="10" x="552" y="370.7734"/><rect fill="#FFFFFF" height="307.8125" style="stroke:#181818;stroke-width:1.0;" width="10" x="747" y="444.4766"/><rect fill="#FFFFFF" height="30.3516" style="stroke:#181818;stroke-width:1.0;" width="10" x="942" y="604.8828"/><polygon fill="#181818" points="187,110.9609,197,114.9609,187,118.9609,191,114.9609" style="stroke:#181818;stroke-width:1.0;"/><line style="stroke:#181818;stroke-width:1.0;" x1="43" x2="193" y1="114.9609" y2="114.9609"/><text fill="#000000" font-family="sans-serif" font-size="13" lengthAdjust="spacing" textLength="111" x="50" y="110.1045">Opens virtual mode</text><polygon fill="#181818" points="408,141.3125,418,145.3125,408,149.3125,412,145.3125" style="stroke:#181818;stroke-width:1.0;"/><line style="stroke:#181818;stroke-width:1.0;" x1="209" x2="414" y1="145.3125" y2="145.3125"/><text fill="#000000" font-family="sans-serif" font-size="13" lengthAdjust="spacing" textLength="140" x="216" y="140.4561">Initialize camera preview</text><polygon fill="#181818" points="220,171.6641,210,175.6641,220,179.6641,216,175.6641" style="stroke:#181818;stroke-width:1.0;"/><line style="stroke:#181818;stroke-width:1.0;" x1="214" x2="419" y1="175.6641" y2="175.6641"/><text fill="#000000" font-family="sans-serif" font-size="13" lengthAdjust="spacing" textLength="169" x="226" y="170.8076">Request camera permissions</text><polygon fill="#181818" points="54,202.0156,44,206.0156,54,210.0156,50,206.0156" style="stroke:#181818;stroke-width:1.0;"/><line style="stroke:#181818;stroke-width:1.0;" x1="48" x2="198" y1="206.0156" y2="206.0156"/><text fill="#000000" font-family="sans-serif" font-size="13" lengthAdjust="spacing" textLength="125" x="60" y="201.1592">Show camera preview</text><polygon fill="#181818" points="187,232.3672,197,236.3672,187,240.3672,191,236.3672" style="stroke:#181818;stroke-width:1.0;"/><line style="stroke:#181818;stroke-width:1.0;" x1="43" x2="193" y1="236.3672" y2="236.3672"/><text fill="#000000" font-family="sans-serif" font-size="13" lengthAdjust="spacing" textLength="108" x="50" y="231.5107">Tap capture button</text><polygon fill="#181818" points="408,262.7188,418,266.7188,408,270.7188,412,266.7188" style="stroke:#181818;stroke-width:1.0;"/><line style="stroke:#181818;stroke-width:1.0;" x1="209" x2="414" y1="266.7188" y2="266.7188"/><text fill="#000000" font-family="sans-serif" font-size="13" lengthAdjust="spacing" textLength="74" x="216" y="261.8623">takePicture()</text><polygon fill="#181818" points="220,293.0703,210,297.0703,220,301.0703,216,297.0703" style="stroke:#181818;stroke-width:1.0;"/><line style="stroke:#181818;stroke-width:1.0;stroke-dasharray:2.0,2.0;" x1="214" x2="419" y1="297.0703" y2="297.0703"/><text fill="#000000" font-family="sans-serif" font-size="13" lengthAdjust="spacing" textLength="187" x="226" y="292.2139">onCaptureSuccess(ImageProxy)</text><line style="stroke:#181818;stroke-width:1.0;" x1="209" x2="251" y1="327.4219" y2="327.4219"/><line style="stroke:#181818;stroke-width:1.0;" x1="251" x2="251" y1="327.4219" y2="340.4219"/><line style="stroke:#181818;stroke-width:1.0;" x1="210" x2="251" y1="340.4219" y2="340.4219"/><polygon fill="#181818" points="220,336.4219,210,340.4219,220,344.4219,216,340.4219" style="stroke:#181818;stroke-width:1.0;"/><text fill="#000000" font-family="sans-serif" font-size="13" lengthAdjust="spacing" textLength="103" x="216" y="322.5654">Convert to Bitmap</text><polygon fill="#181818" points="540,366.7734,550,370.7734,540,374.7734,544,370.7734" style="stroke:#181818;stroke-width:1.0;"/><line style="stroke:#181818;stroke-width:1.0;" x1="209" x2="546" y1="370.7734" y2="370.7734"/><text fill="#000000" font-family="sans-serif" font-size="13" lengthAdjust="spacing" textLength="109" x="216" y="365.917">detectDice(bitmap)</text><line style="stroke:#181818;stroke-width:1.0;" x1="562" x2="604" y1="401.125" y2="401.125"/><line style="stroke:#181818;stroke-width:1.0;" x1="604" x2="604" y1="401.125" y2="414.125"/><line style="stroke:#181818;stroke-width:1.0;" x1="563" x2="604" y1="414.125" y2="414.125"/><polygon fill="#181818" points="573,410.125,563,414.125,573,418.125,569,414.125" style="stroke:#181818;stroke-width:1.0;"/><text fill="#000000" font-family="sans-serif" font-size="13" lengthAdjust="spacing" textLength="137" x="569" y="396.2686">Set state to Processing</text><polygon fill="#181818" points="735,440.4766,745,444.4766,735,448.4766,739,444.4766" style="stroke:#181818;stroke-width:1.0;"/><line style="stroke:#181818;stroke-width:1.0;" x1="562" x2="741" y1="444.4766" y2="444.4766"/><text fill="#000000" font-family="sans-serif" font-size="13" lengthAdjust="spacing" textLength="109" x="569" y="439.6201">detectDice(bitmap)</text><line style="stroke:#181818;stroke-width:1.0;" x1="757" x2="799" y1="474.8281" y2="474.8281"/><line style="stroke:#181818;stroke-width:1.0;" x1="799" x2="799" y1="474.8281" y2="487.8281"/><line style="stroke:#181818;stroke-width:1.0;" x1="758" x2="799" y1="487.8281" y2="487.8281"/><polygon fill="#181818" points="768,483.8281,758,487.8281,768,491.8281,764,487.8281" style="stroke:#181818;stroke-width:1.0;"/><text fill="#000000" font-family="sans-serif" font-size="13" lengthAdjust="spacing" textLength="105" x="764" y="469.9717">Preprocess image</text><line style="stroke:#181818;stroke-width:1.0;" x1="757" x2="799" y1="518.1797" y2="518.1797"/><line style="stroke:#181818;stroke-width:1.0;" x1="799" x2="799" y1="518.1797" y2="531.1797"/><line style="stroke:#181818;stroke-width:1.0;" x1="758" x2="799" y1="531.1797" y2="531.1797"/><polygon fill="#181818" points="768,527.1797,758,531.1797,768,535.1797,764,531.1797" style="stroke:#181818;stroke-width:1.0;"/><text fill="#000000" font-family="sans-serif" font-size="13" lengthAdjust="spacing" textLength="166" x="764" y="513.3232">Apply contrast enhancement</text><line style="stroke:#181818;stroke-width:1.0;" x1="757" x2="799" y1="561.5313" y2="561.5313"/><line style="stroke:#181818;stroke-width:1.0;" x1="799" x2="799" y1="561.5313" y2="574.5313"/><line style="stroke:#181818;stroke-width:1.0;" x1="758" x2="799" y1="574.5313" y2="574.5313"/><polygon fill="#181818" points="768,570.5313,758,574.5313,768,578.5313,764,574.5313" style="stroke:#181818;stroke-width:1.0;"/><text fill="#000000" font-family="sans-serif" font-size="13" lengthAdjust="spacing" textLength="101" x="764" y="556.6748">Scale to 640x640</text><polygon fill="#181818" points="930,600.8828,940,604.8828,930,608.8828,934,604.8828" style="stroke:#181818;stroke-width:1.0;"/><line style="stroke:#181818;stroke-width:1.0;" x1="757" x2="936" y1="604.8828" y2="604.8828"/><text fill="#000000" font-family="sans-serif" font-size="13" lengthAdjust="spacing" textLength="153" x="764" y="600.0264">detectDice(apiKey, image)</text><polygon fill="#181818" points="768,631.2344,758,635.2344,768,639.2344,764,635.2344" style="stroke:#181818;stroke-width:1.0;"/><line style="stroke:#181818;stroke-width:1.0;stroke-dasharray:2.0,2.0;" x1="762" x2="946" y1="635.2344" y2="635.2344"/><text fill="#000000" font-family="sans-serif" font-size="13" lengthAdjust="spacing" textLength="105" x="774" y="630.3779">Return predictions</text><line style="stroke:#181818;stroke-width:1.0;" x1="757" x2="799" y1="665.5859" y2="665.5859"/><line style="stroke:#181818;stroke-width:1.0;" x1="799" x2="799" y1="665.5859" y2="678.5859"/><line style="stroke:#181818;stroke-width:1.0;" x1="758" x2="799" y1="678.5859" y2="678.5859"/><polygon fill="#181818" points="768,674.5859,758,678.5859,768,682.5859,764,678.5859" style="stroke:#181818;stroke-width:1.0;"/><text fill="#000000" font-family="sans-serif" font-size="13" lengthAdjust="spacing" textLength="171" x="764" y="660.7295">Map predictions to detections</text><line style="stroke:#181818;stroke-width:1.0;" x1="757" x2="799" y1="708.9375" y2="708.9375"/><line style="stroke:#181818;stroke-width:1.0;" x1="799" x2="799" y1="708.9375" y2="721.9375"/><line style="stroke:#181818;stroke-width:1.0;" x1="758" x2="799" y1="721.9375" y2="721.9375"/><polygon fill="#181818" points="768,717.9375,758,721.9375,768,725.9375,764,721.9375" style="stroke:#181818;stroke-width:1.0;"/><text fill="#000000" font-family="sans-serif" font-size="13" lengthAdjust="spacing" textLength="164" x="764" y="704.0811">Filter low confidence (&lt;40%)</text><polygon fill="#181818" points="573,748.2891,563,752.2891,573,756.2891,569,752.2891" style="stroke:#181818;stroke-width:1.0;"/><line style="stroke:#181818;stroke-width:1.0;stroke-dasharray:2.0,2.0;" x1="567" x2="751" y1="752.2891" y2="752.2891"/><text fill="#000000" font-family="sans-serif" font-size="13" lengthAdjust="spacing" textLength="102" x="579" y="747.4326">Return detections</text><path d="M476.5,767.2891 L537.5,767.2891 L537.5,775.6406 L527.5,785.6406 L476.5,785.6406 L476.5,767.2891 " fill="#EEEEEE" style="stroke:#000000;stroke-width:1.5;"/><rect fill="none" height="180.0781" style="stroke:#000000;stroke-width:1.5;" width="275.5" x="476.5" y="767.2891"/><text fill="#000000" font-family="sans-serif" font-size="13" font-weight="bold" lengthAdjust="spacing" textLength="16" x="491.5" y="781.7842">alt</text><text fill="#000000" font-family="sans-serif" font-size="11" font-weight="bold" lengthAdjust="spacing" textLength="104" x="552.5" y="780.708">[Detections Found]</text><line style="stroke:#181818;stroke-width:1.0;" x1="562" x2="604" y1="807.9922" y2="807.9922"/><line style="stroke:#181818;stroke-width:1.0;" x1="604" x2="604" y1="807.9922" y2="820.9922"/><line style="stroke:#181818;stroke-width:1.0;" x1="563" x2="604" y1="820.9922" y2="820.9922"/><polygon fill="#181818" points="573,816.9922,563,820.9922,573,824.9922,569,820.9922" style="stroke:#181818;stroke-width:1.0;"/><text fill="#000000" font-family="sans-serif" font-size="13" lengthAdjust="spacing" textLength="144" x="569" y="803.1357">Update state to Success</text><line style="stroke:#000000;stroke-width:1.0;stroke-dasharray:2.0,2.0;" x1="476.5" x2="752" y1="829.9922" y2="829.9922"/><text fill="#000000" font-family="sans-serif" font-size="11" font-weight="bold" lengthAdjust="spacing" textLength="84" x="481.5" y="841.4111">[No Detections]</text><line style="stroke:#181818;stroke-width:1.0;" x1="562" x2="604" y1="867.1797" y2="867.1797"/><line style="stroke:#181818;stroke-width:1.0;" x1="604" x2="604" y1="867.1797" y2="880.1797"/><line style="stroke:#181818;stroke-width:1.0;" x1="563" x2="604" y1="880.1797" y2="880.1797"/><polygon fill="#181818" points="573,876.1797,563,880.1797,573,884.1797,569,880.1797" style="stroke:#181818;stroke-width:1.0;"/><text fill="#000000" font-family="sans-serif" font-size="13" lengthAdjust="spacing" textLength="171" x="569" y="862.3232">Update state to NoDetections</text><line style="stroke:#000000;stroke-width:1.0;stroke-dasharray:2.0,2.0;" x1="476.5" x2="752" y1="889.1797" y2="889.1797"/><text fill="#000000" font-family="sans-serif" font-size="11" font-weight="bold" lengthAdjust="spacing" textLength="78" x="481.5" y="900.5986">[Error Occurs]</text><line style="stroke:#181818;stroke-width:1.0;" x1="562" x2="604" y1="926.3672" y2="926.3672"/><line style="stroke:#181818;stroke-width:1.0;" x1="604" x2="604" y1="926.3672" y2="939.3672"/><line style="stroke:#181818;stroke-width:1.0;" x1="563" x2="604" y1="939.3672" y2="939.3672"/><polygon fill="#181818" points="573,935.3672,563,939.3672,573,943.3672,569,939.3672" style="stroke:#181818;stroke-width:1.0;"/><text fill="#000000" font-family="sans-serif" font-size="13" lengthAdjust="spacing" textLength="121" x="569" y="921.5107">Update state to Error</text><polygon fill="#181818" points="220,972.7188,210,976.7188,220,980.7188,216,976.7188" style="stroke:#181818;stroke-width:1.0;"/><line style="stroke:#181818;stroke-width:1.0;stroke-dasharray:2.0,2.0;" x1="214" x2="556" y1="976.7188" y2="976.7188"/><text fill="#000000" font-family="sans-serif" font-size="13" lengthAdjust="spacing" textLength="60" x="226" y="971.8623">Emit state</text><line style="stroke:#181818;stroke-width:1.0;" x1="209" x2="251" y1="1007.0703" y2="1007.0703"/><line style="stroke:#181818;stroke-width:1.0;" x1="251" x2="251" y1="1007.0703" y2="1020.0703"/><line style="stroke:#181818;stroke-width:1.0;" x1="210" x2="251" y1="1020.0703" y2="1020.0703"/><polygon fill="#181818" points="220,1016.0703,210,1020.0703,220,1024.0703,216,1020.0703" style="stroke:#181818;stroke-width:1.0;"/><text fill="#000000" font-family="sans-serif" font-size="13" lengthAdjust="spacing" textLength="125" x="216" y="1002.2139">Draw detection boxes</text><polygon fill="#181818" points="54,1046.4219,44,1050.4219,54,1054.4219,50,1050.4219" style="stroke:#181818;stroke-width:1.0;"/><line style="stroke:#181818;stroke-width:1.0;" x1="48" x2="198" y1="1050.4219" y2="1050.4219"/><text fill="#000000" font-family="sans-serif" font-size="13" lengthAdjust="spacing" textLength="132" x="60" y="1045.5654">Show detection results</text><path d="M10,1065.4219 L71,1065.4219 L71,1073.7734 L61,1083.7734 L10,1083.7734 L10,1065.4219 " fill="#EEEEEE" style="stroke:#000000;stroke-width:1.5;"/><rect fill="none" height="183.1094" style="stroke:#000000;stroke-width:1.5;" width="627.5" x="10" y="1065.4219"/><text fill="#000000" font-family="sans-serif" font-size="13" font-weight="bold" lengthAdjust="spacing" textLength="16" x="25" y="1079.917">alt</text><text fill="#000000" font-family="sans-serif" font-size="11" font-weight="bold" lengthAdjust="spacing" textLength="88" x="86" y="1078.8408">[Player retakes]</text><polygon fill="#181818" points="187,1102.125,197,1106.125,187,1110.125,191,1106.125" style="stroke:#181818;stroke-width:1.0;"/><line style="stroke:#181818;stroke-width:1.0;" x1="43" x2="193" y1="1106.125" y2="1106.125"/><text fill="#000000" font-family="sans-serif" font-size="13" lengthAdjust="spacing" textLength="74" x="50" y="1101.2686">Click Retake</text><line style="stroke:#181818;stroke-width:1.0;" x1="209" x2="251" y1="1136.4766" y2="1136.4766"/><line style="stroke:#181818;stroke-width:1.0;" x1="251" x2="251" y1="1136.4766" y2="1149.4766"/><line style="stroke:#181818;stroke-width:1.0;" x1="210" x2="251" y1="1149.4766" y2="1149.4766"/><polygon fill="#181818" points="220,1145.4766,210,1149.4766,220,1153.4766,216,1149.4766" style="stroke:#181818;stroke-width:1.0;"/><text fill="#000000" font-family="sans-serif" font-size="13" lengthAdjust="spacing" textLength="90" x="216" y="1131.6201">Recycle bitmap</text><polygon fill="#181818" points="545,1175.8281,555,1179.8281,545,1183.8281,549,1179.8281" style="stroke:#181818;stroke-width:1.0;"/><line style="stroke:#181818;stroke-width:1.0;" x1="209" x2="551" y1="1179.8281" y2="1179.8281"/><text fill="#000000" font-family="sans-serif" font-size="13" lengthAdjust="spacing" textLength="98" x="216" y="1174.9717">clearDetections()</text><polygon fill="#181818" points="408,1206.1797,418,1210.1797,408,1214.1797,412,1210.1797" style="stroke:#181818;stroke-width:1.0;"/><line style="stroke:#181818;stroke-width:1.0;" x1="209" x2="414" y1="1210.1797" y2="1210.1797"/><text fill="#000000" font-family="sans-serif" font-size="13" lengthAdjust="spacing" textLength="81" x="216" y="1205.3232">Reset camera</text><polygon fill="#181818" points="54,1236.5313,44,1240.5313,54,1244.5313,50,1240.5313" style="stroke:#181818;stroke-width:1.0;"/><line style="stroke:#181818;stroke-width:1.0;" x1="48" x2="198" y1="1240.5313" y2="1240.5313"/><text fill="#000000" font-family="sans-serif" font-size="13" lengthAdjust="spacing" textLength="125" x="60" y="1235.6748">Show camera preview</text><!--SRC=[XPHjQzim4CVV-rCS7OC4DkYBRfGm1gkJG1bfZRtclI9VKn5PqYGvgVVfTv9ZHmcb3IGGxdTt_tkIsmbbc6KD6CPtR8kLxoI2HUwPsahCt0WyESoPmplYjbQtgiwrr1O-BMwNjyjlMSQufx-5P1tQZ5oyuC8mvU5gBQnlcLpf6Yjk4TKLC0VhLNMEvQn1omgBUu67YEJ5EJ57JyA4LciYGZWPiVbwTSwLUgEVfJwKQBGJ9AkBN5c-ZLLezu9ZprHPrjS0Nty6ZJDuDAWSxFiYeA6qeLQnPnvZ4Hdz13WlPd2lX1TCYdy8F9O3fgydouinO8b_MtH-9D0smZagomsXUWKpg5xquJBGfRm_p11YV6iHDgttMgM2FDjX8NYmJgPHnE2dLTvxLItdwDpalg7v5rQ_TjCXGWHphVPeFNWDTy8tp8mLK-DdKCUXpAc1aqqqJq_j2PEXxyXMwC7vOA5Wb2ha5MexC6NvVZWQO5QM0qcROleG88BqnFJB6Da1ryfRHer6zS8KnmQLJw2ACnc5VB-vVgNlOAhEH30ZVcFtfK-HQg71brLiPmXM8hLIXI7L8gweoseyXyV4AvfO0WO9zR3PBk6MGdeQj0mxeDMpg96AWCcFc-lFquWDRJqcJuAakQbfJ7eOZyV1Cfnl1lH9X_Dawi2FypdkHORI8Jpe9C27hWywWQF_mbfw7HuvR-t7xX7Ea3Jscp5iug8Hn_r92mnBThQmSyiEfsR0Hh_YsvTrOYowLdhNT-fuO1R3yVHgBsukbuBlGji9YFOqVOcyuxHP_VgcvbWicPWzjOUkCY72oPReS7WSKjjxZqBiLTAJy2xz1m00]--></g></svg>